<svg xmlns="http://www.w3.org/2000/svg" xmlns:xlink="http://www.w3.org/1999/xlink" viewBox="0 0 750 500"><defs><style>.cls-1{fill:#ed0c37;}.cls-12,.cls-16,.cls-19,.cls-2,.cls-25,.cls-43,.cls-48,.cls-6{fill:none;}.cls-3,.cls-37{fill:#f99441;}.cls-4{isolation:isolate;}.cls-11,.cls-13,.cls-34,.cls-5,.cls-9{fill:#fff;}.cls-25,.cls-43,.cls-48,.cls-6{stroke:#fff;}.cls-11,.cls-12,.cls-16,.cls-19,.cls-25,.cls-28,.cls-37,.cls-43,.cls-6,.cls-9{stroke-miterlimit:10;}.cls-6{stroke-width:0.97349px;}.cls-10,.cls-23,.cls-50,.cls-54,.cls-55,.cls-7{fill:#764582;}.cls-29,.cls-8{fill:#9d68aa;}.cls-11,.cls-12,.cls-13,.cls-28,.cls-9{stroke:#764582;}.cls-28,.cls-9{stroke-width:0.9736px;}.cls-10,.cls-29,.cls-44,.cls-47{fill-rule:evenodd;}.cls-11,.cls-13{stroke-width:1.02436px;}.cls-12{stroke-width:1.26496px;}.cls-13,.cls-16,.cls-34,.cls-48{stroke-linecap:round;}.cls-13,.cls-34,.cls-48{stroke-linejoin:round;}.cls-14,.cls-27,.cls-47{fill:#a1abad;}.cls-14,.cls-47{opacity:0.7;mix-blend-mode:multiply;}.cls-15{fill:#e2e2e2;}.cls-16,.cls-19{stroke:#efe9da;stroke-width:1.1573px;}.cls-17{fill:#dd4026;}.cls-18{fill:#ffd25a;}.cls-20{fill:#3c8460;}.cls-21{fill:#71bf9d;}.cls-22{fill:#fd6141;}.cls-23{opacity:0.2;}.cls-24{fill:#e4bce8;}.cls-25{stroke-width:0.9734px;}.cls-26{fill:#fdeeff;}.cls-28{fill:#ffcc5a;}.cls-30,.cls-44{fill:#ffb072;}.cls-31{fill:#3e2344;}.cls-32{fill:#ffdcae;}.cls-33{fill:#ab46f9;}.cls-34{stroke:#6b42fc;stroke-width:1.85443px;}.cls-35{fill:#ca78ff;}.cls-36{fill:#ffbe57;}.cls-37{stroke:url(#Unnamed_Pattern_2);}.cls-38{clip-path:url(#clip-path);}.cls-39{fill:#ffaec1;}.cls-40{fill:#552f5e;}.cls-41{fill:#f29353;}.cls-42{clip-path:url(#clip-path-2);}.cls-43,.cls-48{stroke-width:0.49856px;}.cls-45,.cls-46{fill:#e57e55;}.cls-46{opacity:0.5;}.cls-49{fill:#ff8976;}.cls-50{opacity:0.3;}.cls-51{fill:#e9e4ef;}.cls-52{fill:#b2add8;}.cls-53{fill:#52a6ba;}.cls-54{font-size:22px;font-family:Mj_MoharramBold, Mj_Moharram Bold;}.cls-55{font-size:15.82326px;font-family:Mj_Kaman;}</style><pattern id="Unnamed_Pattern_2" data-name="Unnamed Pattern 2" width="16.2429" height="17.3179" patternUnits="userSpaceOnUse" viewBox="0 0 16.243 17.318"><rect class="cls-2" width="16.2429" height="17.3179"/><polygon class="cls-3" points="0 0 0 16.798 16.243 17.318 16.243 2.937 0 0"/></pattern><clipPath id="clip-path"><path class="cls-1" d="M289.8701,377.0817a7.35819,7.35819,0,0,0,.5425,5.1103c-.2379.1071-.0584,1.0833.3702,1.2903.5053.244,4.1585.184,4.9005-.395a.78912.78912,0,0,0-.0247-.6557s.9144.3468,3.5131-.1439a13.209,13.209,0,0,0,5.0028-1.8834c.3061-.194.0939-.8869-.2508-.7754,0,0-.2228-1.8037-1.7319-1.7061a11.34775,11.34775,0,0,1-6.8902-2.0144,5.67922,5.67922,0,0,0-2.0557-.8935A3.50289,3.50289,0,0,0,289.8701,377.0817Z"/></clipPath><clipPath id="clip-path-2"><path class="cls-1" d="M214.5575,368.1629a7.35849,7.35849,0,0,0-3.9885,3.2406c-.2194-.141-.94.5416-.8799,1.0138.0709.5566,2.1128,3.5866,3.0026,3.8929a.789.789,0,0,0,.5363-.3781s.2077.9556,2.0358,2.8668a13.2071,13.2071,0,0,0,4.3061,3.1672c.3295.1509.7948-.4047.5133-.6329,0,0,1.3907-1.17.4862-2.382a11.34708,11.34708,0,0,1-2.0673-6.8745,5.67829,5.67829,0,0,0-.3716-2.2104A3.503,3.503,0,0,0,214.5575,368.1629Z"/></clipPath></defs><title>horo1</title><g class="cls-4"><g id="BACKGROUND"><rect class="cls-5" width="750" height="500"/></g><g id="OBJECTS"><path class="cls-5" d="M129.95119,231.1466a2.03536,2.03536,0,0,1,.15245-.7596,2.56734,2.56734,0,0,1,.38381-.6725.383.383,0,0,1,.6357-.0206.58052.58052,0,0,1,.08171.3199,2.39951,2.39951,0,0,1-.16843.7251,3.34326,3.34326,0,0,1-.34872.6563c-.18885.237-.47434.2742-.6337.0711A.53877.53877,0,0,1,129.95119,231.1466Z"/><path class="cls-5" d="M131.05236,228.4626a2.30651,2.30651,0,0,1,.25455-.7293,2.18621,2.18621,0,0,1,.46171-.6191c.24386-.2022.52778-.1704.63956.0615a.52891.52891,0,0,1,.0353.3242,2.9017,2.9017,0,0,1-.25583.7005,2.75456,2.75456,0,0,1-.43719.6041c-.21459.2125-.50085.2127-.63424-.0103A.54857.54857,0,0,1,131.05236,228.4626Z"/><path class="cls-5" d="M132.48318,225.944a2.58087,2.58087,0,0,1,.32994-.6983,2.3804,2.3804,0,0,1,.5348-.5567c.25975-.1768.53663-.1154.62431.1292a.54463.54463,0,0,1,.00321.3296,2.60261,2.60261,0,0,1-.34125.6633,2.42406,2.42406,0,0,1-.49816.5549c-.24649.1812-.53362.1448-.63574-.09A.52581.52581,0,0,1,132.48318,225.944Z"/><path class="cls-5" d="M135.6555,221.9152a2.36455,2.36455,0,0,1,.4515-.6228,2.18887,2.18887,0,0,1,.619-.4566c.287-.1276.5503-.0194.5941.2358a.53837.53837,0,0,1-.0549.3241,2.89334,2.89334,0,0,1-.4497.5981,2.66946,2.66946,0,0,1-.5944.4546c-.2708.1386-.544.0521-.6042-.1997A.5425.5425,0,0,1,135.6555,221.9152Z"/><path class="cls-5" d="M138.3046,219.4113a.928.928,0,0,1,.2833-.3781.98168.98168,0,0,1,.4257-.2044.41846.41846,0,0,1,.5138.4949.763.763,0,0,1-.0297.1133.94545.94545,0,0,1-.2779.3674,1.02679,1.02679,0,0,1-.414.2012.41914.41914,0,0,1-.5295-.4758A.66483.66483,0,0,1,138.3046,219.4113Z"/><path class="cls-5" d="M140.7704,217.5567a.98821.98821,0,0,1,.7728-.5057.41709.41709,0,0,1,.451.5534.68518.68518,0,0,1-.0419.1077.97106.97106,0,0,1-.3136.3309.992.992,0,0,1-.4304.156.42037.42037,0,0,1-.4788-.5279A.65157.65157,0,0,1,140.7704,217.5567Z"/><path class="cls-5" d="M136.4659,256.4966c-.7302-.7733-1.3373-1.6513-2.00894-2.4775-.57368-.8938-1.16485-1.7817-1.70187-2.6991-.47208-.952-.97726-1.8904-1.42113-2.8553l-1.17255-2.9638a24.55354,24.55354,0,0,1-1.26149-6.2728,19.54912,19.54912,0,0,1,.64355-6.36c.07984-.2856.31064-.464.51552-.3991a.47653.47653,0,0,1,.23915.5855,20.2162,20.2162,0,0,0-.45394,6.1121,23.58251,23.58251,0,0,0,1.26034,6.0112l1.11912,2.8971c.42457.9421.90854,1.8568,1.35915,2.7876.50923.8974,1.06466,1.7694,1.59809,2.6549.63.8159,1.1912,1.6916,1.8716,2.4691a.45542.45542,0,0,1,.0454.6386A.48408.48408,0,0,1,136.4659,256.4966Z"/><path class="cls-5" d="M137.9623,257.1116a2.05715,2.05715,0,0,1,.5053.3768,1.719,1.719,0,0,1,.3852.4984c.1255.2842.0131.5552-.2598.5971a.576.576,0,0,1-.2727-.0309,1.869,1.869,0,0,1-.5528-.3549,1.63184,1.63184,0,0,1-.3637-.5458c-.1102-.3049.0253-.5647.2949-.5884A.55026.55026,0,0,1,137.9623,257.1116Z"/><path class="cls-5" d="M139.6835,258.7425a2.38436,2.38436,0,0,1,.5404.3253,1.723,1.723,0,0,1,.4267.4639.39313.39313,0,0,1-.205.6193.57461.57461,0,0,1-.2737-.0069,1.86779,1.86779,0,0,1-.5809-.3061,1.4804,1.4804,0,0,1-.4152-.5069c-.1373-.294-.0254-.5647.2409-.6125A.54816.54816,0,0,1,139.6835,258.7425Z"/><path class="cls-5" d="M141.5427,260.2134c.7411.4301,1.4597.8472,2.185,1.2682.7314.4097,1.4558.8155,2.2034,1.2343a.44333.44333,0,0,1,.2314.5937.47163.47163,0,0,1-.546.1171,13.4824,13.4824,0,0,1-2.3836-1.0796,15.46257,15.46257,0,0,1-2.1417-1.5009c-.2176-.2049-.261-.4886-.0996-.6353A.46954.46954,0,0,1,141.5427,260.2134Z"/><path class="cls-5" d="M147.9232,263.5035a.70545.70545,0,0,1,.3924.0079.6942.6942,0,0,1,.3257.2171.44912.44912,0,0,1-.2057.7385l-.0178.006a.74555.74555,0,0,1-.7435-.233.4471.4471,0,0,1,.228-.7293Z"/><path class="cls-5" d="M150.3626,264.1459a.70736.70736,0,0,1,.3849-.0349.67029.67029,0,0,1,.3462.1664.44884.44884,0,0,1-.0917.7612l-.0169.0086a.75549.75549,0,0,1-.4102.0457.72908.72908,0,0,1-.3656-.1849.44743.44743,0,0,1,.1337-.7528Z"/><path class="cls-6" d="M577.35509,281.3778c-24.4804,0-66.5179-9.3942-107.1714-18.4785-40.0101-8.9409-77.8022-17.3861-101.1228-17.7526-.593-.0093-1.2064-.0142-1.8183-.0142-19.17759,0-47.41939,4.5933-77.31969,9.4565-34.4796,5.6079-73.5593,11.9639-103.8863,11.9648-29.8648,0-46.7959-6.0069-51.76077-18.3644-7.66951-19.0905,3.64527-25.9048,19.306-35.336,12.5639-7.5665,26.8045-16.1426,28.5741-32.9203,1.2506-11.8539.1345-21.4641-.7625-29.1856-1.6737-14.4071-2.5139-21.6387,11.3848-30.1832,5.9882-3.6817,13.4339-5.252,24.8984-5.252,4.3708,0,8.8273.2151,13.5451.4427,4.7756.2306,9.7141.4689,14.6211.4689,11.9677,0,27.3347-1.2928,40.0472-11.3751,2.4738-1.9618,4.8391-3.875,7.1419-5.7379,22.1598-17.9232,38.17049-30.8731,91.56189-37.3765a70.14548,70.14548,0,0,1,8.4523-.5135c33.91191,0,62.7341,24.5557,85.8934,44.2865,13.8241,11.7778,24.7431,21.0807,34.7094,23.6816a66.70084,66.70084,0,0,0,16.8743,1.8731c6.081,0,12.3599-.5211,18.43281-1.0247,6.04649-.502,11.75719-.9758,17.24659-.9758,12.7526,0,20.5323,2.6837,26.0116,8.9738,7.5279,8.642-4.004,26.1866-14.1793,41.6657-11.121,16.918-21.625,32.8972-14.2046,44.2518,4.2891,6.564,10.33871,12.0085,16.1893,17.2734,12.2778,11.0496,21.9762,19.7767,15.0032,35.5822C593.724,279.7549,587.44819,281.3778,577.35509,281.3778Z"/><rect class="cls-7" x="222.3543" y="153.8808" width="320.47819" height="176.965" rx="3.8549"/><path class="cls-8" d="M220.6047,147.2016H533.3731a3.8549,3.8549,0,0,1,3.8549,3.8549V320.3117a3.8549,3.8549,0,0,1-3.8549,3.8549H220.60471a3.85491,3.85491,0,0,1-3.85491-3.85491V151.0565A3.8549,3.8549,0,0,1,220.6047,147.2016Z"/><path class="cls-9" d="M226.19322,140.5225H516.57557a15.04792,15.04792,0,0,1,15.04792,15.04792V317.4875a0,0,0,0,1,0,0H226.19322a15.04792,15.04792,0,0,1-15.04792-15.04792V155.57042A15.04792,15.04792,0,0,1,226.19322,140.5225Z"/><path class="cls-10" d="M229.0086,155.6893h20.4965v-1.2057H229.0086Zm-3.61705.6028h.0001a1.20565,1.20565,0,0,0,1.20565-1.20565h0a1.20565,1.20565,0,0,0-1.20565-1.20565h-.0001a1.20565,1.20565,0,0,0-1.20565,1.20565h0A1.20565,1.20565,0,0,0,225.39155,156.2921Zm3.61705,6.0284h20.4965v-1.2057H229.0086Zm-3.61705.6028h.0001a1.20565,1.20565,0,0,0,1.20565-1.20565h0a1.20565,1.20565,0,0,0-1.20565-1.20565h-.0001a1.20565,1.20565,0,0,0-1.20565,1.20565h0A1.20565,1.20565,0,0,0,225.39155,162.9233Zm3.61705,6.0284h20.4965V167.746H229.0086Zm-3.61705.6029h.0001a1.20565,1.20565,0,0,0,1.20565-1.20565v-.0001a1.20565,1.20565,0,0,0-1.20565-1.20565h-.0001a1.20565,1.20565,0,0,0-1.20565,1.20565v.0001A1.20565,1.20565,0,0,0,225.39155,169.5546Z"/><path class="cls-11" d="M238.57847,180.2243h62.234A14.39267,14.39267,0,0,1,315.2051,194.617V254.067a14.39267,14.39267,0,0,1-14.39267,14.39267H238.57857A14.39267,14.39267,0,0,1,224.1859,254.067V194.61687A14.39257,14.39257,0,0,1,238.57847,180.2243Z"/><path class="cls-11" d="M340.81717,180.2243h62.23405A14.39267,14.39267,0,0,1,417.44389,194.617V254.067a14.39267,14.39267,0,0,1-14.39267,14.39267h-62.234A14.39267,14.39267,0,0,1,326.42459,254.067V194.61687A14.39257,14.39257,0,0,1,340.81717,180.2243Z"/><path class="cls-11" d="M443.056,180.2243h62.234A14.39267,14.39267,0,0,1,519.68259,194.617V254.067a14.39267,14.39267,0,0,1-14.39267,14.39267H443.05607A14.39267,14.39267,0,0,1,428.66339,254.067V194.61687A14.39257,14.39257,0,0,1,443.056,180.2243Z"/><path class="cls-7" d="M496.76618,161.38946l-1.1119-7.40841a1.26792,1.26792,0,0,0-1.24586-1.0797l-1.83273-.01156.00741-1.14233,2.81.01774A1.2679,1.2679,0,0,1,496.639,152.845l.04225.28168a1.2679,1.2679,0,0,0,1.24587,1.07984l12.958.08185a1.26791,1.26791,0,0,1,1.23006,1.54134l-1.061,4.80367a1.26791,1.26791,0,0,1-1.14787.99124l-11.796.84131A1.26792,1.26792,0,0,1,496.76618,161.38946Zm.46765-4.581.50511,3.3664a1.26791,1.26791,0,0,0,1.34412,1.07655l9.89143-.70586a1.2679,1.2679,0,0,0,1.14781-.99121l.57241-2.59129a1.26791,1.26791,0,0,0-1.23006-1.54137l-10.969-.06924A1.2679,1.2679,0,0,0,497.23383,156.80849Z"/><path class="cls-7" d="M511.06127,164.71495l-13.49178-.078a.98995.98995,0,0,1-.97165-1.149l.26513-1.63718,1.12742.18286h0a1.2679,1.2679,0,0,0,1.24425,1.47065l11.83331.06846Z"/><path class="cls-12" d="M501.01334,166.97286a1.54036,1.54036,0,1,1-1.53062-1.54995A1.54035,1.54035,0,0,1,501.01334,166.97286Z"/><path class="cls-12" d="M509.09539,167.024a1.54032,1.54032,0,1,1-1.53053-1.55012A1.54021,1.54021,0,0,1,509.09539,167.024Z"/><line class="cls-13" x1="325.98689" y1="274.5637" x2="417.44389" y2="274.5637"/><path class="cls-14" d="M407.30189,236.2056c0,1.2484-14.9355,2.2604-33.3592,2.2604s-33.3591-1.012-33.3591-2.2604,14.93541-2.2605,33.3591-2.2605S407.30189,234.9571,407.30189,236.2056Z"/><path class="cls-8" d="M347.38809,212.6277s.6673-1.6872,6.50791.5292c3.168,1.2022,7.29639,4.1058,15.33109.6025,0,0,2.4476,8.1237-7.7914,7.4135A17.03969,17.03969,0,0,1,347.38809,212.6277Z"/><path class="cls-15" d="M404.33819,225.7005l2.371.6249c1.34681.7146,1.276,4.2997.1649,5.4076,0,0-9.5775,5.5989-37.6216,6.0735-16.1318-.3107-26.9129-3.0689-27.411-4.1649a14.44958,14.44958,0,0,1-.4442-5.2784l3.0411-3.5436Z"/><path class="cls-7" d="M347.38809,212.6277s-3.1607,3.0328-3.5354,5.5311c-.5385,3.5902-1.1451,5.3703-.758,8.9956,0,0,9.0955,3.546,24.2494,3.7222a156.2463,156.2463,0,0,0,26.061-1.765c6.6811-1.1909,13.3041-2.7862,13.3041-2.7862-1.9294-6.7547-7.7659-4.2468-16.084-6.88-5.6579-1.791-19.1297-12.9099-19.1297-12.9099s-3.1224,2.3172-3.2917,3.5079c-.1069.7519,1.3789,2.7069,1.3789,2.7069s-.3743,6.3851-6.7462,6.8087C356.63179,219.9715,347.38809,212.6277,347.38809,212.6277Z"/><path class="cls-2" d="M406.70919,226.3254a36.5253,36.5253,0,0,1-12.3729,4.8308c-7.5048,1.4553-19.764,1.9402-27.4031,1.6496-8.4441-.3214-25.5358-4.4426-25.5358-4.4426"/><path class="cls-16" d="M369.58269,212.7503a21.21919,21.21919,0,0,1,4.3722.4103c2.6918.9414,10.4827,7.1586,16.3194,7.8967"/><path class="cls-15" d="M379.22579,212.5133l-2.6021,4.2034c-.3568.4962-1.9154-.6247-1.5586-1.1208l2.4105-4.436C377.99559,210.4875,379.74569,211.8409,379.22579,212.5133Z"/><path class="cls-15" d="M383.01229,214.7484l-2.7356,4.4573c-.333.7488-2.0823-.0291-1.7495-.7779l2.7349-5.0329C381.78209,212.7224,383.53229,214.0759,383.01229,214.7484Z"/><path class="cls-15" d="M386.79879,216.9833l-2.7687,4.4794c-.295.6327-2.01109-.1672-1.7163-.7999l2.7349-5.0329C385.56859,214.9575,387.31879,216.3108,386.79879,216.9833Z"/><path class="cls-15" d="M371.31849,214.8363a.99561.99561,0,0,1,1.9842.0819l-.7872,7.467c.0001,1.0775-1.132,1.0776-1.1321,0Z"/><path class="cls-16" d="M364.41479,230.9413a8.22425,8.22425,0,0,1,4.1067-4.8375c3.5811-1.6881,12.0901,1.5025,16.7982-1.1103a49.75961,49.75961,0,0,0,4.9546-3.9362"/><path class="cls-16" d="M344.68079,216.1895s5.0475,2.2624,7.3955,5.2441c1.05771,1.343,2.5316,8.567,2.5316,8.567"/><path class="cls-14" d="M302.4839,236.2056c0,1.2484-14.9354,2.2604-33.3591,2.2604s-33.3591-1.012-33.3591-2.2604,14.9353-2.2605,33.3591-2.2605S302.4839,234.9571,302.4839,236.2056Z"/><path class="cls-17" d="M242.5702,212.6277s.6673-1.6872,6.5079.5292c3.168,1.2022,7.2963,4.1058,15.3311.6025,0,0,2.4476,8.1237-7.7914,7.4135A17.03948,17.03948,0,0,1,242.5702,212.6277Z"/><path class="cls-15" d="M299.5203,225.7005l2.3709.6249c1.3468.7146,1.2761,4.2997.165,5.4076,0,0-9.5775,5.5989-37.6217,6.0735-16.1318-.3107-26.9129-3.0689-27.4109-4.1649a14.4474,14.4474,0,0,1-.4442-5.2784l3.0411-3.5436Z"/><path class="cls-18" d="M242.5702,212.6277s-3.1608,3.0328-3.5354,5.5311c-.5385,3.5902-1.1451,5.3703-.758,8.9956,0,0,9.0954,3.546,24.2493,3.7222a156.24677,156.24677,0,0,0,26.0611-1.765c6.6811-1.1909,13.304-2.7862,13.304-2.7862-1.9293-6.7547-7.7659-4.2468-16.0839-6.88-5.658-1.791-19.1297-12.9099-19.1297-12.9099s-3.1225,2.3172-3.2917,3.5079c-.1069.7519,1.3789,2.7069,1.3789,2.7069s-.3743,6.3851-6.7462,6.8087C251.8138,219.9715,242.5702,212.6277,242.5702,212.6277Z"/><path class="cls-2" d="M301.8912,226.3254a36.52427,36.52427,0,0,1-12.3728,4.8308c-7.5048,1.4553-19.764,1.9402-27.4032,1.6496-8.4441-.3214-25.5357-4.4426-25.5357-4.4426"/><path class="cls-19" d="M264.7648,212.7503a21.21919,21.21919,0,0,1,4.3722.4103c2.6918.9414,10.4827,7.1586,16.3193,7.8967"/><path class="cls-15" d="M274.4078,212.5133l-2.602,4.2034c-.3568.4962-1.9155-.6247-1.5587-1.1208l2.4106-4.436C273.1776,210.4875,274.9278,211.8409,274.4078,212.5133Z"/><path class="cls-15" d="M278.1944,214.7484l-2.7357,4.4573c-.3329.7488-2.0823-.0291-1.7494-.7779l2.7349-5.0329C276.9641,212.7224,278.7143,214.0759,278.1944,214.7484Z"/><path class="cls-15" d="M281.9809,216.9833l-2.7688,4.4794c-.2949.6327-2.0111-.1672-1.7163-.7999l2.7349-5.0329C280.7507,214.9575,282.5008,216.3108,281.9809,216.9833Z"/><path class="cls-15" d="M266.5006,214.8363a.99561.99561,0,0,1,1.9842.0819l-.7873,7.467c.0001,1.0775-1.1319,1.0776-1.132,0Z"/><path class="cls-19" d="M259.5969,230.9413a8.22425,8.22425,0,0,1,4.1067-4.8375c3.5811-1.6881,12.0901,1.5025,16.7981-1.1103a49.74752,49.74752,0,0,0,4.9546-3.9362"/><path class="cls-19" d="M239.8628,216.1895s5.0476,2.2624,7.3956,5.2441c1.0576,1.343,2.5315,8.567,2.5315,8.567"/><path class="cls-14" d="M507.32619,236.2056c0,1.2484-14.9354,2.2604-33.35919,2.2604s-33.359-1.012-33.359-2.2604,14.93529-2.2605,33.359-2.2605S507.32619,234.9571,507.32619,236.2056Z"/><path class="cls-20" d="M447.41249,212.6277s.6673-1.6872,6.5079.5292c3.1679,1.2022,7.2963,4.1058,15.331.6025,0,0,2.4477,8.1237-7.7913,7.4135A17.03948,17.03948,0,0,1,447.41249,212.6277Z"/><path class="cls-15" d="M504.36259,225.7005l2.3709.6249c1.3468.7146,1.276,4.2997.1649,5.4076,0,0-9.57739,5.5989-37.6216,6.0735-16.13179-.3107-26.9129-3.0689-27.411-4.1649a14.44977,14.44977,0,0,1-.4441-5.2784l3.041-3.5436Z"/><path class="cls-21" d="M447.41249,212.6277s-3.1608,3.0328-3.5354,5.5311c-.5385,3.5902-1.14509,5.3703-.75809,8.9956,0,0,9.09549,3.546,24.24939,3.7222a156.24819,156.24819,0,0,0,26.0611-1.765c6.6811-1.1909,13.304-2.7862,13.304-2.7862-1.9294-6.7547-7.7659-4.2468-16.0839-6.88-5.658-1.791-19.1297-12.9099-19.1297-12.9099s-3.1225,2.3172-3.2917,3.5079c-.1069.7519,1.37881,2.7069,1.37881,2.7069s-.37421,6.3851-6.74621,6.8087C456.65609,219.9715,447.41249,212.6277,447.41249,212.6277Z"/><path class="cls-2" d="M506.73349,226.3254a36.52427,36.52427,0,0,1-12.3728,4.8308c-7.5049,1.4553-19.7641,1.9402-27.4032,1.6496-8.4441-.3214-25.5357-4.4426-25.5357-4.4426"/><path class="cls-19" d="M469.607,212.7503a21.21911,21.21911,0,0,1,4.37219.4103c2.6919.9414,10.48281,7.1586,16.3194,7.8967"/><path class="cls-15" d="M479.25009,212.5133l-2.602,4.2034c-.3568.4962-1.9155-.6247-1.5587-1.1208l2.4105-4.436C478.01989,210.4875,479.77009,211.8409,479.25009,212.5133Z"/><path class="cls-15" d="M483.03659,214.7484l-2.73559,4.4573c-.333.7488-2.08231-.0291-1.74941-.7779l2.7349-5.0329C481.80639,212.7224,483.55659,214.0759,483.03659,214.7484Z"/><path class="cls-15" d="M486.82319,216.9833l-2.7688,4.4794c-.2949.6327-2.0111-.1672-1.7163-.7999l2.73491-5.0329C485.593,214.9575,487.34309,216.3108,486.82319,216.9833Z"/><path class="cls-15" d="M471.34289,214.8363a.99556.99556,0,0,1,1.98411.0819l-.78721,7.467c.0001,1.0775-1.1319,1.0776-1.1321,0Z"/><path class="cls-19" d="M464.43909,230.9413a8.22425,8.22425,0,0,1,4.1067-4.8375c3.58121-1.6881,12.0901,1.5025,16.79821-1.1103a49.74831,49.74831,0,0,0,4.95459-3.9362"/><path class="cls-19" d="M444.70509,216.1895s5.0475,2.2624,7.3956,5.2441c1.0576,1.343,2.5315,8.567,2.5315,8.567"/><path class="cls-7" d="M336.27469,196.4626v.1037c0,.5179-.12769.7398-.4256.7398h-2.8948c-.2979,0-.4256-.2219-.4256-.7398v-.1037c0-.5179.1277-.7397.4256-.7397h2.8948C336.147,195.7229,336.27469,195.9447,336.27469,196.4626Z"/><path class="cls-7" d="M342.99069,192.4522c0,2.0569-1.1355,2.4861-2.1288,2.4861s-2.1288-.4292-2.1288-2.4861c0-2.0572,1.1355-2.4864,2.1288-2.4864S342.99069,190.395,342.99069,192.4522Zm-2.80969,0c0,.5773.12769,1.2727.68089,1.2727s.6674-.6954.6674-1.2727-.1141-1.2138-.6674-1.2138S340.181,191.875,340.181,192.4522Zm6.76849-2.1903a.60221.60221,0,0,1-.0706.2073l-5.0662,9.5896a.66505.66505,0,0,1-.6248.4142H340.564c-.19831,0-.29791-.0887-.29791-.1924a.56876.56876,0,0,1,.0707-.2218l5.0661-9.5896a.66492.66492,0,0,1,.6248-.4147h.6239C346.85079,190.0545,346.94949,190.1437,346.94949,190.2619Zm1.533,7.8139c0,2.0572-1.13549,2.4864-2.1288,2.4864s-2.1288-.4292-2.1288-2.4864,1.1355-2.4865,2.1288-2.4865S348.48249,196.0185,348.48249,198.0758Zm-2.8097,0c0,.5772.1276,1.2726.6809,1.2726s.66731-.6954.66731-1.2726-.11411-1.2134-.66731-1.2134S345.67279,197.4985,345.67279,198.0758Z"/><path class="cls-22" d="M396.96649,244.8297v.9761c1.3908.0244,3.8552.5855,3.8552,1.3908,0,.366-.5368,1.2933-.7808,1.2933a8.227,8.227,0,0,0-3.0744-.9273v5.6853c2.1716.7808,4.6604,1.6592,4.6604,5.0265,0,2.7817-1.8056,4.5386-4.6604,4.7825v1.22c0,.2685-.14649.3905-.4881.3905s-.4881-.122-.4879-.3905v-1.1955c-2.7573-.0732-4.8314-1.1224-4.8314-1.7813,0-.3904.5857-1.3176.8541-1.3176a8.78365,8.78365,0,0,0,3.9773,1.342v-6.2953c-2.1473-.8297-4.5141-1.6837-4.5141-4.8314,0-2.3912,1.7568-4.0505,4.5141-4.3433v-1.0248c0-.2684.1463-.3904.4879-.3904S396.96649,244.5613,396.96649,244.8297Zm-3.2698,5.4657c0,1.3908,1.0005,2.0497,2.2938,2.5865v-5.2461A2.522,2.522,0,0,0,393.69669,250.2954Zm3.2698,10.956a2.899,2.899,0,0,0,2.44-2.977c0-1.5371-1.0981-2.2692-2.44-2.8549Z"/><path class="cls-22" d="M346.95959,255.4195h39.0186a3.9337,3.9337,0,0,1,3.9337,3.9337v.583a3.9337,3.9337,0,0,1-3.9337,3.9337h-39.0187a3.9336,3.9336,0,0,1-3.9336-3.9336v-.5831A3.9337,3.9337,0,0,1,346.95959,255.4195Z"/><path class="cls-23" d="M670.97869,447.3123H79.0213a2.33162,2.33162,0,0,1-1.4552-4.1534l88.654-70.8168a10.961,10.961,0,0,1,6.8308-2.3544H576.94909a10.961,10.961,0,0,1,6.8308,2.3544l88.654,70.8168A2.33162,2.33162,0,0,1,670.97869,447.3123Z"/><path class="cls-24" d="M668.71079,418.356H81.2892l91.0866-72.7598a10.637,10.637,0,0,1,6.6293-2.285H570.99489a10.637,10.637,0,0,1,6.6293,2.285Z"/><polygon class="cls-8" points="610.481 411.849 139.519 411.849 205.825 349.818 544.174 349.818 610.481 411.849"/><polygon class="cls-5" points="604.705 411.849 145.295 411.849 209.975 352.481 540.025 352.481 604.705 411.849"/><path class="cls-8" d="M81.2892,418.356H668.71079a0,0,0,0,1,0,0v5.2042a14.3161,14.3161,0,0,1-14.3161,14.3161H95.6054a14.3162,14.3162,0,0,1-14.3162-14.3162V418.356a0,0,0,0,1,0,0Z"/><line class="cls-25" x1="81.2892" y1="425.9472" x2="668.71079" y2="425.9472"/><rect class="cls-7" x="193.5562" y="421.3925" width="89.9067" height="10.2622" rx="4.7771"/><rect class="cls-24" x="193.5562" y="422.5452" width="89.9067" height="9.1095" rx="4.2405"/><polygon class="cls-8" points="567.023 361.215 600.406 390.731 618.28 390.731 618.28 388.382 567.023 358.865 567.023 361.215"/><polygon class="cls-26" points="567.023 358.865 600.406 388.382 618.28 388.382 581.177 358.865 567.023 358.865"/><ellipse class="cls-5" cx="159.33952" cy="372.9551" rx="14.04473" ry="6.1138"/><path class="cls-7" d="M169.1751,372.5014c0,2.1141-4.4035,3.8279-9.8356,3.8279s-9.8356-1.7138-9.8356-3.8279,4.4036-3.8278,9.8356-3.8278S169.1751,370.3874,169.1751,372.5014Z"/><path class="cls-5" d="M160.5052,371.6356c0,.7287-1.518,1.3195-3.3905,1.3195s-3.3905-.5908-3.3905-1.3195,1.518-1.3196,3.3905-1.3196S160.5052,370.9068,160.5052,371.6356Z"/><path class="cls-24" d="M228.8158,96.3056h323.58a13.3818,13.3818,0,0,1,13.3818,13.3818v1.9833a13.3819,13.3819,0,0,1-13.3819,13.3819H228.8159a13.3819,13.3819,0,0,1-13.3819-13.3819v-1.9833A13.3818,13.3818,0,0,1,228.8158,96.3056Z"/><circle class="cls-24" cx="162.796" cy="110.6791" r="14.3735"/><circle class="cls-24" cx="196.30173" cy="110.6791" r="14.37351"/><polygon class="cls-24" points="585.704 95.583 590.454 105.736 601.577 107.115 593.389 114.77 595.514 125.775 585.704 120.353 575.894 125.775 578.02 114.77 569.831 107.115 580.955 105.736 585.704 95.583"/><path class="cls-9" d="M228.8158,91.3331h323.58a13.3818,13.3818,0,0,1,13.3818,13.3818v1.9834a13.3818,13.3818,0,0,1-13.3818,13.3818H228.8159a13.3819,13.3819,0,0,1-13.3819-13.3819v-1.9833A13.3818,13.3818,0,0,1,228.8158,91.3331Z"/><path class="cls-27" d="M285.8541,113.2246H257.6588a6.60224,6.60224,0,0,1-6.6023-6.6023h0a6.6023,6.6023,0,0,1,6.6023-6.6023h28.1953a6.60236,6.60236,0,0,1,6.6023,6.6023h0A6.6023,6.6023,0,0,1,285.8541,113.2246Z"/><circle class="cls-9" cx="162.796" cy="105.7066" r="14.3735"/><circle class="cls-9" cx="196.30173" cy="105.7066" r="14.37351"/><polygon class="cls-28" points="585.704 90.61 590.454 100.763 601.577 102.143 593.389 109.797 595.514 120.803 585.704 115.381 575.894 120.803 578.02 109.797 569.831 102.143 580.955 100.763 585.704 90.61"/><polygon class="cls-7" points="164.575 96.947 155.479 105.956 164.575 115.139 166.307 113.407 158.944 105.956 166.307 98.68 164.575 96.947"/><polygon class="cls-7" points="194.999 115.139 204.095 106.13 194.999 96.947 193.266 98.68 200.63 106.13 193.266 113.407 194.999 115.139"/><path class="cls-7" d="M244.971,113.9621l-5.7961-5.7286a7.38274,7.38274,0,0,0,1.2421-4.1118,7.5982,7.5982,0,0,0-12.916-5.3269,7.40772,7.40772,0,0,0-2.1943,5.2792,7.60163,7.60163,0,0,0,7.5794,7.4989h.0311a7.5862,7.5862,0,0,0,4.1531-1.2477l5.7932,5.7265Zm-6.8102-9.8416a5.17993,5.17993,0,0,1-1.5343,3.6894,5.32388,5.32388,0,0,1-3.7198,1.5226h-.0222a5.33356,5.33356,0,0,1-5.3216-5.2573,5.17975,5.17975,0,0,1,1.5343-3.6895,5.333,5.333,0,0,1,9.0636,3.7348Z"/><path class="cls-29" d="M546.31109,106.0431l-3.2594,3.2771a.99685.99685,0,0,0,0,1.4045.98388.98388,0,0,0,1.3969,0l3.25941-3.2771,3.25939,3.2771a.984.984,0,0,0,1.397,0,.997.997,0,0,0,0-1.4045l-3.2595-3.2771,3.2595-3.2772a.997.997,0,0,0,0-1.4045.98418.98418,0,0,0-1.397,0l-3.25939,3.2772-3.25941-3.2772a.98406.98406,0,0,0-1.3969,0,.997.997,0,0,0,0,1.4045Zm1.39691,10.5934a10.59361,10.59361,0,1,1,10.53609-10.5934A10.56487,10.56487,0,0,1,547.708,116.6365Z"/><path class="cls-22" d="M182.19045,178.69929a19.4461,19.4461,0,1,0-38.8922,0v.0002c0,4.4652-1.3396,7.3853,19.4461,44.7008C183.61525,185.91579,182.17245,181.00039,182.19045,178.69929Z"/><path class="cls-5" d="M162.74325,187.75349a8.5921,8.5921,0,1,1,8.5924-8.5921A8.59221,8.59221,0,0,1,162.74325,187.75349Z"/><path class="cls-30" d="M433.05719,258.4398"/><path class="cls-23" d="M320.5759,372.116l-7.8915,13.6664c-1.6021,2.7744.5835,6.1199,3.9982,6.1199h77.58429c3.0862,0,5.2679-2.7788,4.29811-5.4745l-4.91661-13.6663a4.5109,4.5109,0,0,0-4.2981-2.8566h-64.7761A4.5956,4.5956,0,0,0,320.5759,372.116Z"/><path class="cls-7" d="M336.46139,368.3179a6.89145,6.89145,0,1,1-6.8915-6.8915A6.8915,6.8915,0,0,1,336.46139,368.3179Z"/><circle class="cls-31" cx="329.56989" cy="368.3179" r="4.1438"/><path class="cls-32" d="M326.84539,367.564l2.363-6.2324a.85963.85963,0,0,1,.8038-.5549h8.2182a.85968.85968,0,0,1,.63061,1.4439l-7.40031,7.9871a2.32236,2.32236,0,0,1-2.4253.629l-.7401-.2419A2.3224,2.3224,0,0,1,326.84539,367.564Z"/><circle class="cls-7" cx="329.56989" cy="368.3179" r="1.587"/><path class="cls-7" d="M376.37869,368.3179a6.89145,6.89145,0,1,0,6.8914-6.8915A6.89142,6.89142,0,0,0,376.37869,368.3179Z"/><path class="cls-31" d="M379.12629,368.3179a4.14386,4.14386,0,1,0,4.1438-4.1438A4.14381,4.14381,0,0,0,379.12629,368.3179Z"/><path class="cls-32" d="M385.99469,367.564l-2.363-6.2324a.85969.85969,0,0,0-.8038-.5549h-8.2183a.85962.85962,0,0,0-.6305,1.4439l7.4003,7.9871a2.32236,2.32236,0,0,0,2.4253.629l.74-.2419A2.32245,2.32245,0,0,0,385.99469,367.564Z"/><circle class="cls-7" cx="383.27009" cy="368.3179" r="1.587"/><path class="cls-33" d="M311.5454,304.2911a1.02052,1.02052,0,0,1-.9383-.6162c-2.3362-5.4063-6.2269-14.2187-6.9249-15.3215-1.0439-.7588-8.9091-3.5606-16.0334-5.8719a1.021,1.021,0,0,1,0-1.9423l12.6582-4.1021a1.04112,1.04112,0,0,1,.5843-.014c1.2105.3301,11.8955,3.2895,14.1938,5.4262,1.8257,1.6961,7.21,12.9255,8.2709,15.159a1.02089,1.02089,0,1,1-1.8446.8754c-2.391-5.0343-6.6277-13.4339-7.8163-14.5387-1.4218-1.3222-8.6289-3.6494-13.049-4.8708l-9.3877,3.0421c6.5379,2.1697,13.2993,4.5937,14.0232,5.5608.8485,1.1298,6.1461,13.3502,7.2001,15.7881a1.02124,1.02124,0,0,1-.9363,1.4259Z"/><polygon class="cls-34" points="308.778 299.121 320.302 291.965 409.167 296.313 411.205 301.884 308.778 299.121"/><path class="cls-7" d="M307.9367,299.3027l13.4485,44.3541a3.07278,3.07278,0,0,0,3.03569,2.1798l74.388-2.3006a3.07288,3.07288,0,0,0,2.8918-2.3492l9.5046-39.3024Z"/><path class="cls-35" d="M327.93919,317.855c4.8062,10.0011,15.4392,12.0168,25.5623,11.5152,21.7323-1.0768,40.7219-9.5633,53.4494-27.5922,0,0-79.1121-1.9778-79.1308-1.9782-1.1688-.0164-1.7439,7.5747-1.8018,8.5597A19.37665,19.37665,0,0,0,327.93919,317.855Z"/><path class="cls-33" d="M398.62809,368.1244a28.94211,28.94211,0,0,0-4.134-9.1075c-.703-.9542-1.8556-2.0491-4.5558-2.0491h-61.5979c-.9702,0-2.7071-.1605-3.443-1.2374-.69-1.011-.2951-2.6064.15761-3.767a70.22388,70.22388,0,0,1,3.45289-7.6278l-2.4067.2017a55.677,55.677,0,0,0-2.9487,6.6842c-.91829,2.3542-.89839,4.2587.0588,5.6606.9513,1.3919,2.7251,2.1278,5.1291,2.1278h3.2994v1.3818a1.55219,1.55219,0,0,0,1.5521,1.5522h1.1797a1.55219,1.55219,0,0,0,1.5521-1.5522v-1.3818H376.653v1.3818a1.55218,1.55218,0,0,0,1.55209,1.5522h1.1797a1.55218,1.55218,0,0,0,1.5521-1.5522v-1.3818h9.0014c1.8586,0,2.4768.6282,2.9106,1.2175a27.08323,27.08323,0,0,1,3.7989,8.3916,1.8993,1.8993,0,0,1-.1475,1.6372,3.41978,3.41978,0,0,1-2.3851.8276c-14.2735.3201-45.056.1446-61.5939.0499-4.9158-.029-8.6399-.0499-10.41379-.0499-2.5077,0-4.3743-.7179-5.2557-2.0211-.8485-1.2554-.8246-3.097.0698-5.3275,1.9693-4.9058,7.75649-19.5183,7.75649-19.5183l-1.89849-.7518s-5.7852,14.6065-7.7525,19.5103c-1.4637,3.6484-.7358,5.9467.1336,7.231,1.2733,1.8825,3.7402,2.9195,6.9468,2.9195,1.16329,0,3.179.0091,5.807.0232v1.3364a1.55219,1.55219,0,0,0,1.5522,1.5521h1.1797a1.55219,1.55219,0,0,0,1.5522-1.5521v-1.0018l.3048-.309c9.42461.0548,23.4719.1346,36.4649.1346,3.52671,0,6.9726-.006,10.2302-.02v1.1962a1.55212,1.55212,0,0,0,1.5522,1.5521h1.1797a1.5521,1.5521,0,0,0,1.5521-1.5521v-1.2203c4.0791-.0288,7.7318-.0735,10.6786-.1393a5.1448,5.1448,0,0,0,3.9634-1.6313A3.80007,3.80007,0,0,0,398.62809,368.1244Z"/><path class="cls-5" d="M408.22719,301.0544,399.008,339.0758a2.40762,2.40762,0,0,1-2.26041,1.8357l-34.7358,1.0743q4.04175-4.36485,8.0189-8.7897c.1951-.218.2577-.4882.1367-.6141-.1263-.1313-.4032-.0575-.6186.1649q-4.289,4.42875-8.50579,8.9252l-.00531.0057a1.17208,1.17208,0,0,0-.2188.3449l-30.6647.9483q4.29165-4.6311,8.51581-9.3251c.20459-.2281.275-.5067.15419-.6329-.1259-.1317-.4107-.0495-.636.1836q-4.48785,4.6422-8.9036,9.3517l-.00559.006a1.23087,1.23087,0,0,0-.26951.4521l-2.772.0857a2.41049,2.41049,0,0,1-2.3731-1.704l-6.121-20.1824q2.37285-2.5731,4.6778-5.2098a.32974.32974,0,0,0-.4818-.4492q-2.2839,2.2941-4.5021,4.6496l-6.5751-21.6796-.9772.2972,13.0023,42.8713a3.42889,3.42889,0,0,0,3.27549,2.429c.0358,0,.0708,0,.1066-.001l70.51-2.1806a3.43278,3.43278,0,0,0,3.2217-2.6164l9.2192-38.0205Z"/><path class="cls-5" d="M323.22859,315.148a4.38059,4.38059,0,0,0,1.2827-1.3756.3756.3756,0,0,0-.5287-.493A4.38163,4.38163,0,0,0,322.7,314.655a.37544.37544,0,0,0,.52859.493Z"/><path class="cls-5" d="M325.12389,313.1154a.37215.37215,0,0,0,.3492-.3744l-.0005-.01a.512.512,0,0,0-.5282-.483.372.372,0,0,0-.3492.3745l.0006.0126A.51039.51039,0,0,0,325.12389,313.1154Z"/><path class="cls-5" d="M333.62429,303.9814q3.111-3.1656,6.15-6.3987l.0024-.0026a.46367.46367,0,0,0-.6806-.6297q-3.01275,3.25725-5.9536,6.5817a.32968.32968,0,0,0,.4818.4493Z"/><path class="cls-5" d="M332.55449,305.1756a.37215.37215,0,0,0,.3492-.3744l-.0006-.0126a.51039.51039,0,0,0-.52809-.4803.37215.37215,0,0,0-.34921.3744l.0005.01A.51168.51168,0,0,0,332.55449,305.1756Z"/><path class="cls-5" d="M331.42559,306.3863a.372.372,0,0,0,.3492-.3744l-.0005-.0127a.51068.51068,0,0,0-.5282-.4803.37176.37176,0,0,0-.34909.3745l.00039.0099A.51184.51184,0,0,0,331.42559,306.3863Z"/><path class="cls-5" d="M330.29669,307.597a.37194.37194,0,0,0,.3492-.3745l-.0006-.0126a.51032.51032,0,0,0-.5281-.4803.37215.37215,0,0,0-.34919.3744l.00049.01A.512.512,0,0,0,330.29669,307.597Z"/><path class="cls-5" d="M326.42289,311.7515a21.12325,21.12325,0,0,0,2.8287-3.0338.36471.36471,0,0,0-.52859-.4929,21.108,21.108,0,0,0-2.82881,3.0337.36482.36482,0,0,0,.5287.493Z"/><path class="cls-5" d="M339.46759,332.1379c.0816.2051.3758.1899.6571-.0341a14.25413,14.25413,0,0,0,2.3224-2.4907.61548.61548,0,0,0,.1283-.5261c-.0813-.2055-.37539-.1907-.657.0331a14.25864,14.25864,0,0,0-2.3223,2.4907A.61419.61419,0,0,0,339.46759,332.1379Z"/><path class="cls-5" d="M343.55629,328.4236a1.10316,1.10316,0,0,0,.6322-.678l.0034-.0141c.0918-.3912-.1464-.6056-.5321-.4789a1.10324,1.10324,0,0,0-.6322.678l-.0043.0179C342.93269,328.3383,343.17139,328.551,343.55629,328.4236Z"/><path class="cls-5" d="M358.95459,311.892q5.56395-5.79615,11.0557-11.6598l.0044-.0048c.3105-.3344.40931-.7459.2208-.9192s-.593-.0428-.9034.2917q-5.4657,5.8878-10.8593,11.8428c-.2077.2298-.2784.5111-.1553.637C358.44479,312.2099,358.73,312.1259,358.95459,311.892Z"/><path class="cls-5" d="M356.99859,314.0367a1.103,1.103,0,0,0,.6322-.6781l.0043-.0179c.0906-.3897-.14809-.6025-.533-.475a1.1025,1.1025,0,0,0-.6322.678l-.0034.0141C356.37469,313.9489,356.61289,314.1634,356.99859,314.0367Z"/><path class="cls-5" d="M354.95459,316.2287a1.10316,1.10316,0,0,0,.6322-.678l.0044-.0179c.0905-.3898-.1481-.6025-.5331-.4751a1.10388,1.10388,0,0,0-.6322.678l-.0034.0141C354.33069,316.141,354.56889,316.3554,354.95459,316.2287Z"/><path class="cls-5" d="M352.91059,318.4207a1.1025,1.1025,0,0,0,.6322-.678l.0044-.0178c.0905-.3899-.1481-.6025-.5331-.4751a1.10321,1.10321,0,0,0-.6322.678l-.0034.0141C352.28669,318.3331,352.52489,318.5474,352.91059,318.4207Z"/><path class="cls-5" d="M345.89649,325.943c.9158-.8575,1.7732-1.7695,2.6356-2.6768.8448-.9238,1.6944-1.843,2.4863-2.8161.1834-.2254.2532-.4886.1538-.6312-.1168-.1675-.4223-.1055-.6825.1382-.9155.8578-1.7731,1.7696-2.6356,2.6768-.8449.9237-1.6948,1.8427-2.4863,2.8161-.1831.2253-.2529.4882-.1537.6307C345.33069,326.2483,345.63619,326.1867,345.89649,325.943Z"/><path class="cls-5" d="M371.42009,331.724a12.99547,12.99547,0,0,0,2.2175-2.3781.58316.58316,0,0,0,.1136-.5105c-.0841-.2024-.3717-.1945-.6423.0175a13.00409,13.00409,0,0,0-2.2175,2.3781.5828.5828,0,0,0-.1139.5115C370.862,331.9446,371.14969,331.9363,371.42009,331.724Z"/><path class="cls-5" d="M374.69659,328.2101a1.01025,1.01025,0,0,0,.6037-.6473l.003-.0138c.0811-.3796-.157-.5942-.5317-.4792a1.01025,1.01025,0,0,0-.6037.6473l-.0038.0174C374.08419,328.1128,374.32259,328.3258,374.69659,328.2101Z"/><path class="cls-5" d="M389.39889,312.4249q5.3166-5.5308,10.5607-11.129l.00441-.0045c.29629-.3193.38379-.7188.19529-.8921s-.5814-.055-.8778.2643q-5.2182,5.62245-10.3644,11.312c-.19809.2196-.261.4925-.1376.6181C388.90709,312.7236,389.18439,312.648,389.39889,312.4249Z"/><path class="cls-5" d="M387.53229,314.4737a1.01011,1.01011,0,0,0,.60371-.6474l.00389-.0174c.0798-.3783-.1586-.5913-.5326-.4756a.98862.98862,0,0,0-.3765.2541.97845.97845,0,0,0-.2271.3933l-.003.0137C386.91959,314.3741,387.15759,314.5886,387.53229,314.4737Z"/><path class="cls-5" d="M385.58069,316.5667a1.01071,1.01071,0,0,0,.6037-.6474l.0038-.0174c.0799-.3783-.1586-.5912-.5325-.4756a.98862.98862,0,0,0-.3765.2541.97853.97853,0,0,0-.2271.3933l-.00309.0137C384.96789,316.4671,385.206,316.6816,385.58069,316.5667Z"/><path class="cls-5" d="M383.629,318.6597a1.01012,1.01012,0,0,0,.60369-.6474l.0039-.0173c.0798-.3783-.15859-.5913-.53259-.4756a1.01041,1.01041,0,0,0-.60361.6473l-.0031.0138C383.01619,318.5601,383.25429,318.7747,383.629,318.6597Z"/><path class="cls-5" d="M376.93169,325.8422c.87731-.8162,1.6962-1.6868,2.52-2.5528.8062-.8824,1.61731-1.7602,2.3706-2.692a.55641.55641,0,0,0,.1363-.6125c-.1181-.166-.4158-.1125-.665.1195-.8769.8165-1.696,1.6869-2.5199,2.5528-.8064.8823-1.61769,1.7599-2.3706,2.692a.55667.55667,0,0,0-.1363.612C376.38479,326.1274,376.68249,326.0741,376.93169,325.8422Z"/><polygon class="cls-7" points="334.949 371.147 338.572 358.328 376.978 358.328 379.071 371.147 334.949 371.147"/><circle class="cls-7" cx="324.96492" cy="383.8053" r="8.09696"/><path class="cls-31" d="M329.83369,383.8053a4.86875,4.86875,0,1,1-4.8688-4.8687A4.86873,4.86873,0,0,1,329.83369,383.8053Z"/><path class="cls-32" d="M321.7638,382.9195l2.77639-7.3226a1.00988,1.00988,0,0,1,.9444-.6519h9.6558a1.01,1.01,0,0,1,.7409,1.6964l-8.6948,9.3843a2.72886,2.72886,0,0,1-2.8496.7391l-.8695-.2843A2.7287,2.7287,0,0,1,321.7638,382.9195Z"/><path class="cls-7" d="M326.82959,383.8053a1.86465,1.86465,0,1,1-1.8647-1.8646A1.86461,1.86461,0,0,1,326.82959,383.8053Z"/><circle class="cls-7" cx="386.82367" cy="383.8053" r="8.09696"/><path class="cls-31" d="M381.95489,383.8053a4.86875,4.86875,0,1,0,4.8688-4.8687A4.86873,4.86873,0,0,0,381.95489,383.8053Z"/><path class="cls-32" d="M390.02479,382.9195l-2.7764-7.3226a1.00985,1.00985,0,0,0-.9443-.6519h-9.6559a1.01,1.01,0,0,0-.7409,1.6964l8.6949,9.3843a2.72865,2.72865,0,0,0,2.8495.7391l.8695-.2843A2.7287,2.7287,0,0,0,390.02479,382.9195Z"/><path class="cls-7" d="M384.959,383.8053a1.86465,1.86465,0,1,0,1.86469-1.8646A1.86466,1.86466,0,0,0,384.959,383.8053Z"/><circle class="cls-18" cx="408.10792" cy="298.27293" r="18.32118" transform="translate(24.65492 627.63991) rotate(-76.8228)"/><path class="cls-7" d="M411.50909,288.514v16.1619h3.0714c.603,0,.862.4301.862,1.4352v.4881c0,1.0042-.259,1.4352-.862,1.4352H403.443c-.603,0-.86111-.431-.86111-1.4352v-.4881c0-1.0051.25811-1.4352.86111-1.4352h3.81759V291.7864l-3.90359.5741c-.747,0-.919-1.6073-.919-2.4113a.78658.78658,0,0,1,.74609-.8041l7.14791-1.3202C410.79189,287.8249,411.50909,288.169,411.50909,288.514Z"/><polygon class="cls-36" points="334.709 284.48 334.709 298.912 368.79 299.8 368.79 283.002 334.709 284.48"/><polygon class="cls-37" points="368.79 283.002 368.79 299.8 385.033 300.319 385.033 285.938 368.79 283.002"/><polygon class="cls-18" points="333.714 281.748 369.583 280.286 369.583 284.976 333.714 286.469 333.714 281.748"/><polygon class="cls-36" points="369.583 284.976 386.213 287.825 386.213 283.377 369.583 280.286 369.583 284.976"/><ellipse class="cls-23" cx="255.9293" cy="383.6696" rx="49.2904" ry="2.836"/><path class="cls-30" d="M279.7308,351.1298c.7965,7.9234,7.4554,19.5154,10.0399,25.9814.7612,1.9043,4.3659.8399,3.9586-1.17-1.3878-6.8475-2.3408-20.7151-2.9749-27.7883C290.0078,339.8252,278.9729,343.589,279.7308,351.1298Z"/><path class="cls-1" d="M289.8701,377.0817a7.35819,7.35819,0,0,0,.5425,5.1103c-.2379.1071-.0584,1.0833.3702,1.2903.5053.244,4.1585.184,4.9005-.395a.78912.78912,0,0,0-.0247-.6557s.9144.3468,3.5131-.1439a13.209,13.209,0,0,0,5.0028-1.8834c.3061-.194.0939-.8869-.2508-.7754,0,0-.2228-1.8037-1.7319-1.7061a11.34775,11.34775,0,0,1-6.8902-2.0144,5.67922,5.67922,0,0,0-2.0557-.8935A3.50289,3.50289,0,0,0,289.8701,377.0817Z"/><g class="cls-38"><path class="cls-39" d="M290.4126,382.192a29.09815,29.09815,0,0,0,5.2568-.0824s5.9222-.1032,8.2543-2.4807a2.77413,2.77413,0,0,1,4.3487.1551l-9.6932,7.7185-6.3313-.495-2.8277-2.3862S289.187,382.0513,290.4126,382.192Z"/><path class="cls-30" d="M289.4041,377.2542a2.45077,2.45077,0,0,0,2.5926,1.1112c1.7431-.3694,1.9201-1.4404,1.5251-3.3042S287.573,374.428,289.4041,377.2542Z"/></g><path class="cls-40" d="M253.812,294.4315s11.3883,20.4873,15.1508,28.8604,8.5227,29.0504,8.5227,29.0504,9.3643,1.9698,14.2709-2.4233c0,0-1.5723-21.817-4.2446-31.6153S274.685,284.455,274.685,284.455C270.6073,275.8201,249.7343,285.7965,253.812,294.4315Z"/><path class="cls-31" d="M263.1295,310.4584a38.66133,38.66133,0,0,1,3.2166-7.7735c2.0076-3.5131,6.8552-6.2708,7.3874-5.8426.9146.7359-6.3181,6.1068-7.7183,9.9852,0,0,8.0509-5.8567,8.6107-5.0846C275.1491,302.4644,266.2966,307.2957,263.1295,310.4584Z"/><path class="cls-17" d="M261.9279,243.9319c1.8798,8.6595,4.7959,20.1983,11.2229,25.8309s20.3814,8.759,21.0451,8.759c1.5542.3581,3.2191-7.8436,1.9875-8.792s-12.2082-5.3799-14.1567-7.2595c-3.4827-3.3595-1.9989-23.8172-5.9428-28.2808S259.7369,233.8386,261.9279,243.9319Z"/><path class="cls-41" d="M297.0066,271.2082s4.8922,4.0648,5.1828,5.1719a5.32291,5.32291,0,0,1-.227,3.3944c-.3997.4631-3.3886,1.9596-4.5304,1.1758a19.99124,19.99124,0,0,1-2.7151-2.5718l.5394-2.0001s-.3677,1.3708-3.3312-.4877S294.1916,268.3992,297.0066,271.2082Z"/><path class="cls-30" d="M228.8335,345.2494c-5.9007,5.3475-11.2699,17.5904-14.9361,23.5105-1.0797,1.7436,1.9179,4.011,3.2927,2.4894,4.684-5.1841,15.2734-14.1888,20.5866-18.9006C244.0323,346.8011,234.4493,340.1601,228.8335,345.2494Z"/><path class="cls-1" d="M214.5575,368.1629a7.35849,7.35849,0,0,0-3.9885,3.2406c-.2194-.141-.94.5416-.8799,1.0138.0709.5566,2.1128,3.5866,3.0026,3.8929a.789.789,0,0,0,.5363-.3781s.2077.9556,2.0358,2.8668a13.2071,13.2071,0,0,0,4.3061,3.1672c.3295.1509.7948-.4047.5133-.6329,0,0,1.3907-1.17.4862-2.382a11.34708,11.34708,0,0,1-2.0673-6.8745,5.67829,5.67829,0,0,0-.3716-2.2104A3.503,3.503,0,0,0,214.5575,368.1629Z"/><g class="cls-42"><path class="cls-39" d="M210.569,371.4035a29.09793,29.09793,0,0,0,2.9348,4.3621s3.315,4.9087,6.5794,5.5676a2.7741,2.7741,0,0,1,2.2407,3.7302l-11.7549-3.9185-3.0365-5.5777.4589-3.6713S210.0189,370.2994,210.569,371.4035Z"/><path class="cls-30" d="M214.1589,367.8663a2.45065,2.45065,0,0,0,.4817,2.7792c1.2599,1.2599,2.2543.8245,3.6014-.5227S215.53,364.7905,214.1589,367.8663Z"/></g><path class="cls-7" d="M241.7508,286.7456s1.5779,30.0407-1.7938,37.908-12.1332,20.674-12.1332,20.674a13.48386,13.48386,0,0,0,11.2872,8.5242s13.3961-9.4351,18.652-23.7248,9.6623-30.0175,7.5336-41.6697C264.101,281.9126,243.4424,277.1736,241.7508,286.7456Z"/><path class="cls-43" d="M245.6663,286.4688s.1913,25.0145-.9765,34.6935c-1.1332,9.3932-15.5691,26.6797-15.5691,26.6797"/><path class="cls-5" d="M275.3796,234.8754c2.3139,4.604-1.8145,22.082-1.8145,29.7165a124.42671,124.42671,0,0,0,1.9392,20.5091,2.43532,2.43532,0,0,1-1.1451,2.6597,30.05353,30.05353,0,0,1-11.261,3.4871c-11.3071,1.0877-16.7691-.8933-19.3393-1.8672a3.13688,3.13688,0,0,1-1.9987-3.4028c.5706-3.8182,2.1813-13.158.8023-21.7503-1.8045-11.2436-4.7494-26.5366.5253-31.2561s15.1521-7.6578,15.1521-7.6578S272.5215,229.189,275.3796,234.8754Z"/><path class="cls-31" d="M260.6274,220.5269s-2.5365-.4227-6.0149-4.7451c-2.2801-2.8334-5.4517-15.6521,4.6027-17.592s13.0152,4.8561,13.4745,9.2997-4.5283,8.1063-6.786,9.7097S260.6274,220.5269,260.6274,220.5269Z"/><path class="cls-30" d="M258.177,215.3632a29.58779,29.58779,0,0,1-1.4521,6.9123,11.09268,11.09268,0,0,1-3.8225,5.2469c-1.4471,1.287,5.7767,8.9598,12.2079,10.906,0,0,4.6644-5.682,2.5253-8.849s-3.8329-3.446-3.0669-7.6749c.6677-3.6862,1.0663-5.7305,1.0663-5.7305Z"/><path class="cls-44" d="M258.177,215.3632s-.3242,2.8703.8326,4.1008,3.2278,4.2015,7.9494,3.8564c6.3058-.4608,3.8573-10.4687,3.8573-10.4687a22.19312,22.19312,0,0,0-.0011-7.0125c-.6592-3.1625-6.9031-4.8187-11.9875-3.2706,0,0-1.46,1.3895-.8996,7.6037a1.89884,1.89884,0,0,0-2.4134-.3246c-1.1193.6099-1.2372,2.0541-.8572,3.4155C255.1132,214.8956,256.8162,216.3026,258.177,215.3632Z"/><path class="cls-45" d="M257.6509,214.7624l-.5547-1.4772.947-.3925s-.6148-2.761-2.1542-1.7432C254.6241,211.9858,256.0705,215.3236,257.6509,214.7624Z"/><path class="cls-31" d="M258.3214,212.5627a39.4088,39.4088,0,0,0-.5274,5.6141c.0937,1.7319,1.802,7.1236,9.6991,6.6428,7.8432-.4776,5.0343-8.9777,3.7055-9.5609a2.33948,2.33948,0,0,1-.7824,1.8751,2.09025,2.09025,0,0,0-2.5293-1.0889c-1.1227-.6353-2.411-.2407-3.7656.5667l-.9758.6844a4.98626,4.98626,0,0,1-4.0136-4.6279Z"/><path class="cls-5" d="M265.1127,217.4437s4.1462,0,4.2449.2817-.4931.8452-2.1225.8452A2.22084,2.22084,0,0,1,265.1127,217.4437Z"/><path class="cls-45" d="M264.9973,217.3682c.218-.1171.198-.0351.2609-.0576l.1453.0052.2903.0112.5804.0259,1.161.0447c.387.02.7738.0416,1.1612.0817a5.14962,5.14962,0,0,1,.5835.0878,1.288,1.288,0,0,1,.1538.0517.17464.17464,0,0,1,.1017.1806.48326.48326,0,0,1-.1533.2953,3.3954,3.3954,0,0,1-2.2614.5568,2.643,2.643,0,0,1-1.1517-.3085,2.19787,2.19787,0,0,1-.4978-.3497,2.24371,2.24371,0,0,1-.209-.2263l-.092-.1259-.0426-.0669-.0204-.0353-.01-.0183C264.9979,217.5441,264.9556,217.406,264.9973,217.3682Zm.2308.151c.047-.027.0094-.1539.0157-.1197l.0066.0139.0143.0284.0318.0574.0724.1128a1.9236,1.9236,0,0,0,.6004.5517,2.42937,2.42937,0,0,0,1.0627.3079,3.282,3.282,0,0,0,2.1559-.4697c.3729-.368-.2797-.3059-.606-.3669-.3826-.0317-.7685-.0452-1.1538-.057l-1.1576-.0193-.5792.0092-.2895.0062-.1447.0036C265.2233,217.5549,265.1067,217.6364,265.2281,217.5192Z"/><path class="cls-31" d="M265.6543,212.3219c-.0292.35-.4889.3752-1.0494.3283s-1.0097-.1482-.9804-.4982.5074-.5956,1.068-.5487S265.6836,211.9719,265.6543,212.3219Z"/><path class="cls-31" d="M261.9419,210.6499a19.50316,19.50316,0,0,1,2.1072-.4999,12.72383,12.72383,0,0,0,2.6032.1264,2.7507,2.7507,0,0,0,.2892-.8349,20.96235,20.96235,0,0,0-3.1704-.119A3.62679,3.62679,0,0,0,261.9419,210.6499Z"/><path class="cls-31" d="M270.7918,212.7518c-.0293.3499-.489.3752-1.0495.3283s-1.0096-.1482-.9803-.4982.5074-.5956,1.0679-.5487S270.8211,212.4018,270.7918,212.7518Z"/><path class="cls-31" d="M271.5073,211.4504c.0044.0537-.6919-.8335-1.0397-.8991s-2.0205.0764-2.104-.1316a3.7933,3.7933,0,0,1-.079-.8657,14.15355,14.15355,0,0,1,2.5819.3805A2.42325,2.42325,0,0,1,271.5073,211.4504Z"/><path class="cls-46" d="M267.9064,215.7436s-1.296-.0434-1.2663-.3983,2.7423-.745,2.8916-.4892S268.4886,215.5812,267.9064,215.7436Z"/><path class="cls-45" d="M268.1299,210.3543a6.54484,6.54484,0,0,0-.1848,2.2085c.1948.5848,1.3842,1.9027,1.4097,2.1811s-1.3475.9594-1.4484.9997,1.9563-.2749,1.896-.9135-1.5898-2.2415-1.6448-2.5547S268.1299,210.3543,268.1299,210.3543Z"/><path class="cls-31" d="M258.8852,213.0401c.4029-.2723,1.0639-2.6162.3606-4.8708a2.81006,2.81006,0,0,1,2.0872-3.6372c1.2858-.1405,5.4563,1.0429,7.1055.8405,3.6146-.4436,6.4152-1.5103,6.4094-2.178s-2.6518.0249-2.6518.0249,4.0298-1.0277,3.6652-4.3997a16.51313,16.51313,0,0,1-5.7356-.7045c-2.7061-.9271-9.1848-2.0035-12.6305.5554-2.255,1.6746-3.8559,7.1325-.8693,9.9077C257.987,209.8431,258.1147,213.5608,258.8852,213.0401Z"/><path class="cls-47" d="M268.2845,234.9512s-1.7221,34.2082-1.343,37.4283-.2467,15.5816,7.5618,17.96c0,0-3.4899-17.8453-2.996-28.5662S268.2845,234.9512,268.2845,234.9512Z"/><path class="cls-22" d="M265.7902,227.2082a87.24708,87.24708,0,0,1,3.1726,24.6766c-.1867,13.9644-.7534,42.6092,9.5812,41.9442,0,0-4.3557-17.5971-4.0901-23.99s3.7267-29.8873,2.4553-33.9134C275.0677,230.0943,265.7902,227.2082,265.7902,227.2082Z"/><path class="cls-22" d="M253.9289,226.7043s6.9682,10.9027,9.2006,29.382c1.0642,8.809-.1291,22.769-1.459,31.6829-1.531,10.2616-21.6188,10.2455-22.9071,7.5552s4.4647-19.7357,2.6712-29.4209-2.8522-25.4983-.7107-30.6995S253.9289,226.7043,253.9289,226.7043Z"/><path class="cls-48" d="M243.8518,245.2214s3.4187,16.4883,2.9822,25.2159-3.2176,26.3611-3.2176,26.3611"/><path class="cls-17" d="M241.4452,236.5296a16.39708,16.39708,0,0,0-.9092,4.3122c1.8834,14.3808,9.9719,30.4978,22.3948,36.2838.41-4.6714.6574-9.6029.5898-14.0281-8.3232-8.2903-14.6882-19.0664-19.5606-29.6888A8.42793,8.42793,0,0,0,241.4452,236.5296Z"/><path class="cls-30" d="M290.1007,274.0789s6.1933,1.4486,6.9482,2.309,2.0219,3.8039,1.8714,4.3969-3.4252,1.8858-4.7969,1.6952a10.57216,10.57216,0,0,1-2.865-.9637c.205-.7304.1495-1.3864-.6107-1.6226-.8037-.2497-1.658.1845-3.0585.8146C284.3992,282.1435,286.3268,272.8248,290.1007,274.0789Z"/><path class="cls-49" d="M240.4431,244.1055c1.6652,9.2281,13.4672,22.994,18.5175,27.3272,4.427,3.7984,26.2881,10.2448,27.2526,10.2955,2.2397.4765,5.09-7.5866,3.3501-8.6278s-21.2255-10.0076-23.3359-12.3533-9.8479-23.1862-15.3444-27.9452S238.5635,233.6888,240.4431,244.1055Z"/><path class="cls-50" d="M455.75429,164.0438l-63.5418-15.6385h0l-8.0359-1.9777a5.83317,5.83317,0,0,0-7.0581,4.27l-6.3122,25.6474h0l-.3594,1.4604-2.8867,11.7293a5.83316,5.83316,0,0,0,4.2701,7.0581l70.439,17.336a5.83321,5.83321,0,0,0,7.0582-4.2701l.8429-3.425h0l2.4032-9.7646h0l3.5042-14.238h0L459.166,169.683A4.66047,4.66047,0,0,0,455.75429,164.0438Z"/><path class="cls-51" d="M375.81588,152.02517h72.54093a5.83313,5.83313,0,0,1,5.83313,5.83313v39.99595a5.83313,5.83313,0,0,1-5.83313,5.83313H375.816a5.83321,5.83321,0,0,1-5.83321-5.83321V157.8583a5.83313,5.83313,0,0,1,5.83313-5.83313Z" transform="translate(54.44514 -93.32775) rotate(13.82648)"/><path class="cls-52" d="M380.81939,158.0978c-2.3969,6.3919-1.598,15.1806,4.7939,18.3765,22.89171,13.6377,47.2679,12.4295,69.3278,3.4349l3.0883-12.5481a4.66051,4.66051,0,0,0-3.4118-5.6392l-63.5417-15.6385C386.31629,148.7856,382.89159,153.4353,380.81939,158.0978Z"/><rect class="cls-7" x="367.2481" y="183.93941" width="84.20729" height="10.05608" transform="translate(57.02111 -92.35207) rotate(13.82645)"/><path class="cls-7" d="M380.6489,152.54215h25.44541a2.34051,2.34051,0,0,1,2.34051,2.34051v.34685a2.34063,2.34063,0,0,1-2.34063,2.34063H380.64884a2.34057,2.34057,0,0,1-2.34057-2.34057v-.34678a2.34063,2.34063,0,0,1,2.34063-2.34063Z" transform="translate(48.45402 -89.51589) rotate(13.82648)"/><path class="cls-7" d="M377.65238,162.576h50.16427a1.17,1.17,0,0,1,1.17,1.17v.17379a1.17023,1.17023,0,0,1-1.17023,1.17023H377.65275a1.1707,1.1707,0,0,1-1.1707-1.1707v-.173a1.17033,1.17033,0,0,1,1.17033-1.17033Z" transform="translate(50.82276 -91.499) rotate(13.82646)"/><path class="cls-5" d="M415.61636,176.63273h1.635a1.64557,1.64557,0,0,1,1.64557,1.64557v.24386a1.64581,1.64581,0,0,1-1.64581,1.64581h-1.635a1.64557,1.64557,0,0,1-1.64557-1.64557v-.24388A1.64579,1.64579,0,0,1,415.61636,176.63273Z" transform="translate(54.69228 -94.3392) rotate(13.82462)"/><path class="cls-5" d="M421.70473,178.13114h1.63492a1.64557,1.64557,0,0,1,1.64557,1.64557v.24388a1.64579,1.64579,0,0,1-1.64579,1.64579h-1.635a1.64551,1.64551,0,0,1-1.64551-1.64551V179.777a1.64586,1.64586,0,0,1,1.64586-1.64586Z" transform="translate(55.23072 -95.75596) rotate(13.82546)"/><path class="cls-5" d="M427.79279,179.62954h1.635a1.64566,1.64566,0,0,1,1.64566,1.64566v.24379a1.64579,1.64579,0,0,1-1.64579,1.64579h-1.635a1.64557,1.64557,0,0,1-1.64557-1.64557v-.24394a1.64573,1.64573,0,0,1,1.64573-1.64573Z" transform="translate(55.76548 -97.16783) rotate(13.82552)"/><path class="cls-53" d="M443.37009,165.2966a5.47816,5.47816,0,1,0-1.8035,7.328,5.46093,5.46093,0,0,1,1.8035-7.328Z"/><path class="cls-53" d="M447.62739,164.5887a5.45716,5.45716,0,0,0-4.2573.7079,5.461,5.461,0,0,1-1.8035,7.328,5.47617,5.47617,0,1,0,6.0608-8.0359Z"/><text class="cls-54" transform="translate(308.32239 112.45315)">http://www.Etajer.com</text><text class="cls-55" transform="translate(460.92944 165.94524) scale(0.98308 1)">رجتأ</text></g></g></svg>