<svg xmlns="http://www.w3.org/2000/svg" viewBox="0 0 510.33 342.14"><defs><style>.cls-1,.cls-8{fill:#fff;}.cls-2{fill:#f8f8f8;}.cls-3,.cls-5{fill:#eee;}.cls-14,.cls-4{fill:#4f46e5;}.cls-5,.cls-8{stroke:#e6e6e6;stroke-miterlimit:10;stroke-width:0.52px;}.cls-6{fill:#004956;}.cls-7{fill:#d5d5d5;}.cls-9{fill:none;}.cls-10{fill:#e85254;}.cls-11{fill:#fd9c06;}.cls-12{fill:#29c56d;}.cls-13{fill:#003159;}.cls-14{font-size:10.22px;font-family:IBMPlexSansArabic-Regular, IBM Plex Sans Arabic;}</style></defs><title>Asset 3</title><g id="Layer_2" data-name="Layer 2"><g id="Layer_1-2" data-name="Layer 1"><path class="cls-1" d="M501.7,0H8.63A8.79,8.79,0,0,0,0,9V333.19a8.79,8.79,0,0,0,8.63,8.95H501.7a8.79,8.79,0,0,0,8.63-8.95V9A8.79,8.79,0,0,0,501.7,0Z"/><path class="cls-2" d="M494.84,7.31H15.49A8.48,8.48,0,0,0,7.1,15.88V326.26a8.48,8.48,0,0,0,8.39,8.56H494.84a8.48,8.48,0,0,0,8.39-8.56V15.88A8.48,8.48,0,0,0,494.84,7.31Z"/><path class="cls-1" d="M485.52,35.9H368.43a6.6,6.6,0,0,0-6.6,6.6V313.33a6.6,6.6,0,0,0,6.6,6.6H485.52a6.6,6.6,0,0,0,6.6-6.6V42.5A6.6,6.6,0,0,0,485.52,35.9Z"/><path class="cls-3" d="M465.74,118.46a9.42,9.42,0,1,0-9.42-9.42A9.42,9.42,0,0,0,465.74,118.46Z"/><path class="cls-3" d="M465.74,149.39a9.42,9.42,0,1,0-9.42-9.42A9.42,9.42,0,0,0,465.74,149.39Z"/><path class="cls-4" d="M465.74,180.32a9.43,9.43,0,1,0-9.42-9.43A9.43,9.43,0,0,0,465.74,180.32Z"/><path class="cls-3" d="M465.74,211.24a9.42,9.42,0,1,0-9.42-9.42A9.42,9.42,0,0,0,465.74,211.24Z"/><path class="cls-3" d="M465.74,242.16a9.42,9.42,0,1,0-9.42-9.42A9.42,9.42,0,0,0,465.74,242.16Z"/><path class="cls-3" d="M465.74,273.09a9.42,9.42,0,1,0-9.42-9.42A9.42,9.42,0,0,0,465.74,273.09Z"/><path class="cls-3" d="M465.74,304a9.42,9.42,0,1,0-9.42-9.42A9.42,9.42,0,0,0,465.74,304Z"/><path class="cls-2" d="M448,105.42H397.14a1.71,1.71,0,0,0-1.55,1.83v3.35a1.7,1.7,0,0,0,1.55,1.82H448a1.7,1.7,0,0,0,1.56-1.82v-3.35A1.71,1.71,0,0,0,448,105.42Z"/><path class="cls-2" d="M448.52,136.42H413.65c-.59,0-1.06.82-1.06,1.83v3.35c0,1,.47,1.82,1.06,1.82h34.87c.59,0,1.07-.81,1.07-1.82v-3.35C449.59,137.24,449.11,136.42,448.52,136.42Z"/><path class="cls-4" d="M447.49,167.69H392.83a1.67,1.67,0,0,0-1.67,1.67v3.07a1.67,1.67,0,0,0,1.67,1.67h54.66a1.67,1.67,0,0,0,1.67-1.67v-3.07A1.67,1.67,0,0,0,447.49,167.69Z"/><path class="cls-2" d="M448.81,198.42H423.36c-.42,0-.77.82-.77,1.83v3.35c0,1,.35,1.82.77,1.82h25.45c.43,0,.78-.81.78-1.82v-3.35C449.59,199.24,449.24,198.42,448.81,198.42Z"/><path class="cls-2" d="M448,229.42H397.14a1.71,1.71,0,0,0-1.55,1.83v3.35a1.7,1.7,0,0,0,1.55,1.82H448a1.7,1.7,0,0,0,1.56-1.82v-3.35A1.71,1.71,0,0,0,448,229.42Z"/><path class="cls-2" d="M448.15,260.42H401a1.5,1.5,0,0,0-1.44,1.57v2.87a1.5,1.5,0,0,0,1.44,1.56h47.12a1.51,1.51,0,0,0,1.44-1.56V262A1.51,1.51,0,0,0,448.15,260.42Z"/><path class="cls-2" d="M447.49,291.39H392.83a1.67,1.67,0,0,0-1.67,1.67v3.07a1.67,1.67,0,0,0,1.67,1.67h54.66a1.67,1.67,0,0,0,1.67-1.67v-3.07A1.67,1.67,0,0,0,447.49,291.39Z"/><path class="cls-1" d="M343,35.9H22.25a4.69,4.69,0,0,0-4.68,4.68V76.69a4.68,4.68,0,0,0,4.68,4.68H343a4.67,4.67,0,0,0,4.68-4.68V40.58A4.68,4.68,0,0,0,343,35.9Z"/><path class="cls-1" d="M343,92.57H22.25a4.68,4.68,0,0,0-4.68,4.68v36.11A4.68,4.68,0,0,0,22.25,138H343a4.67,4.67,0,0,0,4.68-4.68V97.25A4.67,4.67,0,0,0,343,92.57Z"/><path class="cls-1" d="M343,283.36H22.25A4.68,4.68,0,0,0,17.57,288v27.21a4.68,4.68,0,0,0,4.68,4.68H343a4.67,4.67,0,0,0,4.68-4.68V288A4.67,4.67,0,0,0,343,283.36Z"/><path class="cls-1" d="M117.91,149.24H22.25a4.68,4.68,0,0,0-4.68,4.68V267.47a4.68,4.68,0,0,0,4.68,4.68h95.66a4.68,4.68,0,0,0,4.68-4.68V153.92A4.68,4.68,0,0,0,117.91,149.24Z"/><path class="cls-1" d="M230.45,149.24H134.8a4.68,4.68,0,0,0-4.69,4.68V267.47a4.68,4.68,0,0,0,4.69,4.68h95.65a4.68,4.68,0,0,0,4.69-4.68V153.92A4.68,4.68,0,0,0,230.45,149.24Z"/><path class="cls-1" d="M343,149.24H247.34a4.68,4.68,0,0,0-4.68,4.68V267.47a4.68,4.68,0,0,0,4.68,4.68H343a4.67,4.67,0,0,0,4.68-4.68V153.92A4.67,4.67,0,0,0,343,149.24Z"/><path class="cls-3" d="M335.11,70.68A3.73,3.73,0,1,0,331.39,67,3.73,3.73,0,0,0,335.11,70.68Z"/><path class="cls-2" d="M337.17,46.59H253.86a1.67,1.67,0,0,0-1.67,1.67v4.11A1.67,1.67,0,0,0,253.86,54h83.31a1.67,1.67,0,0,0,1.67-1.67V48.26A1.67,1.67,0,0,0,337.17,46.59Z"/><path class="cls-2" d="M325.61,63.23h-83.3a1.67,1.67,0,0,0-1.67,1.67V69a1.67,1.67,0,0,0,1.67,1.67h83.3A1.67,1.67,0,0,0,327.28,69V64.9A1.67,1.67,0,0,0,325.61,63.23Z"/><path class="cls-2" d="M32.56,66.19H49.09a5.81,5.81,0,0,0,5.81-5.81V58a5.82,5.82,0,0,0-5.81-5.82H32.56A5.82,5.82,0,0,0,26.75,58v2.35A5.81,5.81,0,0,0,32.56,66.19Z"/><path class="cls-5" d="M47.59,64.92a5.72,5.72,0,1,0-5.71-5.72A5.72,5.72,0,0,0,47.59,64.92Z"/><path class="cls-2" d="M49.1,108.31H32.57a5.81,5.81,0,0,0-5.81,5.81v2.36a5.81,5.81,0,0,0,5.81,5.81H49.1a5.81,5.81,0,0,0,5.81-5.81v-2.36A5.81,5.81,0,0,0,49.1,108.31Z"/><path class="cls-4" d="M34.07,121a5.72,5.72,0,1,0-5.71-5.72A5.72,5.72,0,0,0,34.07,121Z"/><path class="cls-6" d="M185.56,255.46a.52.52,0,0,1,.52-.51.51.51,0,0,1,0,1A.52.52,0,0,1,185.56,255.46Zm1.28,0a.5.5,0,0,1,.51-.51.51.51,0,0,1,0,1A.49.49,0,0,1,186.84,255.46Zm.65,4.68h-1.74c-2.08,0-2.85-.86-2.85-2.3a4.61,4.61,0,0,1,.41-1.86l.84.3a3.65,3.65,0,0,0-.29,1.29c0,.89.62,1.3,2,1.3h1.65c1.46,0,2.06-.35,2.06-1.09a7.78,7.78,0,0,0-.31-1.86l1-.26a7.57,7.57,0,0,1,.33,2C190.51,259.2,189.74,260.14,187.49,260.14Zm5.09,0h-1v-6.68h1Zm3,.08c-1.91,0-2.15-1.08-2.07-2.3l.84,0c0,.93.51,1.06,1.31,1.06s1.32-.25,1.32-.69-.65-1.32-1.87-2.34l.71-.94a4.48,4.48,0,0,1,2,3.22C197.89,259.47,197.18,260.22,195.6,260.22Zm4.32-.08h-1v-6.68h1Zm6.61-1.27.16,0-.06,1.21-.16,0a1.66,1.66,0,0,1-1.68-1.13,1.79,1.79,0,0,1-1.92,1.21c-1.84,0-2.08-1.08-2-2.3l.84,0c0,.93.54,1.06,1.29,1.06s1.23-.24,1.32-.66l-1.38-2.86,1-.45,1.37,2.89C205.63,258.57,205.83,258.87,206.53,258.87Zm2.76,0h2v1.27h-4.8l-.16-.05.05-1.15.16-.07h1a1.56,1.56,0,0,1-.43-1.15,2.11,2.11,0,0,1,3.86-1.18l-.52.87a1.93,1.93,0,0,0-1.25-.52,1.08,1.08,0,0,0-1.2,1C208,258.55,208.61,258.87,209.29,258.87Zm3-5.41h1v6.1h-1Zm.7,7.73h.69v.61h-1.78v-.57h.27a.62.62,0,0,1-.1-.36.81.81,0,0,1,.83-.83.77.77,0,0,1,.67.38l-.24.44a.68.68,0,0,0-.43-.17c-.2,0-.41.11-.41.27S212.67,261.19,213,261.19Z"/><path class="cls-7" d="M221.94,255.61a1.13,1.13,0,1,0,1.13,1.12A1.12,1.12,0,0,0,221.94,255.61Zm0,1.69a.57.57,0,1,1,.56-.57A.56.56,0,0,1,221.94,257.3Z"/><path class="cls-7" d="M224.56,257.28l-.13-.08a2.9,2.9,0,0,0,0-.93l.13-.07a.85.85,0,0,0-.85-1.47l-.12.07a2.93,2.93,0,0,0-.81-.46v-.14a.84.84,0,0,0-.84-.85.85.85,0,0,0-.85.85v.14a3,3,0,0,0-.8.46l-.12-.07A.86.86,0,0,0,219,255a.85.85,0,0,0,.31,1.16l.13.07a2.43,2.43,0,0,0,0,.93l-.13.08a.84.84,0,0,0-.31,1.15.85.85,0,0,0,1.16.32l.12-.08a2.56,2.56,0,0,0,.8.46v.15a.84.84,0,0,0,.85.84.83.83,0,0,0,.84-.84v-.15a2.5,2.5,0,0,0,.81-.46l.12.08a.85.85,0,0,0,.85-1.47Zm-.72-1.07a2.11,2.11,0,0,1,0,1.06.3.3,0,0,0,.13.32l.31.18a.29.29,0,0,1,.1.38.29.29,0,0,1-.39.11l-.3-.18a.3.3,0,0,0-.34,0,2,2,0,0,1-.91.53.28.28,0,0,0-.21.27v.36a.28.28,0,1,1-.56,0v-.36a.29.29,0,0,0-.21-.27,1.91,1.91,0,0,1-.91-.53.27.27,0,0,0-.34,0l-.31.18a.27.27,0,0,1-.38-.11.28.28,0,0,1,.1-.38l.31-.18a.29.29,0,0,0,.13-.32,2.11,2.11,0,0,1,0-1.06.28.28,0,0,0-.13-.31l-.31-.18a.29.29,0,0,1-.1-.38.28.28,0,0,1,.38-.11l.31.18a.3.3,0,0,0,.34,0,2,2,0,0,1,.91-.54.28.28,0,0,0,.21-.27v-.35a.28.28,0,1,1,.56,0v.35a.27.27,0,0,0,.21.27,2.07,2.07,0,0,1,.91.54.27.27,0,0,0,.34,0l.3-.18a.28.28,0,0,1,.39.11.28.28,0,0,1-.1.38l-.31.18a.26.26,0,0,0-.12.31Z"/><path class="cls-7" d="M337.7,124.4a.25.25,0,0,1-.25.25h-.51a.25.25,0,0,1-.25-.25.25.25,0,0,1,.25-.25h.51A.25.25,0,0,1,337.7,124.4Zm1.14-.25v1.26a1,1,0,0,1-1,1h-4.05a1,1,0,0,1-1-1v-1.26a1,1,0,0,1,1-1H334v-1.78a1,1,0,0,1,1-1h1.52a1,1,0,0,1,1,1v1.78h.25A1,1,0,0,1,338.84,124.15Zm-4.31-1h2.54v-1.78a.51.51,0,0,0-.52-.51H335a.51.51,0,0,0-.51.51v1.78Zm-.75,2.77h1.77v-2.27h-1.77a.51.51,0,0,0-.51.51v1.26a.51.51,0,0,0,.51.51Zm4.55-1.76a.51.51,0,0,0-.51-.51H336v2.27h1.78a.51.51,0,0,0,.51-.51v-1.26Zm-3.67,0h-.52a.25.25,0,0,0-.25.25.26.26,0,0,0,.25.25h.52a.26.26,0,0,0,.25-.25A.25.25,0,0,0,334.66,124.15Zm1.64-2.54a.25.25,0,0,0-.25-.25h-.51a.26.26,0,0,0-.25.25.25.25,0,0,0,.25.25h.51A.25.25,0,0,0,336.3,121.61Z"/><path class="cls-7" d="M306.41,127.6l.13.85a4.55,4.55,0,0,1-2.09.47c-1.36,0-2.18-.65-2.18-1.73a1.83,1.83,0,0,1,1-1.66,1.42,1.42,0,0,1-.61-1.26,1.64,1.64,0,0,1,1.63-1.7,1.62,1.62,0,0,1,1.35.78l-.43.62a1.42,1.42,0,0,0-.93-.42.84.84,0,0,0-.93.78c0,.48.41.73.92.75a11.08,11.08,0,0,1,1.62-.42l.14.89c-2.14.53-3.05.91-3.05,1.56,0,.41.37.83,1.57.83A5.36,5.36,0,0,0,306.41,127.6Zm2.11-.91c-1.48,0-1.66-.84-1.61-1.79l.66,0c0,.72.4.82,1,.82s1-.19,1-.54-.5-1-1.45-1.82l.55-.72a3.48,3.48,0,0,1,1.6,2.5C310.31,126.1,309.76,126.69,308.52,126.69Zm5.52-1h.42l.12.07,0,.84-.13.08h-.51a2.16,2.16,0,0,1-2.31,1.6,4.06,4.06,0,0,1-1.06-.13l.07-.88a6.16,6.16,0,0,0,1,.09,1.79,1.79,0,0,0,1.7-.74h-1a1.19,1.19,0,0,1-1.33-1.25,1.64,1.64,0,0,1,1.56-1.77c1,0,1.49.93,1.49,2.08Zm-2.4-.41c0,.27.3.41.79.41h1c-.07-.59-.37-1.13-.94-1.13A.77.77,0,0,0,311.64,125.23Zm3.51-1.9a.4.4,0,1,1,.39-.4A.39.39,0,0,1,315.15,123.33Zm1,0a.4.4,0,1,1,.39-.4A.39.39,0,0,1,316.14,123.33Zm.69,2.31.12,0,0,.94-.13,0a1.18,1.18,0,0,1-1.23-.72,1.1,1.1,0,0,1-1.14.72l-.12,0,0-.94.13,0c.53,0,.81-.1.81-.72v-1H316v1C316,125.53,316.25,125.64,316.83,125.64Zm6.52,0,.12,0,0,.94-.13,0c-.72,0-1.14-.23-1.28-.67a.94.94,0,0,1-1,.67,1,1,0,0,1-1-.64,1,1,0,0,1-1,.64,1,1,0,0,1-1.05-.66c-.15.45-.55.66-1.16.66l-.12,0,0-.94.12,0c.53,0,.85-.1.85-.6v-.77h.75V125c0,.5.26.6.66.6s.65-.1.65-.6v-.77h.76V125c0,.5.24.6.63.6s.61-.1.61-.6v-.77h.75V125C322.49,125.51,322.76,125.64,323.35,125.64Zm2.46-2.12a1.48,1.48,0,0,1,1.4,1.64,1.45,1.45,0,0,1-1.59,1.5,1.4,1.4,0,0,1-1.3-.66,1,1,0,0,1-1,.63l-.13,0,.05-.94.12,0a.71.71,0,0,0,.77-.47C324.37,124.09,325,123.52,325.81,123.52Zm-.12,2.16c.54,0,.85-.19.85-.47a.76.76,0,0,0-.82-.72,1.07,1.07,0,0,0-1,.83A1.19,1.19,0,0,0,325.69,125.68Z"/><path class="cls-2" d="M32.56,264.8H49.09A5.81,5.81,0,0,0,54.9,259v-2.36a5.81,5.81,0,0,0-5.81-5.81H32.56a5.81,5.81,0,0,0-5.81,5.81V259A5.81,5.81,0,0,0,32.56,264.8Z"/><path class="cls-5" d="M47.59,263.54a5.72,5.72,0,1,0-5.71-5.72A5.72,5.72,0,0,0,47.59,263.54Z"/><path class="cls-3" d="M70.08,204.81A15.78,15.78,0,1,0,54.3,189,15.77,15.77,0,0,0,70.08,204.81Z"/><path class="cls-2" d="M111.73,210.69H28.43a1.67,1.67,0,0,0-1.67,1.67v4.11a1.67,1.67,0,0,0,1.67,1.67h83.3a1.67,1.67,0,0,0,1.67-1.67v-4.11A1.67,1.67,0,0,0,111.73,210.69Z"/><path class="cls-3" d="M109,261.54a3.73,3.73,0,1,0-3.72-3.72A3.71,3.71,0,0,0,109,261.54Z"/><path class="cls-2" d="M99.54,254.09H64.89a1.67,1.67,0,0,0-1.67,1.67v4.11a1.67,1.67,0,0,0,1.67,1.67H99.54a1.67,1.67,0,0,0,1.67-1.67v-4.11A1.67,1.67,0,0,0,99.54,254.09Z"/><path class="cls-8" d="M160.67,250.83H144.14a5.81,5.81,0,0,0-5.81,5.81V259a5.81,5.81,0,0,0,5.81,5.81h16.53a5.81,5.81,0,0,0,5.81-5.81v-2.36A5.81,5.81,0,0,0,160.67,250.83Z"/><path class="cls-4" d="M145.65,263.54a5.72,5.72,0,1,0-5.72-5.72A5.72,5.72,0,0,0,145.65,263.54Z"/><rect class="cls-9" x="124.61" y="136.2" width="113.92" height="113.92"/><path class="cls-2" d="M258,264.8h16.52a5.82,5.82,0,0,0,5.82-5.81v-2.36a5.82,5.82,0,0,0-5.82-5.81H258a5.81,5.81,0,0,0-5.81,5.81V259A5.81,5.81,0,0,0,258,264.8Z"/><path class="cls-5" d="M273,263.54a5.72,5.72,0,1,0-5.72-5.72A5.72,5.72,0,0,0,273,263.54Z"/><path class="cls-3" d="M295.51,204.81A15.78,15.78,0,1,0,279.74,189,15.77,15.77,0,0,0,295.51,204.81Z"/><path class="cls-2" d="M337.17,210.69h-83.3a1.67,1.67,0,0,0-1.67,1.67v4.11a1.66,1.66,0,0,0,1.67,1.67h83.3a1.67,1.67,0,0,0,1.67-1.67v-4.11A1.67,1.67,0,0,0,337.17,210.69Z"/><path class="cls-3" d="M334.48,261.54a3.73,3.73,0,1,0-3.73-3.72A3.72,3.72,0,0,0,334.48,261.54Z"/><path class="cls-2" d="M325,254.09H290.33a1.67,1.67,0,0,0-1.67,1.67v4.11a1.67,1.67,0,0,0,1.67,1.67H325a1.66,1.66,0,0,0,1.67-1.67v-4.11A1.67,1.67,0,0,0,325,254.09Z"/><path class="cls-2" d="M84.19,296.54H30a1.66,1.66,0,0,0-1.66,1.67v6.87A1.66,1.66,0,0,0,30,306.75H84.19a1.67,1.67,0,0,0,1.67-1.67v-6.87A1.67,1.67,0,0,0,84.19,296.54Z"/><path class="cls-2" d="M168.52,296.54H114.35a1.67,1.67,0,0,0-1.67,1.67v6.87a1.67,1.67,0,0,0,1.67,1.67h54.17a1.67,1.67,0,0,0,1.67-1.67v-6.87A1.67,1.67,0,0,0,168.52,296.54Z"/><path class="cls-2" d="M252.84,296.54H198.68a1.67,1.67,0,0,0-1.67,1.67v6.87a1.67,1.67,0,0,0,1.67,1.67h54.16a1.67,1.67,0,0,0,1.67-1.67v-6.87A1.67,1.67,0,0,0,252.84,296.54Z"/><path class="cls-2" d="M337.17,296.54H283a1.67,1.67,0,0,0-1.67,1.67v6.87a1.67,1.67,0,0,0,1.67,1.67h54.17a1.67,1.67,0,0,0,1.67-1.67v-6.87A1.67,1.67,0,0,0,337.17,296.54Z"/><path class="cls-10" d="M21.45,24.45a3.88,3.88,0,1,0-3.88-3.88A3.88,3.88,0,0,0,21.45,24.45Z"/><path class="cls-11" d="M32.77,24.45a3.88,3.88,0,1,0-3.88-3.88A3.88,3.88,0,0,0,32.77,24.45Z"/><path class="cls-12" d="M44.09,24.45a3.88,3.88,0,1,0-3.88-3.88A3.88,3.88,0,0,0,44.09,24.45Z"/><path class="cls-3" d="M427,88.42a19,19,0,1,0-19.05-19A19.05,19.05,0,0,0,427,88.42Z"/><path class="cls-7" d="M431.06,62.37H422.9A2.91,2.91,0,0,0,420,65.28v8.15a2.92,2.92,0,0,0,2.91,2.92h8.16A2.91,2.91,0,0,0,434,73.43V65.28A2.91,2.91,0,0,0,431.06,62.37Zm-8.16,1.16h8.16a1.75,1.75,0,0,1,1.75,1.76v8.15a1.8,1.8,0,0,1-.17.76l-5.35-5.35a2.93,2.93,0,0,0-4.12,0l-2,2V65.29A1.75,1.75,0,0,1,422.9,63.53Zm0,11.67a1.75,1.75,0,0,1-1.75-1.76v-.92L424,69.67a1.74,1.74,0,0,1,2.47,0L431.81,75a1.76,1.76,0,0,1-.75.18H422.9Z"/><path class="cls-7" d="M429.31,68.49a2,2,0,1,0-2.05-2A2.05,2.05,0,0,0,429.31,68.49Zm0-2.91a.88.88,0,0,1,0,1.75.88.88,0,1,1,0-1.75Z"/><text/><g id="Layer_2-2" data-name="Layer 2"><g id="OBJECTS"><path class="cls-13" d="M458,29.3a1.34,1.34,0,0,0-1.29-1h-.13a1.37,1.37,0,0,0-1,.61,1.34,1.34,0,0,0-.22.69,1.36,1.36,0,0,0,1.36,1.4h.13a1.36,1.36,0,0,0,1.23-1.38v-.1A1.76,1.76,0,0,0,458,29.3Z"/><path class="cls-13" d="M465.24,28a1.38,1.38,0,0,0-.33-.2,1.34,1.34,0,0,0-.48-.11h-.18a1.35,1.35,0,0,0-1,.67,1.56,1.56,0,0,0-.17.47,1.9,1.9,0,0,0,0,.34.06.06,0,0,0,0,0,1.36,1.36,0,0,0,1.34,1.19h.13a1.36,1.36,0,0,0,.73-2.4Z"/><path class="cls-13" d="M453,20.92l-.23-2.48a2.34,2.34,0,0,0-2.31-2.1h-.22l-2.22.21a1.08,1.08,0,0,0-.84,1.57,1.05,1.05,0,0,0,.94.57h.11l2.21-.21h0a.18.18,0,0,1,.18.17l.24,2.47a8.53,8.53,0,0,0,.23,1.34,1.2,1.2,0,0,1,.47-.29l1.55-.47A7,7,0,0,1,453,20.92Z"/><path class="cls-13" d="M468.29,19.52l-.12-1.28a1.07,1.07,0,0,0-1.06-1H467a1.05,1.05,0,0,0-1,1.16h0l.12,1.29a5,5,0,0,1,0,.54,6.59,6.59,0,0,1-6,6.64l-.63,0a6.6,6.6,0,0,1-2.37-.44,6.84,6.84,0,0,1-1.92-1.16l-.19.52a1.13,1.13,0,0,1-2.12,0l-.38-1-.65-.33a8.73,8.73,0,0,0,3.53,3.47,2.09,2.09,0,0,1,1.05-.41h.19a2.06,2.06,0,0,1,2,1.4c.3,0,.6,0,.9,0a7.81,7.81,0,0,0,.83,0,8.89,8.89,0,0,0,1.91-.4,2.07,2.07,0,0,1,1.85-1.73h.2a2.14,2.14,0,0,1,.79.16A8.71,8.71,0,0,0,468.29,19.52Z"/><path class="cls-4" d="M455.3,21.65l-.14,0-3.21,1a.49.49,0,0,0-.32.61.51.51,0,0,0,.25.29l1.23.62a.46.46,0,0,1,.23.26l.41,1a.48.48,0,0,0,.91,0l1.1-3.16a.49.49,0,0,0-.3-.62A.41.41,0,0,0,455.3,21.65Z"/><path class="cls-4" d="M464,21.54a1,1,0,0,0-.8-.2.92.92,0,0,0-.59.43,10,10,0,0,1-1,1.29,2.55,2.55,0,0,1-1.39.71c-1.95.33-3.15-.8-3.58-3.37a17.71,17.71,0,0,0,1.82-.2,20.2,20.2,0,0,0,3.88-1.14,8.16,8.16,0,0,0,2-.94,1.85,1.85,0,0,0,.48-1.7,4.84,4.84,0,0,0-1.91-3.23,4.51,4.51,0,0,0-3.58-.8,5.35,5.35,0,0,0-4,3.14,8.44,8.44,0,0,0-.71,5.3l.12.6.93-.29a.49.49,0,0,1,.61.32.47.47,0,0,1,0,.31l-.68,1.95q1.5,2.51,4.88,2a5.54,5.54,0,0,0,3.8-2.62,1.09,1.09,0,0,0,.17-.77A1.13,1.13,0,0,0,464,21.54Zm-6.37-6a3.38,3.38,0,0,1,2.19-1.35,2.18,2.18,0,0,1,1.84.54,3.76,3.76,0,0,1,1.12,2.13,21,21,0,0,1-4.68,1.48,13.8,13.8,0,0,1-1.56.18A5.89,5.89,0,0,1,457.65,15.57Z"/></g></g><path class="cls-4" d="M420.14,30.55a2.78,2.78,0,0,1-.88-.16,1.41,1.41,0,0,1-.68-.47,20.69,20.69,0,0,0,2.06-2.84,14.43,14.43,0,0,0,1.2-2.46,9.47,9.47,0,0,0,.49-2,8.51,8.51,0,0,0,.06-1c0-.17,0-.39,0-.66a3.51,3.51,0,0,0-.15-.72l0-.1h.34a2,2,0,0,1,1.36.62,3,3,0,0,1,.71,2.24A9.39,9.39,0,0,1,424,26a16.48,16.48,0,0,1-1.8,3.59,2.11,2.11,0,0,1-1.31.88A4,4,0,0,1,420.14,30.55Z"/><path class="cls-4" d="M427.13,17.53a4.81,4.81,0,0,1,.72.59A14.24,14.24,0,0,0,430,19.44a19.55,19.55,0,0,0,2.46.86,12,12,0,0,0,2.21.32c.77,0,1.09.52,1,1.44s-.43,1.32-.95,1.21a4,4,0,0,0-2.12.94,21.68,21.68,0,0,1-2.51,1.58,5.81,5.81,0,0,1-4,.34,4.67,4.67,0,0,1-3-2.31c-.64-1.17-.46-1.42.56-.75a7,7,0,0,0,3.94,1q1.67,0,4.86-2a16,16,0,0,1-4.72-.78c-.7-.32-1.09-.62-1.16-.89a1.81,1.81,0,0,1-.11-.63V19.6c0-1.09.18-1.77.53-2Zm3.92,9.09a5.09,5.09,0,0,0,1.36.3,1.16,1.16,0,0,0,.78-.11,1.93,1.93,0,0,1,.1.32,2.49,2.49,0,0,1,.07.68,1,1,0,0,1-.1.52.94.94,0,0,1-.82.34,3.1,3.1,0,0,1-1-.23,1.56,1.56,0,0,1-.18-.52,3.16,3.16,0,0,1-.08-.68,3.35,3.35,0,0,1,0-.46C431.19,26.7,431.15,26.64,431.05,26.62Z"/><path class="cls-4" d="M436.14,26.37h-.09a1.56,1.56,0,0,1-.44-.06,1.68,1.68,0,0,1-.31-.12l-.13-.08A4.16,4.16,0,0,1,434.08,25a4.32,4.32,0,0,1-.55-1.22,2.64,2.64,0,0,1-.09-.63,1,1,0,0,1,0-.26q0-.18.15-.18s0,0,0,0,.16.2.29.39a6.86,6.86,0,0,0,.64.82,2.37,2.37,0,0,0,.9.63,1.34,1.34,0,0,0,.46.08,1.86,1.86,0,0,0,.75-.18,1.57,1.57,0,0,0,.7-1,5.56,5.56,0,0,0,.17-1.41s0-.24,0-.56a6.56,6.56,0,0,0-.19-1.25,3,3,0,0,0-.37-1,2.68,2.68,0,0,1,1.43-.43,1.45,1.45,0,0,1,1.44,1,4.25,4.25,0,0,1,.2,1.34v.33c0,.45,0,.92-.05,1.42s0,1,0,1.45c0,.15,0,.43,0,.82a3.13,3.13,0,0,0,.19,1.06l-.6,0a2.35,2.35,0,0,1-1.93-.65A2.39,2.39,0,0,1,436.14,26.37ZM437.86,18a4.79,4.79,0,0,0-1.37-.3,1.16,1.16,0,0,0-.78.11s0-.12-.09-.33a2.86,2.86,0,0,1-.08-.67,1.06,1.06,0,0,1,.11-.52.91.91,0,0,1,.82-.34,2.76,2.76,0,0,1,1,.23,1.35,1.35,0,0,1,.19.52,3.85,3.85,0,0,1,.09.67c0,.23,0,.38,0,.47S437.76,18,437.86,18Zm2.7,0h0a4.47,4.47,0,0,0-1.49-.3,1,1,0,0,0-.62.12,2,2,0,0,1-.09-.3,2.39,2.39,0,0,1-.08-.66v-.22a.71.71,0,0,1,.1-.35.88.88,0,0,1,.72-.33h.33a2.19,2.19,0,0,1,.76.22,1.35,1.35,0,0,1,.2.51,3.9,3.9,0,0,1,.08.87,3.53,3.53,0,0,1,0,.36C440.46,18,440.49,18,440.56,18Z"/><path class="cls-4" d="M441.72,15.66a.68.68,0,0,1-.1-.4s0-.08,0-.17.1-.19.29-.27a9.51,9.51,0,0,1,1-.17,6.08,6.08,0,0,1-1.38-.48.58.58,0,0,1-.26-.52.64.64,0,0,1,.41-.62,1.89,1.89,0,0,1,.56-.08l.32,0,.34,0,.51,0a.85.85,0,0,0,.45-.16.66.66,0,0,1,.1.4,1.6,1.6,0,0,1,0,.17c0,.09-.11.18-.29.26a1.42,1.42,0,0,1-.48.08,4.63,4.63,0,0,1-.54,0,2.76,2.76,0,0,0-.38,0c-.26,0-.38.09-.38.27v0a.81.81,0,0,0,.6.57,3.4,3.4,0,0,0,1.1.16,3.29,3.29,0,0,0,.67,0v.2c0,.07,0,.16,0,.27a.3.3,0,0,1-.1.22.8.8,0,0,1-.4.11h-.85a5.76,5.76,0,0,0-.69,0A1,1,0,0,0,441.72,15.66Zm.8,10.72a25.84,25.84,0,0,0-.16-3.32c-.09-.47-.2-1-.32-1.45-.18-.75-.32-1.49-.43-2.23a6,6,0,0,1,0-2.07c.06-.18.3-.34.75-.5a4.75,4.75,0,0,1,1.33-.26,9.3,9.3,0,0,0,0,2.78c.15,1.05.34,2.07.56,3,.14.67.26,1.27.34,1.78a3.38,3.38,0,0,1,.05,1.2,1,1,0,0,1-.56.74A4.45,4.45,0,0,1,442.52,26.38Z"/><text class="cls-14" transform="translate(433.43 17.49)">ّ</text></g></g></svg>