<svg xmlns="http://www.w3.org/2000/svg" xmlns:xlink="http://www.w3.org/1999/xlink" viewBox="0 0 750 500"><defs><style>.cls-1,.cls-11,.cls-14,.cls-17,.cls-25,.cls-32,.cls-4,.cls-47,.cls-52{fill:none;}.cls-2,.cls-39{fill:#f99441;}.cls-10,.cls-3,.cls-30,.cls-37,.cls-7{fill:#fff;}.cls-25,.cls-4,.cls-47,.cls-52{stroke:#fff;}.cls-10,.cls-14,.cls-17,.cls-25,.cls-30,.cls-32,.cls-33,.cls-39,.cls-4,.cls-47,.cls-7{stroke-miterlimit:10;}.cls-4{stroke-width:0.97px;}.cls-5{fill:#7272cc;}.cls-23,.cls-24,.cls-58,.cls-6{fill:#4f46e5;}.cls-7{stroke:#7645d4;}.cls-30,.cls-33,.cls-7{stroke-width:0.97px;}.cls-8{fill:#003159;}.cls-20,.cls-22,.cls-54,.cls-9{fill:#764582;}.cls-34,.cls-48,.cls-51,.cls-9{fill-rule:evenodd;}.cls-10,.cls-11,.cls-30,.cls-33{stroke:#764582;}.cls-10,.cls-11{stroke-width:1.02px;}.cls-11,.cls-14,.cls-37,.cls-52{stroke-linecap:round;}.cls-11,.cls-37,.cls-52{stroke-linejoin:round;}.cls-12,.cls-31,.cls-51{fill:#a1abad;}.cls-12,.cls-51{opacity:0.7;}.cls-12,.cls-22,.cls-50,.cls-51,.cls-54{isolation:isolate;}.cls-13{fill:#e2e2e2;}.cls-14,.cls-17{stroke:#efe9da;stroke-width:1.16px;}.cls-15{fill:#dd4026;}.cls-16{fill:#ffd25a;}.cls-18{fill:#3c8460;}.cls-19{fill:#71bf9d;}.cls-21{fill:#fd6141;}.cls-22{opacity:0.2;}.cls-23{opacity:0.42;}.cls-24{opacity:0.7;}.cls-25{stroke-width:0.97px;}.cls-26{fill:#9d68aa;}.cls-27{fill:#fdeeff;}.cls-28{fill:#bfbde5;}.cls-29{fill:#e4bce8;}.cls-32{stroke:#4f46e5;}.cls-33{fill:#ffcc5a;}.cls-34{fill:red;}.cls-35{fill:#3e2344;}.cls-36{fill:#ffdcae;}.cls-37{stroke:#6b42fc;stroke-width:1.85px;}.cls-38{fill:#ffbe57;}.cls-39{stroke:url(#Unnamed_Pattern_2);}.cls-40,.cls-48{fill:#ffb072;}.cls-41{fill:#ed0c37;}.cls-42{clip-path:url(#clip-path);}.cls-43{fill:#ffaec1;}.cls-44{fill:#552f5e;}.cls-45{fill:#f29353;}.cls-46{clip-path:url(#clip-path-2);}.cls-47,.cls-52{stroke-width:0.5px;}.cls-49,.cls-50{fill:#e57e55;}.cls-50{opacity:0.5;}.cls-53{fill:#ff8976;}.cls-54{opacity:0.3;}.cls-55{fill:#e9e4ef;}.cls-56{fill:#b2add8;}.cls-57{fill:#52a6ba;}.cls-58{font-size:22px;font-family:BaskOldFace, Baskerville Old Face;}</style><pattern id="Unnamed_Pattern_2" data-name="Unnamed Pattern 2" width="16.24" height="17.32" patternTransform="matrix(1, 0, 0, -1, 1.57, 1358.37)" patternUnits="userSpaceOnUse" viewBox="0 0 16.24 17.32"><rect class="cls-1" width="16.24" height="17.32"/><rect class="cls-1" width="16.24" height="17.32"/><polygon class="cls-2" points="0 17.32 0 0.52 16.24 0 16.24 14.38 0 17.32"/></pattern><clipPath id="clip-path"><path class="cls-1" d="M289.87,377.08a7.35,7.35,0,0,0,.54,5.11c-.24.11-.06,1.09.37,1.29s4.16.19,4.9-.39a.8.8,0,0,0,0-.66s.91.35,3.51-.14a13.05,13.05,0,0,0,5-1.89c.31-.19.1-.88-.25-.77,0,0-.22-1.8-1.73-1.71a11.36,11.36,0,0,1-6.89-2,5.79,5.79,0,0,0-2.05-.9A3.51,3.51,0,0,0,289.87,377.08Z"/></clipPath><clipPath id="clip-path-2"><path class="cls-1" d="M214.56,368.16a7.39,7.39,0,0,0-4,3.24c-.22-.14-.94.55-.88,1s2.11,3.58,3,3.89a.78.78,0,0,0,.54-.38s.21,1,2,2.87a13.35,13.35,0,0,0,4.31,3.17c.33.15.79-.41.51-.64,0,0,1.39-1.17.49-2.38a11.34,11.34,0,0,1-2.07-6.87,5.53,5.53,0,0,0-.37-2.21A3.51,3.51,0,0,0,214.56,368.16Z"/></clipPath></defs><title>Asset 1</title><g id="Layer_2" data-name="Layer 2"><g id="Layer_1-2" data-name="Layer 1"><g id="BACKGROUND"><rect class="cls-3" width="750" height="500"/></g><g id="OBJECTS"><path class="cls-3" d="M130,231.15a2,2,0,0,1,.15-.76,2.86,2.86,0,0,1,.39-.68.4.4,0,0,1,.53-.12l.1.1a.53.53,0,0,1,.08.32,2.27,2.27,0,0,1-.16.73,4.17,4.17,0,0,1-.35.66.4.4,0,0,1-.64.07A.63.63,0,0,1,130,231.15Z"/><path class="cls-3" d="M131.05,228.46a2.45,2.45,0,0,1,.26-.73,2.13,2.13,0,0,1,.46-.62c.24-.2.53-.17.64.07a.5.5,0,0,1,0,.32,2.58,2.58,0,0,1-.69,1.3c-.21.22-.5.22-.63,0A.54.54,0,0,1,131.05,228.46Z"/><path class="cls-3" d="M132.48,225.94a2.92,2.92,0,0,1,.33-.69,2.22,2.22,0,0,1,.54-.56c.26-.18.53-.12.62.13a.53.53,0,0,1,0,.33,2.79,2.79,0,0,1-.35.66,2.38,2.38,0,0,1-.49.56c-.25.18-.54.14-.64-.09A.57.57,0,0,1,132.48,225.94Z"/><path class="cls-3" d="M135.66,221.92a2,2,0,0,1,.45-.63,1.87,1.87,0,0,1,.62-.45c.28-.13.55,0,.59.23a.54.54,0,0,1,0,.33,3.68,3.68,0,0,1-.45.59,2.66,2.66,0,0,1-.6.46c-.27.14-.54.05-.6-.2A.47.47,0,0,1,135.66,221.92Z"/><path class="cls-3" d="M138.3,219.41a.9.9,0,0,1,.29-.38,1,1,0,0,1,.42-.2.41.41,0,0,1,.51.3.41.41,0,0,1,0,.19l0,.12a.9.9,0,0,1-.28.36,1.07,1.07,0,0,1-.41.21.42.42,0,0,1-.52-.29.41.41,0,0,1,0-.19A.5.5,0,0,1,138.3,219.41Z"/><path class="cls-3" d="M140.77,217.56a1,1,0,0,1,.77-.51.42.42,0,0,1,.47.36.31.31,0,0,1,0,.19.36.36,0,0,1,0,.11.82.82,0,0,1-.31.33,1,1,0,0,1-.43.16.42.42,0,0,1-.49-.34.41.41,0,0,1,0-.19A.36.36,0,0,1,140.77,217.56Z"/><path class="cls-3" d="M136.47,256.5c-.73-.78-1.34-1.65-2-2.48s-1.17-1.78-1.7-2.7-1-1.89-1.43-2.86l-1.17-3a24.84,24.84,0,0,1-1.26-6.27,19.49,19.49,0,0,1,.64-6.36c.08-.29.31-.47.52-.4a.47.47,0,0,1,.24.58,20.33,20.33,0,0,0-.46,6.12,23.75,23.75,0,0,0,1.26,6l1.12,2.89c.43,1,.91,1.86,1.36,2.79s1.07,1.77,1.6,2.66,1.19,1.69,1.87,2.47a.46.46,0,0,1,0,.64A.49.49,0,0,1,136.47,256.5Z"/><path class="cls-3" d="M138,257.11a2.12,2.12,0,0,1,.51.38,1.55,1.55,0,0,1,.38.5c.13.28,0,.55-.26.59a.42.42,0,0,1-.27,0,1.77,1.77,0,0,1-.55-.35,1.72,1.72,0,0,1-.37-.55.4.4,0,0,1,.3-.59A.58.58,0,0,1,138,257.11Z"/><path class="cls-3" d="M139.68,258.74a2.44,2.44,0,0,1,.54.33,1.57,1.57,0,0,1,.43.46.4.4,0,0,1-.07.55.42.42,0,0,1-.13.07.53.53,0,0,1-.28,0,1.89,1.89,0,0,1-.58-.3,1.45,1.45,0,0,1-.41-.51c-.14-.29,0-.56.24-.61A.46.46,0,0,1,139.68,258.74Z"/><path class="cls-3" d="M141.54,260.21l2.19,1.27,2.2,1.24a.44.44,0,0,1,.24.58h0a.48.48,0,0,1-.54.12,14.69,14.69,0,0,1-2.39-1.08,15.82,15.82,0,0,1-2.14-1.5c-.22-.21-.26-.49-.1-.64A.47.47,0,0,1,141.54,260.21Z"/><path class="cls-3" d="M147.92,263.5a.78.78,0,0,1,.4,0,.71.71,0,0,1,.32.22.44.44,0,0,1,0,.63.49.49,0,0,1-.18.11h0a.76.76,0,0,1-.75-.23.45.45,0,0,1,0-.63.5.5,0,0,1,.19-.1Z"/><path class="cls-3" d="M150.36,264.15a.75.75,0,0,1,.39,0,.61.61,0,0,1,.34.17.45.45,0,0,1,.08.63.55.55,0,0,1-.17.13h0a.75.75,0,0,1-.42,0,.72.72,0,0,1-.36-.18.45.45,0,0,1,0-.63.38.38,0,0,1,.17-.12Z"/><path class="cls-4" d="M577.36,281.38c-24.49,0-66.52-9.4-107.18-18.48-40-8.94-77.8-17.39-101.12-17.75l-1.82,0c-19.17,0-47.42,4.6-77.32,9.46-34.48,5.61-73.56,12-103.88,12-29.87,0-46.8-6-51.76-18.36-7.67-19.09,3.64-25.91,19.3-35.34,12.57-7.56,26.81-16.14,28.58-32.92,1.25-11.85.13-21.46-.77-29.18-1.67-14.41-2.51-21.64,11.39-30.19,6-3.68,13.43-5.25,24.9-5.25,4.37,0,8.82.22,13.54.45s9.72.46,14.62.46c12,0,27.34-1.29,40-11.37,2.47-2,4.84-3.88,7.14-5.74,22.16-17.92,38.17-30.87,91.56-37.38a70.37,70.37,0,0,1,8.46-.51c33.91,0,62.73,24.56,85.89,44.29,13.82,11.78,24.74,21.08,34.71,23.68a66.55,66.55,0,0,0,16.87,1.87c6.08,0,12.36-.52,18.44-1s11.75-1,17.24-1c12.76,0,20.53,2.69,26,9,7.53,8.64-4,26.18-14.18,41.66-11.12,16.92-21.62,32.9-14.2,44.25,4.29,6.57,10.34,12,16.19,17.28,12.28,11.05,22,19.77,15,35.58C593.72,279.75,587.45,281.38,577.36,281.38Z"/><rect class="cls-5" x="222.35" y="153.88" width="320.48" height="176.96" rx="3.85"/><path class="cls-6" d="M220.6,147.2H533.37a3.86,3.86,0,0,1,3.86,3.86h0V320.31a3.86,3.86,0,0,1-3.86,3.86H220.6a3.86,3.86,0,0,1-3.85-3.86h0V151.06a3.86,3.86,0,0,1,3.85-3.86Z"/><path class="cls-7" d="M226.19,140.52H516.58a15,15,0,0,1,15,15h0V317.49H226.19a15,15,0,0,1-15-15.05h0V155.57a15,15,0,0,1,15-15Z"/><g id="Layer_2-2" data-name="Layer 2"><g id="OBJECTS-2" data-name="OBJECTS"><path class="cls-8" d="M511.38,164.41a1.33,1.33,0,0,0-1.27-.94H510a1.39,1.39,0,0,0-1,.6,1.32,1.32,0,0,0-.21.67,1.34,1.34,0,0,0,1.33,1.38h.13a1.32,1.32,0,0,0,1.2-1.35v-.1A1.1,1.1,0,0,0,511.38,164.41Z"/><path class="cls-8" d="M518.47,163.11a1.38,1.38,0,0,0-.33-.2,1.28,1.28,0,0,0-.47-.1h-.17a1.34,1.34,0,0,0-1,.66,1.28,1.28,0,0,0-.17.46,1.82,1.82,0,0,0,0,.33.06.06,0,0,0,0,0,1.32,1.32,0,0,0,1.31,1.16h.13a1.32,1.32,0,0,0,.71-2.35Z"/><path class="cls-8" d="M506.52,156.2l-.23-2.42a2.27,2.27,0,0,0-2.26-2.06h-.22l-2.16.21a1,1,0,0,0-.83,1.53,1,1,0,0,0,.92.56h.1l2.17-.2h0a.18.18,0,0,1,.18.16l.23,2.42a8.14,8.14,0,0,0,.22,1.31,1.08,1.08,0,0,1,.47-.28l1.51-.47C506.59,156.71,506.55,156.46,506.52,156.2Z"/><path class="cls-8" d="M521.45,154.83l-.11-1.26a1.06,1.06,0,0,0-1.05-.94h-.1a1,1,0,0,0-.94,1.14h0l.12,1.26c0,.18,0,.36,0,.53a6.45,6.45,0,0,1-5.83,6.5l-.62,0a6.33,6.33,0,0,1-2.32-.44,6.2,6.2,0,0,1-1.88-1.13l-.19.51a1.1,1.1,0,0,1-1.41.68,1.07,1.07,0,0,1-.66-.64l-.37-1-.64-.32a8.58,8.58,0,0,0,3.46,3.4,1.9,1.9,0,0,1,1-.4h.19a2,2,0,0,1,1.92,1.37,8.64,8.64,0,0,0,.88,0l.82,0a8.67,8.67,0,0,0,1.87-.4,2,2,0,0,1,1.81-1.69h.19a2,2,0,0,1,.77.16A8.54,8.54,0,0,0,521.45,154.83Z"/><path class="cls-6" d="M508.73,156.92l-.14,0-3.14,1a.47.47,0,0,0-.31.59.49.49,0,0,0,.24.29l1.2.61a.43.43,0,0,1,.23.25l.4,1a.47.47,0,0,0,.89,0l1.08-3.1a.46.46,0,0,0-.29-.6A.41.41,0,0,0,508.73,156.92Z"/><path class="cls-6" d="M517.27,156.81a1,1,0,0,0-.78-.19.87.87,0,0,0-.58.42,10,10,0,0,1-1,1.26,2.47,2.47,0,0,1-1.36.69c-1.92.32-3.09-.77-3.51-3.29.7,0,1.29-.12,1.78-.2a19.71,19.71,0,0,0,3.8-1.12,8,8,0,0,0,1.94-.92,1.79,1.79,0,0,0,.46-1.66,4.72,4.72,0,0,0-1.86-3.17,4.47,4.47,0,0,0-3.51-.78,5.25,5.25,0,0,0-3.9,3.08,8.22,8.22,0,0,0-.69,5.18c0,.21.07.4.11.59l.91-.28a.48.48,0,0,1,.6.31.44.44,0,0,1,0,.3l-.66,1.91q1.47,2.46,4.77,1.91a5.39,5.39,0,0,0,3.72-2.56,1.05,1.05,0,0,0,.17-.75A1.09,1.09,0,0,0,517.27,156.81ZM511,151a3.33,3.33,0,0,1,2.14-1.32,2.14,2.14,0,0,1,1.81.53,3.68,3.68,0,0,1,1.1,2.09,21.28,21.28,0,0,1-4.59,1.45c-.51.08-1,.14-1.53.17A5.82,5.82,0,0,1,511,151Z"/></g></g><path class="cls-6" d="M474.29,165.63a2.58,2.58,0,0,1-.85-.15,1.44,1.44,0,0,1-.67-.46,21.64,21.64,0,0,0,2-2.78,14.54,14.54,0,0,0,1.17-2.41,8.53,8.53,0,0,0,.48-1.94,8.32,8.32,0,0,0,.06-.94,5.73,5.73,0,0,0,0-.65,3.41,3.41,0,0,0-.15-.71l0-.09h.34a1.88,1.88,0,0,1,1.33.61,3,3,0,0,1,.7,2.19,9.31,9.31,0,0,1-.56,2.89,15.62,15.62,0,0,1-1.77,3.51,2,2,0,0,1-1.28.86A3.81,3.81,0,0,1,474.29,165.63Z"/><path class="cls-6" d="M481.14,152.89a4.06,4.06,0,0,1,.71.58,14.82,14.82,0,0,0,2.13,1.28,19.23,19.23,0,0,0,2.41.85,11.59,11.59,0,0,0,2.16.31c.76,0,1.08.51,1,1.41s-.43,1.3-.94,1.18a3.94,3.94,0,0,0-2.07.93,20.69,20.69,0,0,1-2.46,1.54,5.64,5.64,0,0,1-3.92.33,4.55,4.55,0,0,1-3-2.25c-.63-1.15-.45-1.4.55-.74a6.84,6.84,0,0,0,3.86,1q1.62,0,4.76-2a15.69,15.69,0,0,1-4.63-.76q-1-.48-1.14-.87a1.79,1.79,0,0,1-.1-.62v-.13q0-1.6.51-2Zm3.84,8.89a4.54,4.54,0,0,0,1.34.3,1.18,1.18,0,0,0,.76-.11,1.86,1.86,0,0,1,.09.32,2.3,2.3,0,0,1,.08.66,1.16,1.16,0,0,1-.1.51.91.91,0,0,1-.81.33,2.86,2.86,0,0,1-1-.22,1.56,1.56,0,0,1-.19-.51,4.91,4.91,0,0,1-.08-.67c0-.22,0-.37,0-.45S485.08,161.81,485,161.78Z"/><path class="cls-6" d="M490,161.54h-.08a1.88,1.88,0,0,1-.43,0,1.6,1.6,0,0,1-.31-.13l-.12-.08a4,4,0,0,1-1.07-1.1,3.92,3.92,0,0,1-.54-1.2,2.5,2.5,0,0,1-.09-.61,1,1,0,0,1,0-.26q0-.18.15-.18h0a2.33,2.33,0,0,1,.29.38,7.79,7.79,0,0,0,.63.8,2.22,2.22,0,0,0,.88.61,1.13,1.13,0,0,0,.45.09,1.78,1.78,0,0,0,.74-.18,1.54,1.54,0,0,0,.68-1,5.31,5.31,0,0,0,.16-1.37c0-.06,0-.25,0-.56a6.17,6.17,0,0,0-.18-1.22,2.63,2.63,0,0,0-.36-1,2.57,2.57,0,0,1,1.4-.42,1.41,1.41,0,0,1,1.41,1,4.08,4.08,0,0,1,.19,1.31v.33c0,.44,0,.9,0,1.38s0,1,0,1.42c0,.16,0,.42,0,.81a2.74,2.74,0,0,0,.19,1,4.58,4.58,0,0,1-.59,0,2.27,2.27,0,0,1-1.89-.65A2.36,2.36,0,0,1,490,161.54Zm1.69-8.21a4.91,4.91,0,0,0-1.34-.29,1.19,1.19,0,0,0-.76.1,1.56,1.56,0,0,1-.09-.31,2.41,2.41,0,0,1-.08-.67,1,1,0,0,1,.11-.5.93.93,0,0,1,.8-.34,2.93,2.93,0,0,1,1,.23,1.56,1.56,0,0,1,.19.51,3.72,3.72,0,0,1,.08.66,2.77,2.77,0,0,1,0,.45C491.51,153.25,491.55,153.31,491.65,153.33Zm2.65,0h0a4.37,4.37,0,0,0-1.47-.3,1,1,0,0,0-.6.11,1.32,1.32,0,0,1-.09-.29,2.69,2.69,0,0,1-.08-.65V152a.67.67,0,0,1,.1-.34.86.86,0,0,1,.7-.33l.33,0a2.4,2.4,0,0,1,.75.21,1.49,1.49,0,0,1,.19.5,4.46,4.46,0,0,1,.08.85,1.86,1.86,0,0,1,0,.36S494.23,153.33,494.3,153.33Z"/><path class="cls-6" d="M495.43,151.05a.7.7,0,0,1-.1-.39s0-.08,0-.17.1-.18.28-.26a9.59,9.59,0,0,1,1-.17,6.2,6.2,0,0,1-1.35-.46.58.58,0,0,1-.26-.52.64.64,0,0,1,.4-.61,2.23,2.23,0,0,1,.55-.07l.31,0h.33l.5,0a.85.85,0,0,0,.45-.15.63.63,0,0,1,.1.39s0,.08,0,.17-.11.17-.29.25a1.16,1.16,0,0,1-.47.08,4.58,4.58,0,0,1-.53,0l-.37,0c-.25,0-.38.09-.38.26v0a.85.85,0,0,0,.59.57,3.6,3.6,0,0,0,1.08.16,3,3,0,0,0,.66-.05v.2c0,.07,0,.16,0,.26a.35.35,0,0,1-.09.22.87.87,0,0,1-.4.1h-.83a5.49,5.49,0,0,0-.68,0A1.05,1.05,0,0,0,495.43,151.05Zm.78,10.5a22.94,22.94,0,0,0-.16-3.25c-.08-.47-.19-.94-.3-1.42-.18-.73-.32-1.46-.43-2.18a6.31,6.31,0,0,1,0-2c.06-.17.3-.33.73-.48a4.69,4.69,0,0,1,1.31-.26,8.91,8.91,0,0,0,0,2.72c.15,1,.33,2,.54,3,.15.65.26,1.23.34,1.74a3.46,3.46,0,0,1,.05,1.17,1,1,0,0,1-.55.73A4.14,4.14,0,0,1,496.21,161.55Z"/><path class="cls-9" d="M229,155.69h20.5v-1.21H229Zm-3.62.6h0a1.21,1.21,0,0,0,1.21-1.2h0a1.21,1.21,0,0,0-1.21-1.21h0a1.21,1.21,0,0,0-1.2,1.21h0A1.2,1.2,0,0,0,225.39,156.29Zm3.62,6h20.5v-1.21H229Zm-3.62.6h0a1.21,1.21,0,0,0,1.21-1.2h0a1.21,1.21,0,0,0-1.21-1.21h0a1.21,1.21,0,0,0-1.2,1.21h0A1.2,1.2,0,0,0,225.39,162.92Zm3.62,6h20.5v-1.2H229Zm-3.62.6h0a1.21,1.21,0,0,0,1.21-1.2h0a1.21,1.21,0,0,0-1.21-1.21h0a1.21,1.21,0,0,0-1.2,1.21h0A1.2,1.2,0,0,0,225.39,169.55Z"/><path class="cls-10" d="M238.58,180.22h62.23a14.4,14.4,0,0,1,14.4,14.4v59.45a14.4,14.4,0,0,1-14.4,14.39H238.58a14.39,14.39,0,0,1-14.39-14.39V194.62a14.4,14.4,0,0,1,14.39-14.4Z"/><path class="cls-10" d="M340.82,180.22h62.23a14.4,14.4,0,0,1,14.39,14.4h0v59.45a14.39,14.39,0,0,1-14.39,14.39H340.82a14.4,14.4,0,0,1-14.4-14.39V194.62a14.4,14.4,0,0,1,14.4-14.4Z"/><path class="cls-10" d="M443.06,180.22h62.23a14.4,14.4,0,0,1,14.39,14.4v59.45a14.39,14.39,0,0,1-14.39,14.39H443.06a14.4,14.4,0,0,1-14.4-14.39V194.62a14.4,14.4,0,0,1,14.4-14.4Z"/><line class="cls-11" x1="325.99" y1="274.56" x2="417.44" y2="274.56"/><path class="cls-12" d="M407.3,236.21c0,1.24-14.93,2.26-33.36,2.26s-33.36-1-33.36-2.26S355.52,234,373.94,234,407.3,235,407.3,236.21Z"/><path class="cls-5" d="M347.39,212.63s.67-1.69,6.51.53c3.16,1.2,7.29,4.1,15.33.6,0,0,2.44,8.12-7.79,7.41A17,17,0,0,1,347.39,212.63Z"/><path class="cls-13" d="M404.34,225.7l2.37.63c1.35.71,1.28,4.3.16,5.4,0,0-9.57,5.6-37.62,6.08-16.13-.31-26.91-3.07-27.41-4.17a14.48,14.48,0,0,1-.44-5.28l3-3.54Z"/><path class="cls-6" d="M347.39,212.63s-3.16,3-3.54,5.53c-.54,3.59-1.14,5.37-.76,9,0,0,9.1,3.55,24.25,3.73a155.8,155.8,0,0,0,26.07-1.77c6.68-1.19,13.3-2.78,13.3-2.78-1.93-6.76-7.77-4.25-16.08-6.88-5.66-1.8-19.13-12.91-19.13-12.91s-3.13,2.31-3.3,3.5c-.1.76,1.38,2.71,1.38,2.71s-.37,6.39-6.74,6.81C356.63,220,347.39,212.63,347.39,212.63Z"/><path class="cls-1" d="M406.71,226.33a36.64,36.64,0,0,1-12.37,4.83c-7.51,1.45-19.77,1.94-27.41,1.65-8.44-.33-25.53-4.45-25.53-4.45"/><path class="cls-14" d="M369.58,212.75a21.29,21.29,0,0,1,4.37.41c2.7.94,10.49,7.16,16.32,7.9"/><path class="cls-13" d="M379.23,212.51l-2.61,4.21c-.35.49-1.91-.63-1.55-1.12l2.41-4.44C378,210.49,379.75,211.84,379.23,212.51Z"/><path class="cls-13" d="M383,214.75l-2.73,4.46c-.34.74-2.09,0-1.75-.78l2.73-5C381.78,212.72,383.53,214.08,383,214.75Z"/><path class="cls-13" d="M386.8,217,384,221.46c-.29.64-2-.16-1.72-.8l2.74-5C385.57,215,387.32,216.31,386.8,217Z"/><path class="cls-13" d="M371.32,214.84a1,1,0,0,1,2,.08l-.78,7.47c0,1.07-1.14,1.07-1.14,0Z"/><path class="cls-14" d="M364.41,230.94a8.25,8.25,0,0,1,4.11-4.84c3.58-1.68,12.09,1.51,16.8-1.11a49.34,49.34,0,0,0,4.95-3.93"/><path class="cls-14" d="M344.68,216.19s5.05,2.26,7.4,5.24c1.05,1.35,2.53,8.57,2.53,8.57"/><path class="cls-12" d="M302.48,236.21c0,1.24-14.93,2.26-33.36,2.26s-33.35-1-33.35-2.26S250.7,234,269.12,234,302.48,235,302.48,236.21Z"/><path class="cls-15" d="M242.57,212.63s.67-1.69,6.51.53c3.17,1.2,7.29,4.1,15.33.6,0,0,2.45,8.12-7.79,7.41A17,17,0,0,1,242.57,212.63Z"/><path class="cls-13" d="M299.52,225.7l2.37.63c1.35.71,1.28,4.3.17,5.4,0,0-9.58,5.6-37.63,6.08-16.13-.31-26.91-3.07-27.41-4.17a14.48,14.48,0,0,1-.44-5.28l3-3.54Z"/><path class="cls-16" d="M242.57,212.63s-3.16,3-3.54,5.53c-.53,3.59-1.14,5.37-.75,9,0,0,9.09,3.55,24.25,3.73a155.75,155.75,0,0,0,26.06-1.77c6.68-1.19,13.3-2.78,13.3-2.78-1.93-6.76-7.76-4.25-16.08-6.88-5.66-1.8-19.13-12.91-19.13-12.91s-3.12,2.31-3.29,3.5c-.11.76,1.37,2.71,1.37,2.71s-.37,6.39-6.74,6.81C251.81,220,242.57,212.63,242.57,212.63Z"/><path class="cls-1" d="M301.89,226.33a36.56,36.56,0,0,1-12.37,4.83c-7.51,1.45-19.77,1.94-27.4,1.65-8.45-.33-25.54-4.45-25.54-4.45"/><path class="cls-17" d="M264.76,212.75a21.45,21.45,0,0,1,4.38.41c2.69.94,10.48,7.16,16.32,7.9"/><path class="cls-13" d="M274.41,212.51l-2.6,4.21c-.36.49-1.92-.63-1.56-1.12l2.41-4.44C273.18,210.49,274.93,211.84,274.41,212.51Z"/><path class="cls-13" d="M278.19,214.75l-2.73,4.46c-.33.74-2.08,0-1.75-.78l2.73-5C277,212.72,278.71,214.08,278.19,214.75Z"/><path class="cls-13" d="M282,217l-2.77,4.48c-.29.64-2-.16-1.71-.8l2.73-5C280.75,215,282.5,216.31,282,217Z"/><path class="cls-13" d="M266.5,214.84a1,1,0,0,1,2,.08l-.78,7.47c0,1.07-1.13,1.07-1.13,0Z"/><path class="cls-17" d="M259.6,230.94a8.2,8.2,0,0,1,4.1-4.84c3.58-1.68,12.09,1.51,16.8-1.11a49.46,49.46,0,0,0,5-3.93"/><path class="cls-17" d="M239.86,216.19s5,2.26,7.4,5.24c1.06,1.35,2.53,8.57,2.53,8.57"/><path class="cls-12" d="M507.33,236.21c0,1.24-14.94,2.26-33.36,2.26s-33.36-1-33.36-2.26S455.54,234,474,234,507.33,235,507.33,236.21Z"/><path class="cls-18" d="M447.41,212.63s.67-1.69,6.51.53c3.17,1.2,7.3,4.1,15.33.6,0,0,2.45,8.12-7.79,7.41A17,17,0,0,1,447.41,212.63Z"/><path class="cls-13" d="M504.36,225.7l2.37.63c1.35.71,1.28,4.3.17,5.4,0,0-9.58,5.6-37.62,6.08-16.14-.31-26.92-3.07-27.41-4.17a14.27,14.27,0,0,1-.45-5.28l3-3.54Z"/><path class="cls-19" d="M447.41,212.63s-3.16,3-3.53,5.53c-.54,3.59-1.15,5.37-.76,9,0,0,9.09,3.55,24.25,3.73a155.68,155.68,0,0,0,26.06-1.77c6.68-1.19,13.3-2.78,13.3-2.78-1.93-6.76-7.76-4.25-16.08-6.88-5.66-1.8-19.13-12.91-19.13-12.91s-3.12,2.31-3.29,3.5c-.11.76,1.38,2.71,1.38,2.71s-.38,6.39-6.75,6.81C456.66,220,447.41,212.63,447.41,212.63Z"/><path class="cls-1" d="M506.73,226.33a36.48,36.48,0,0,1-12.37,4.83c-7.5,1.45-19.76,1.94-27.4,1.65-8.45-.33-25.54-4.45-25.54-4.45"/><path class="cls-17" d="M469.61,212.75a21.42,21.42,0,0,1,4.37.41c2.69.94,10.48,7.16,16.32,7.9"/><path class="cls-13" d="M479.25,212.51l-2.6,4.21c-.36.49-1.92-.63-1.56-1.12l2.41-4.44C478,210.49,479.77,211.84,479.25,212.51Z"/><path class="cls-13" d="M483,214.75l-2.74,4.46c-.33.74-2.08,0-1.75-.78l2.74-5C481.81,212.72,483.56,214.08,483,214.75Z"/><path class="cls-13" d="M486.82,217l-2.77,4.48c-.29.64-2-.16-1.71-.8l2.73-5C485.59,215,487.34,216.31,486.82,217Z"/><path class="cls-13" d="M471.34,214.84a1,1,0,0,1,2,.08l-.79,7.47c0,1.07-1.13,1.07-1.13,0Z"/><path class="cls-17" d="M464.44,230.94a8.21,8.21,0,0,1,4.11-4.84c3.58-1.68,12.09,1.51,16.79-1.11a49.46,49.46,0,0,0,5-3.93"/><path class="cls-17" d="M444.71,216.19s5,2.26,7.39,5.24c1.06,1.35,2.53,8.57,2.53,8.57"/><path class="cls-20" d="M336.27,196.46v.11c0,.51-.12.74-.42.74H333c-.29,0-.42-.23-.42-.74v-.11c0-.52.13-.74.42-.74h2.9C336.15,195.72,336.27,195.94,336.27,196.46Z"/><path class="cls-20" d="M343,192.45c0,2.06-1.13,2.49-2.13,2.49s-2.13-.43-2.13-2.49,1.14-2.48,2.13-2.48S343,190.4,343,192.45Zm-2.81,0c0,.58.13,1.27.68,1.27s.67-.69.67-1.27-.11-1.21-.67-1.21S340.18,191.88,340.18,192.45Zm6.77-2.19a.86.86,0,0,1-.07.21l-5.07,9.59a.65.65,0,0,1-.62.41h-.63c-.19,0-.29-.09-.29-.19a.44.44,0,0,1,.07-.22l5.06-9.59a.69.69,0,0,1,.63-.42h.62C346.85,190.05,347,190.14,347,190.26Zm1.53,7.82c0,2-1.13,2.48-2.13,2.48s-2.13-.43-2.13-2.48,1.14-2.49,2.13-2.49S348.48,196,348.48,198.08Zm-2.81,0c0,.57.13,1.27.68,1.27s.67-.7.67-1.27-.11-1.22-.67-1.22S345.67,197.5,345.67,198.08Z"/><path class="cls-21" d="M397,244.83v1c1.39,0,3.85.58,3.85,1.39,0,.36-.54,1.29-.78,1.29a8.29,8.29,0,0,0-3.07-.93v5.69c2.17.78,4.66,1.66,4.66,5,0,2.79-1.81,4.54-4.66,4.79v1.22c0,.27-.15.39-.49.39s-.49-.12-.49-.39v-1.2c-2.76-.07-4.83-1.12-4.83-1.78,0-.39.58-1.32.85-1.32a8.73,8.73,0,0,0,4,1.34V255c-2.15-.83-4.51-1.68-4.51-4.83,0-2.39,1.75-4,4.51-4.35v-1c0-.27.15-.39.49-.39S397,244.56,397,244.83Zm-3.27,5.47c0,1.39,1,2,2.29,2.58v-5.24A2.51,2.51,0,0,0,393.7,250.3ZM397,261.25a2.91,2.91,0,0,0,2.44-3c0-1.53-1.1-2.26-2.44-2.85Z"/><path class="cls-21" d="M347,255.42h39a3.93,3.93,0,0,1,3.93,3.93v.59a3.93,3.93,0,0,1-3.93,3.93H347a3.93,3.93,0,0,1-3.93-3.93v-.59A3.93,3.93,0,0,1,347,255.42Z"/><path class="cls-22" d="M671,447.31H79a2.33,2.33,0,0,1-1.45-4.15l88.65-70.82a11,11,0,0,1,6.83-2.35H577a11,11,0,0,1,6.83,2.35l88.65,70.82a2.33,2.33,0,0,1-1.45,4.15Z"/><path class="cls-23" d="M668.71,418.36H81.29l91.09-72.76a10.61,10.61,0,0,1,6.63-2.29H571a10.61,10.61,0,0,1,6.63,2.29Z"/><polygon class="cls-6" points="610.48 411.85 139.52 411.85 205.82 349.82 544.17 349.82 610.48 411.85"/><polygon class="cls-3" points="604.71 411.85 145.29 411.85 209.97 352.48 540.02 352.48 604.71 411.85"/><path class="cls-24" d="M81.29,418.36H668.71v5.2a14.32,14.32,0,0,1-14.32,14.32H95.61a14.32,14.32,0,0,1-14.32-14.32v-5.2Z"/><line class="cls-25" x1="81.29" y1="425.95" x2="668.71" y2="425.95"/><rect class="cls-20" x="193.56" y="421.39" width="89.91" height="10.26" rx="4.78"/><rect class="cls-6" x="193.56" y="422.55" width="89.91" height="9.11" rx="4.24"/><polygon class="cls-26" points="567.02 361.21 600.41 390.73 618.28 390.73 618.28 388.38 567.02 358.87 567.02 361.21"/><polygon class="cls-27" points="567.02 358.87 600.41 388.38 618.28 388.38 581.18 358.87 567.02 358.87"/><ellipse class="cls-3" cx="159.34" cy="372.96" rx="14.04" ry="6.11"/><path class="cls-20" d="M169.18,372.5c0,2.12-4.41,3.83-9.84,3.83s-9.84-1.71-9.84-3.83,4.41-3.83,9.84-3.83S169.18,370.39,169.18,372.5Z"/><path class="cls-3" d="M160.51,371.64c0,.72-1.52,1.32-3.4,1.32s-3.39-.6-3.39-1.32,1.52-1.32,3.39-1.32S160.51,370.91,160.51,371.64Z"/><path class="cls-5" d="M228.82,96.31H552.4a13.38,13.38,0,0,1,13.38,13.38v2a13.38,13.38,0,0,1-13.38,13.38H228.82a13.39,13.39,0,0,1-13.39-13.38v-2A13.39,13.39,0,0,1,228.82,96.31Z"/><circle class="cls-28" cx="162.8" cy="110.68" r="14.37"/><circle class="cls-28" cx="196.3" cy="110.68" r="14.37"/><polygon class="cls-29" points="585.7 95.58 590.45 105.74 601.58 107.11 593.39 114.77 595.51 125.78 585.7 120.35 575.89 125.78 578.02 114.77 569.83 107.11 580.96 105.74 585.7 95.58"/><path class="cls-30" d="M228.82,91.33H552.4a13.38,13.38,0,0,1,13.38,13.38v2a13.38,13.38,0,0,1-13.38,13.38H228.82a13.39,13.39,0,0,1-13.39-13.38v-2A13.39,13.39,0,0,1,228.82,91.33Z"/><path class="cls-31" d="M285.85,113.22H257.66a6.59,6.59,0,0,1-6.6-6.6h0a6.6,6.6,0,0,1,6.6-6.6h28.19a6.61,6.61,0,0,1,6.61,6.6h0a6.6,6.6,0,0,1-6.61,6.6Z"/><circle class="cls-32" cx="162.8" cy="105.71" r="14.37"/><circle class="cls-32" cx="196.3" cy="105.71" r="14.37"/><polygon class="cls-33" points="585.7 90.61 590.45 100.76 601.58 102.14 593.39 109.8 595.51 120.8 585.7 115.38 575.89 120.8 578.02 109.8 569.83 102.14 580.96 100.76 585.7 90.61"/><polygon class="cls-6" points="164.57 96.95 155.48 105.96 164.57 115.14 166.31 113.41 158.94 105.96 166.31 98.68 164.57 96.95"/><polygon class="cls-6" points="195 115.14 204.09 106.13 195 96.95 193.27 98.68 200.63 106.13 193.27 113.41 195 115.14"/><path class="cls-6" d="M245,114l-5.8-5.73a7.31,7.31,0,0,0,1.25-4.11,7.6,7.6,0,0,0-12.92-5.33,7.39,7.39,0,0,0-2.19,5.28,7.6,7.6,0,0,0,7.58,7.5h0a7.56,7.56,0,0,0,4.15-1.24l5.79,5.72Zm-6.81-9.84a5.21,5.21,0,0,1-1.53,3.69,5.34,5.34,0,0,1-3.72,1.52h0a5.32,5.32,0,0,1-5.32-5.25,5.16,5.16,0,0,1,1.54-3.69,5.33,5.33,0,0,1,9.06,3.73Z"/><path class="cls-34" d="M546.31,106l-3.26,3.28a1,1,0,0,0,0,1.4,1,1,0,0,0,1.39,0h0l3.26-3.27,3.26,3.27a1,1,0,0,0,1.39,0h0a1,1,0,0,0,0-1.4L549.1,106l3.26-3.27a1,1,0,0,0,0-1.41,1,1,0,0,0-1.39,0h0l-3.26,3.28-3.26-3.28a1,1,0,0,0-1.39,0h0a1,1,0,0,0,0,1.41Zm1.4,10.6A10.6,10.6,0,1,1,558.24,106V106A10.56,10.56,0,0,1,547.71,116.64Z"/><path class="cls-21" d="M182.19,178.7a19.45,19.45,0,1,0-38.89,0v0h0c0,4.46-1.34,7.38,19.44,44.7C183.62,185.92,182.17,181,182.19,178.7Z"/><path class="cls-3" d="M162.74,187.75a8.59,8.59,0,1,1,8.6-8.59,8.59,8.59,0,0,1-8.6,8.59Z"/><path class="cls-22" d="M320.58,372.12l-7.9,13.66c-1.6,2.78.59,6.12,4,6.12h77.59a4.23,4.23,0,0,0,4.29-5.47l-4.91-13.67a4.51,4.51,0,0,0-4.3-2.86H324.57A4.58,4.58,0,0,0,320.58,372.12Z"/><path class="cls-20" d="M336.46,368.32a6.89,6.89,0,1,1-6.89-6.89,6.89,6.89,0,0,1,6.89,6.89Z"/><circle class="cls-35" cx="329.57" cy="368.32" r="4.14"/><path class="cls-36" d="M326.85,367.56l2.36-6.23a.86.86,0,0,1,.8-.55h8.22a.86.86,0,0,1,.63,1.44l-7.4,8a2.33,2.33,0,0,1-2.42.63l-.74-.25a2.31,2.31,0,0,1-1.49-2.92A.49.49,0,0,1,326.85,367.56Z"/><circle class="cls-20" cx="329.57" cy="368.32" r="1.59"/><path class="cls-20" d="M376.38,368.32a6.89,6.89,0,1,0,6.89-6.89h0a6.88,6.88,0,0,0-6.89,6.89Z"/><path class="cls-35" d="M379.13,368.32a4.14,4.14,0,1,0,4.14-4.15h0A4.14,4.14,0,0,0,379.13,368.32Z"/><path class="cls-36" d="M386,367.56l-2.36-6.23a.85.85,0,0,0-.8-.55h-8.22a.86.86,0,0,0-.63,1.44l7.4,8a2.33,2.33,0,0,0,2.42.63l.74-.25a2.31,2.31,0,0,0,1.49-2.92A.49.49,0,0,0,386,367.56Z"/><circle class="cls-20" cx="383.27" cy="368.32" r="1.59"/><path class="cls-6" d="M311.55,304.29a1,1,0,0,1-.94-.62c-2.34-5.4-6.23-14.21-6.93-15.32-1-.76-8.91-3.56-16-5.87a1,1,0,0,1,0-1.94l12.66-4.1a1,1,0,0,1,.58,0c1.21.33,11.9,3.29,14.2,5.43,1.82,1.7,7.21,12.92,8.27,15.16a1,1,0,0,1-1.85.87h0c-2.39-5-6.63-13.43-7.81-14.53-1.43-1.33-8.63-3.65-13.05-4.88l-9.39,3c6.54,2.17,13.3,4.59,14,5.56.85,1.13,6.15,13.35,7.2,15.79a1,1,0,0,1-.53,1.34,1.14,1.14,0,0,1-.4.08Z"/><polygon class="cls-37" points="308.78 299.12 320.3 291.96 409.17 296.31 411.2 301.88 308.78 299.12"/><path class="cls-6" d="M307.94,299.3l13.45,44.36a3.06,3.06,0,0,0,3,2.18l74.39-2.3a3.08,3.08,0,0,0,2.89-2.35l9.51-39.31Z"/><path class="cls-5" d="M327.94,317.86c4.81,10,15.44,12,25.56,11.51,21.73-1.08,40.72-9.56,53.45-27.59l-79.13-2c-1.17,0-1.74,7.57-1.8,8.56A19.38,19.38,0,0,0,327.94,317.86Z"/><path class="cls-6" d="M398.63,368.12a28.85,28.85,0,0,0-4.14-9.1c-.7-1-1.85-2-4.55-2h-61.6c-1,0-2.71-.16-3.44-1.24s-.3-2.61.16-3.77a68.63,68.63,0,0,1,3.45-7.62l-2.41.2a56,56,0,0,0-3,6.68c-.92,2.36-.9,4.26.06,5.66s2.73,2.13,5.13,2.13h3.3v1.38a1.54,1.54,0,0,0,1.55,1.55h1.18a1.54,1.54,0,0,0,1.55-1.55V359h40.73v1.38a1.55,1.55,0,0,0,1.56,1.55h1.17a1.55,1.55,0,0,0,1.56-1.55V359h9c1.86,0,2.48.63,2.91,1.22a27.08,27.08,0,0,1,3.8,8.39,1.9,1.9,0,0,1-.15,1.64,3.4,3.4,0,0,1-2.38.82c-14.28.32-45.06.15-61.6.05l-10.41-.05c-2.51,0-4.38-.71-5.26-2s-.82-3.09.07-5.32c2-4.91,7.76-19.52,7.76-19.52l-1.9-.75S317,358.07,315,363c-1.47,3.64-.74,5.94.13,7.23,1.27,1.88,3.74,2.92,6.95,2.92,1.16,0,3.18,0,5.8,0v1.34a1.56,1.56,0,0,0,1.56,1.55h1.18a1.56,1.56,0,0,0,1.55-1.55v-1l.3-.31c9.43.06,23.48.14,36.47.14l10.23,0v1.2a1.55,1.55,0,0,0,1.55,1.55h1.18a1.55,1.55,0,0,0,1.55-1.55v-1.22c4.08,0,7.73-.08,10.68-.14a5.15,5.15,0,0,0,4-1.64A3.81,3.81,0,0,0,398.63,368.12Z"/><path class="cls-3" d="M408.23,301.05l-9.22,38a2.4,2.4,0,0,1-2.26,1.83L362,342q4-4.37,8-8.79c.2-.22.26-.49.14-.62s-.41-.06-.62.17q-4.29,4.42-8.51,8.92h0a1.24,1.24,0,0,0-.22.34l-30.67,1c2.87-3.09,5.7-6.19,8.52-9.32.2-.23.27-.51.15-.64s-.41-.05-.63.19q-4.49,4.64-8.91,9.35h0a1.33,1.33,0,0,0-.27.46l-2.77.08a2.41,2.41,0,0,1-2.38-1.7l-6.12-20.18c1.59-1.72,3.14-3.46,4.68-5.21a.33.33,0,0,0,0-.47.32.32,0,0,0-.44,0q-2.28,2.29-4.5,4.65l-6.58-21.68-1,.29,13,42.88a3.42,3.42,0,0,0,3.27,2.42h.11l70.51-2.18a3.43,3.43,0,0,0,3.22-2.61l9.22-38Z"/><path class="cls-3" d="M323.23,315.15a4.33,4.33,0,0,0,1.28-1.38.37.37,0,0,0-.16-.5.38.38,0,0,0-.37,0,4.41,4.41,0,0,0-1.28,1.37.38.38,0,0,0,.53.5Z"/><path class="cls-3" d="M325.12,313.12a.38.38,0,0,0,.35-.38h0a.5.5,0,0,0-.53-.48.36.36,0,0,0-.34.37v0A.51.51,0,0,0,325.12,313.12Z"/><path class="cls-3" d="M333.62,304q3.12-3.17,6.15-6.4h0a.46.46,0,0,0-.68-.63q-3,3.26-6,6.58a.33.33,0,0,0,0,.47A.32.32,0,0,0,333.62,304Z"/><path class="cls-3" d="M332.55,305.18a.37.37,0,0,0,.35-.38h0a.5.5,0,0,0-.52-.48.36.36,0,0,0-.35.37h0A.52.52,0,0,0,332.55,305.18Z"/><path class="cls-3" d="M331.43,306.39a.37.37,0,0,0,.34-.38h0a.5.5,0,0,0-.52-.48.37.37,0,0,0-.35.37h0A.51.51,0,0,0,331.43,306.39Z"/><path class="cls-3" d="M330.3,307.6a.39.39,0,0,0,.35-.38h0a.52.52,0,0,0-.53-.48.37.37,0,0,0-.35.37h0A.51.51,0,0,0,330.3,307.6Z"/><path class="cls-3" d="M326.42,311.75a20.82,20.82,0,0,0,2.83-3,.37.37,0,0,0-.53-.5,22,22,0,0,0-2.83,3,.38.38,0,0,0,.09.51A.37.37,0,0,0,326.42,311.75Z"/><path class="cls-3" d="M339.47,332.14c.08.2.37.19.65,0a13.74,13.74,0,0,0,2.33-2.49.61.61,0,0,0,.13-.52c-.09-.21-.38-.19-.66,0a14,14,0,0,0-2.32,2.49A.6.6,0,0,0,339.47,332.14Z"/><path class="cls-3" d="M343.56,328.42a1.1,1.1,0,0,0,.63-.67v0c.09-.39-.14-.6-.53-.48a1.09,1.09,0,0,0-.63.68v0C342.93,328.34,343.17,328.55,343.56,328.42Z"/><path class="cls-3" d="M359,311.89q5.57-5.79,11.06-11.66h0c.32-.34.41-.75.23-.92s-.6,0-.91.29q-5.46,5.89-10.86,11.84c-.2.23-.28.51-.15.64S358.73,312.13,359,311.89Z"/><path class="cls-3" d="M357,314a1.12,1.12,0,0,0,.63-.68v0c.09-.39-.15-.6-.54-.47a1.1,1.1,0,0,0-.63.67v0C356.37,314,356.61,314.16,357,314Z"/><path class="cls-3" d="M355,316.23a1.11,1.11,0,0,0,.64-.68v0c.09-.39-.15-.6-.53-.47a1.09,1.09,0,0,0-.63.68h0C354.33,316.14,354.57,316.36,355,316.23Z"/><path class="cls-3" d="M352.91,318.42a1.09,1.09,0,0,0,.63-.68v0c.09-.39-.15-.6-.54-.47a1.09,1.09,0,0,0-.63.68h0C352.29,318.33,352.52,318.55,352.91,318.42Z"/><path class="cls-3" d="M345.9,325.94c.91-.85,1.77-1.77,2.63-2.67s1.7-1.85,2.49-2.82c.18-.23.25-.49.15-.63s-.42-.11-.68.14c-.92.85-1.77,1.77-2.64,2.67s-1.69,1.85-2.48,2.82c-.19.23-.26.49-.16.63S345.64,326.19,345.9,325.94Z"/><path class="cls-3" d="M371.42,331.72a12.79,12.79,0,0,0,2.22-2.37.59.59,0,0,0,.11-.51c-.08-.21-.37-.2-.64,0a13.18,13.18,0,0,0-2.22,2.38.55.55,0,0,0-.11.51C370.86,331.94,371.15,331.94,371.42,331.72Z"/><path class="cls-3" d="M374.7,328.21a1,1,0,0,0,.6-.65h0c.08-.38-.15-.6-.53-.48a1,1,0,0,0-.6.65h0C374.08,328.11,374.32,328.33,374.7,328.21Z"/><path class="cls-3" d="M389.4,312.42q5.31-5.52,10.56-11.12h0c.3-.32.39-.72.2-.89s-.58-.06-.88.26q-5.22,5.63-10.36,11.32c-.2.22-.26.49-.14.61S389.18,312.65,389.4,312.42Z"/><path class="cls-3" d="M387.53,314.47a1,1,0,0,0,.61-.64v0c.08-.38-.16-.59-.53-.48a.92.92,0,0,0-.38.26,1.09,1.09,0,0,0-.23.39h0C386.92,314.37,387.16,314.59,387.53,314.47Z"/><path class="cls-3" d="M385.58,316.57a1,1,0,0,0,.6-.65v0c.08-.38-.16-.59-.53-.47a.9.9,0,0,0-.38.25,1,1,0,0,0-.23.39v0C385,316.47,385.21,316.68,385.58,316.57Z"/><path class="cls-3" d="M383.63,318.66a1,1,0,0,0,.6-.65v0c.08-.37-.16-.59-.54-.47a1,1,0,0,0-.6.65h0C383,318.56,383.25,318.77,383.63,318.66Z"/><path class="cls-3" d="M376.93,325.84c.88-.81,1.7-1.68,2.52-2.55s1.62-1.76,2.37-2.69A.57.57,0,0,0,382,320c-.12-.16-.42-.11-.67.12-.87.82-1.69,1.69-2.52,2.56s-1.61,1.76-2.37,2.69a.56.56,0,0,0-.13.61C376.38,326.13,376.68,326.07,376.93,325.84Z"/><polygon class="cls-6" points="334.95 371.15 338.57 358.33 376.98 358.33 379.07 371.15 334.95 371.15"/><circle class="cls-20" cx="324.96" cy="383.81" r="8.1"/><path class="cls-35" d="M329.83,383.81a4.87,4.87,0,1,1-4.87-4.87,4.87,4.87,0,0,1,4.87,4.87Z"/><path class="cls-36" d="M321.76,382.92l2.78-7.32a1,1,0,0,1,.94-.65h9.66a1,1,0,0,1,1,1,1,1,0,0,1-.27.68L327.19,386a2.72,2.72,0,0,1-2.85.73l-.87-.28a2.72,2.72,0,0,1-1.75-3.44Z"/><path class="cls-20" d="M326.83,383.81a1.87,1.87,0,1,1-1.87-1.87h0a1.87,1.87,0,0,1,1.87,1.87Z"/><circle class="cls-6" cx="386.82" cy="383.81" r="8.1"/><path class="cls-35" d="M382,383.81a4.87,4.87,0,1,0,4.87-4.87,4.87,4.87,0,0,0-4.87,4.87Z"/><path class="cls-36" d="M390,382.92l-2.77-7.32a1,1,0,0,0-.95-.65h-9.65a1,1,0,0,0-1,1,1,1,0,0,0,.27.68L384.6,386a2.72,2.72,0,0,0,2.85.73l.87-.28a2.73,2.73,0,0,0,1.75-3.44Z"/><path class="cls-20" d="M385,383.81a1.87,1.87,0,1,0,1.86-1.87h0A1.87,1.87,0,0,0,385,383.81Z"/><circle class="cls-16" cx="408.11" cy="298.27" r="18.32"/><path class="cls-20" d="M411.51,288.51v16.17h3.07c.6,0,.86.43.86,1.43v.49c0,1-.26,1.43-.86,1.43H403.44c-.6,0-.86-.43-.86-1.43v-.49c0-1,.26-1.43.86-1.43h3.82V291.79l-3.9.57c-.75,0-.92-1.61-.92-2.41a.78.78,0,0,1,.74-.8l7.15-1.33C410.79,287.82,411.51,288.17,411.51,288.51Z"/><polygon class="cls-38" points="334.71 284.48 334.71 298.91 368.79 299.8 368.79 283 334.71 284.48"/><polygon class="cls-39" points="368.79 283 368.79 299.8 385.03 300.32 385.03 285.94 368.79 283"/><polygon class="cls-16" points="333.71 281.75 369.58 280.29 369.58 284.98 333.71 286.47 333.71 281.75"/><polygon class="cls-38" points="369.58 284.98 386.21 287.82 386.21 283.38 369.58 280.29 369.58 284.98"/><ellipse class="cls-22" cx="255.93" cy="383.67" rx="49.29" ry="2.84"/><path class="cls-40" d="M279.73,351.13c.8,7.92,7.46,19.52,10,26,.76,1.91,4.37.84,4-1.17-1.39-6.85-2.34-20.71-3-27.79C290,339.83,279,343.59,279.73,351.13Z"/><path class="cls-41" d="M289.87,377.08a7.35,7.35,0,0,0,.54,5.11c-.24.11-.06,1.09.37,1.29s4.16.19,4.9-.39a.8.8,0,0,0,0-.66s.91.35,3.51-.14a13.05,13.05,0,0,0,5-1.89c.31-.19.1-.88-.25-.77,0,0-.22-1.8-1.73-1.71a11.36,11.36,0,0,1-6.89-2,5.79,5.79,0,0,0-2.05-.9A3.51,3.51,0,0,0,289.87,377.08Z"/><g class="cls-42"><path class="cls-43" d="M290.41,382.19a28.89,28.89,0,0,0,5.26-.08s5.92-.1,8.25-2.48a2.77,2.77,0,0,1,3.91-.32,2.43,2.43,0,0,1,.44.47l-9.69,7.72-6.33-.49-2.83-2.39S289.19,382.05,290.41,382.19Z"/><path class="cls-40" d="M289.4,377.25a2.47,2.47,0,0,0,2.6,1.12c1.74-.37,1.92-1.44,1.52-3.31S287.57,374.43,289.4,377.25Z"/></g><path class="cls-44" d="M253.81,294.43S265.2,314.92,269,323.29s8.53,29,8.53,29,9.36,2,14.27-2.42c0,0-1.58-21.82-4.25-31.62s-12.83-33.85-12.83-33.85C270.61,275.82,249.73,285.8,253.81,294.43Z"/><path class="cls-35" d="M263.13,310.46a38.56,38.56,0,0,1,3.22-7.78c2-3.51,6.85-6.27,7.38-5.84.92.74-6.31,6.11-7.71,10,0,0,8.05-5.86,8.61-5.09S266.3,307.3,263.13,310.46Z"/><path class="cls-15" d="M261.93,243.93c1.88,8.66,4.79,20.2,11.22,25.83s20.38,8.76,21.05,8.76c1.55.36,3.21-7.84,2-8.79S284,264.35,282,262.47c-3.49-3.36-2-23.82-5.95-28.28S259.74,233.84,261.93,243.93Z"/><path class="cls-45" d="M297,271.21s4.89,4.06,5.18,5.17a5.26,5.26,0,0,1-.23,3.39c-.4.47-3.39,2-4.53,1.18a20,20,0,0,1-2.71-2.57l.54-2s-.37,1.37-3.33-.49S294.19,268.4,297,271.21Z"/><path class="cls-40" d="M228.83,345.25c-5.9,5.35-11.27,17.59-14.93,23.51-1.08,1.74,1.92,4,3.29,2.49,4.68-5.18,15.27-14.19,20.59-18.9C244,346.8,234.45,340.16,228.83,345.25Z"/><path class="cls-41" d="M214.56,368.16a7.39,7.39,0,0,0-4,3.24c-.22-.14-.94.55-.88,1s2.11,3.58,3,3.89a.78.78,0,0,0,.54-.38s.21,1,2,2.87a13.35,13.35,0,0,0,4.31,3.17c.33.15.79-.41.51-.64,0,0,1.39-1.17.49-2.38a11.34,11.34,0,0,1-2.07-6.87,5.53,5.53,0,0,0-.37-2.21A3.51,3.51,0,0,0,214.56,368.16Z"/><g class="cls-46"><path class="cls-43" d="M210.57,371.4a29.76,29.76,0,0,0,2.93,4.37s3.32,4.9,6.58,5.56a2.78,2.78,0,0,1,2.4,3.11,2.69,2.69,0,0,1-.16.62l-11.75-3.92-3-5.57.46-3.67S210,370.3,210.57,371.4Z"/><path class="cls-40" d="M214.16,367.87a2.46,2.46,0,0,0,.48,2.78c1.26,1.26,2.25.82,3.6-.53S215.53,364.79,214.16,367.87Z"/></g><path class="cls-20" d="M241.75,286.75s1.58,30-1.79,37.9-12.14,20.68-12.14,20.68a13.49,13.49,0,0,0,11.29,8.52s13.4-9.43,18.65-23.72,9.67-30,7.54-41.67C264.1,281.91,243.44,277.17,241.75,286.75Z"/><path class="cls-47" d="M245.67,286.47s.19,25-1,34.69c-1.13,9.4-15.57,26.68-15.57,26.68"/><path class="cls-3" d="M275.38,234.88c2.31,4.6-1.81,22.08-1.81,29.71a123.73,123.73,0,0,0,1.93,20.51,2.43,2.43,0,0,1-1.14,2.66,30,30,0,0,1-11.26,3.49c-11.31,1.09-16.77-.9-19.34-1.87a3.13,3.13,0,0,1-2-3.4c.57-3.82,2.18-13.16.8-21.75-1.8-11.25-4.75-26.54.53-31.26s15.15-7.66,15.15-7.66S272.52,229.19,275.38,234.88Z"/><path class="cls-35" d="M260.63,220.53s-2.54-.43-6-4.75c-2.28-2.83-5.45-15.65,4.61-17.59s13,4.86,13.47,9.3-4.53,8.11-6.79,9.71S260.63,220.53,260.63,220.53Z"/><path class="cls-40" d="M258.18,215.36a29.72,29.72,0,0,1-1.46,6.92,11.06,11.06,0,0,1-3.82,5.24c-1.44,1.29,5.78,9,12.21,10.91,0,0,4.66-5.68,2.53-8.85s-3.84-3.45-3.07-7.68c.67-3.68,1.07-5.73,1.07-5.73Z"/><path class="cls-48" d="M258.18,215.36s-.33,2.87.83,4.1,3.23,4.21,7.95,3.86c6.3-.46,3.86-10.47,3.86-10.47a22.27,22.27,0,0,0,0-7c-.66-3.16-6.91-4.82-12-3.27,0,0-1.46,1.39-.9,7.6a1.9,1.9,0,0,0-2.42-.32c-1.11.61-1.23,2.05-.85,3.41C255.11,214.9,256.82,216.3,258.18,215.36Z"/><path class="cls-49" d="M257.65,214.76l-.55-1.47.94-.4s-.61-2.76-2.15-1.74C254.62,212,256.07,215.32,257.65,214.76Z"/><path class="cls-35" d="M258.32,212.56a40.79,40.79,0,0,0-.53,5.62c.1,1.73,1.81,7.12,9.7,6.64s5-9,3.71-9.56a2.33,2.33,0,0,1-.78,1.87,2.1,2.1,0,0,0-2.53-1.09c-1.13-.63-2.41-.24-3.77.57l-1,.69a5,5,0,0,1-4-4.63Z"/><path class="cls-3" d="M265.11,217.44s4.15,0,4.25.29-.5.84-2.12.84A2.24,2.24,0,0,1,265.11,217.44Z"/><path class="cls-49" d="M265,217.37c.22-.12.2,0,.26-.06h.43l.58,0,1.17.05c.38,0,.77,0,1.16.08a5.81,5.81,0,0,1,.58.09l.15.05a.19.19,0,0,1,.11.18.47.47,0,0,1-.16.29,3.34,3.34,0,0,1-2.26.56,2.57,2.57,0,0,1-1.15-.31,2.15,2.15,0,0,1-.5-.35l-.21-.22-.09-.13,0-.07,0,0v0S265,217.41,265,217.37Zm.23.15s0-.15,0-.12h0v0l0,.06.07.11a1.86,1.86,0,0,0,.6.55,2.36,2.36,0,0,0,1.06.31,3.28,3.28,0,0,0,2.16-.47c.37-.37-.28-.3-.61-.37s-.77,0-1.15,0l-1.16,0h-1s-.15.06,0-.06Z"/><path class="cls-35" d="M265.65,212.32c0,.35-.48.38-1,.33s-1-.15-1-.5.51-.59,1.07-.55S265.68,212,265.65,212.32Z"/><path class="cls-35" d="M261.94,210.65a19,19,0,0,1,2.11-.5,13.3,13.3,0,0,0,2.6.13,2.79,2.79,0,0,0,.29-.84,21,21,0,0,0-3.17-.12A3.64,3.64,0,0,0,261.94,210.65Z"/><path class="cls-35" d="M270.79,212.75c0,.35-.49.38-1.05.33s-1-.15-1-.5.51-.59,1.07-.55S270.82,212.4,270.79,212.75Z"/><path class="cls-35" d="M271.51,211.45c0,.05-.69-.83-1-.9s-2,.08-2.11-.13a4.21,4.21,0,0,1-.08-.87,15,15,0,0,1,2.59.38A2.48,2.48,0,0,1,271.51,211.45Z"/><path class="cls-50" d="M267.91,215.74s-1.3,0-1.27-.39,2.74-.75,2.89-.49S268.49,215.58,267.91,215.74Z"/><path class="cls-49" d="M268.13,210.35a6.33,6.33,0,0,0-.18,2.21c.19.59,1.38,1.91,1.4,2.18s-1.34,1-1.44,1,1.95-.27,1.89-.91-1.59-2.24-1.64-2.55S268.13,210.35,268.13,210.35Z"/><path class="cls-35" d="M258.89,213c.4-.27,1.06-2.62.36-4.87a2.8,2.8,0,0,1,1.77-3.55l.31-.09c1.29-.14,5.46,1,7.11.84,3.61-.44,6.41-1.51,6.41-2.18s-2.65,0-2.65,0,4-1,3.66-4.4a16.56,16.56,0,0,1-5.73-.7c-2.71-.93-9.19-2-12.63.55-2.26,1.68-3.86,7.13-.87,9.91C258,209.84,258.11,213.56,258.89,213Z"/><path class="cls-51" d="M268.28,235s-1.72,34.21-1.34,37.43-.25,15.58,7.56,18c0,0-3.49-17.85-3-28.57S268.28,235,268.28,235Z"/><path class="cls-21" d="M265.79,227.21A87.13,87.13,0,0,1,269,251.88c-.18,14-.75,42.61,9.58,41.95,0,0-4.35-17.6-4.09-24s3.73-29.89,2.46-33.91C275.07,230.09,265.79,227.21,265.79,227.21Z"/><path class="cls-21" d="M253.93,226.7s7,10.91,9.2,29.39c1.06,8.81-.13,22.77-1.46,31.68-1.53,10.26-21.62,10.24-22.91,7.55s4.47-19.73,2.67-29.42-2.85-25.49-.71-30.7S253.93,226.7,253.93,226.7Z"/><path class="cls-52" d="M243.85,245.22s3.42,16.49,3,25.22-3.21,26.36-3.21,26.36"/><path class="cls-15" d="M241.45,236.53a15.93,15.93,0,0,0-.91,4.31c1.88,14.38,10,30.5,22.39,36.29a140.31,140.31,0,0,0,.59-14C255.2,254.81,248.83,244,244,233.41A8.29,8.29,0,0,0,241.45,236.53Z"/><path class="cls-40" d="M290.1,274.08s6.19,1.45,6.95,2.31,2,3.8,1.87,4.39-3.42,1.89-4.8,1.7a10.71,10.71,0,0,1-2.86-1c.2-.73.15-1.39-.61-1.63s-1.66.19-3.06.82C284.4,282.14,286.33,272.82,290.1,274.08Z"/><path class="cls-53" d="M240.44,244.11c1.67,9.22,13.47,23,18.52,27.32,4.43,3.8,26.29,10.25,27.25,10.3,2.24.47,5.09-7.59,3.35-8.63s-21.22-10-23.33-12.35-9.85-23.19-15.35-27.95S238.56,233.69,240.44,244.11Z"/><path class="cls-54" d="M455.75,164l-63.54-15.63h0l-8-2a5.83,5.83,0,0,0-7.06,4.27l-6.31,25.64h0l-.36,1.47-2.89,11.72a5.83,5.83,0,0,0,4.27,7.06l70.44,17.34a5.83,5.83,0,0,0,7.06-4.27l.84-3.43h0l2.4-9.76h0l3.51-14.24h0l3.09-12.55a4.67,4.67,0,0,0-3.42-5.64Z"/><path class="cls-55" d="M383,144.11l70.44,17.33a5.83,5.83,0,0,1,4.27,7.06l-9.56,38.84a5.84,5.84,0,0,1-7.06,4.27l-70.44-17.34a5.84,5.84,0,0,1-4.27-7.06h0L376,148.38a5.83,5.83,0,0,1,7.06-4.27Z"/><path class="cls-56" d="M380.82,158.1c-2.4,6.39-1.6,15.18,4.79,18.37,22.9,13.64,47.27,12.43,69.33,3.44L458,167.36a4.67,4.67,0,0,0-3.41-5.64h0l-63.54-15.64C386.32,148.79,382.89,153.44,380.82,158.1Z"/><rect class="cls-6" x="404.32" y="146.86" width="10.06" height="84.21" transform="translate(128.03 541.3) rotate(-76.17)"/><path class="cls-6" d="M381.62,149.57l24.71,6.09a2.33,2.33,0,0,1,1.71,2.83h0l-.08.33a2.35,2.35,0,0,1-2.84,1.72h0l-24.7-6.08a2.35,2.35,0,0,1-1.72-2.84h0l.09-.33a2.34,2.34,0,0,1,2.83-1.72Z"/><path class="cls-6" d="M378.68,156.62l48.71,12a1.16,1.16,0,0,1,.86,1.41h0l0,.17a1.18,1.18,0,0,1-1.42.86l-48.71-12a1.17,1.17,0,0,1-.86-1.42l0-.16a1.17,1.17,0,0,1,1.42-.86Z"/><path class="cls-3" d="M416.06,176.49l1.59.39a1.64,1.64,0,0,1,1.2,2l-.05.24a1.64,1.64,0,0,1-2,1.2h0l-1.59-.39a1.65,1.65,0,0,1-1.21-2l.06-.24a1.64,1.64,0,0,1,2-1.2Z"/><path class="cls-3" d="M422.15,178l1.59.39a1.64,1.64,0,0,1,1.2,2l-.06.24a1.63,1.63,0,0,1-2,1.2l-1.58-.39a1.64,1.64,0,0,1-1.21-2l.06-.24a1.64,1.64,0,0,1,2-1.2Z"/><path class="cls-3" d="M428.24,179.49l1.59.39a1.63,1.63,0,0,1,1.2,2h0l-.06.23a1.64,1.64,0,0,1-2,1.21l-1.59-.39a1.64,1.64,0,0,1-1.2-2l.06-.24a1.64,1.64,0,0,1,2-1.2Z"/><path class="cls-57" d="M443.37,165.3a5.48,5.48,0,1,0-2,7.47l.24-.15A5.45,5.45,0,0,1,443.37,165.3Z"/><path class="cls-57" d="M447.63,164.59a5.46,5.46,0,0,0-4.26.71,5.46,5.46,0,0,1-1.8,7.32,5.47,5.47,0,1,0,6.06-8Z"/><text class="cls-58" transform="translate(308.32 112.45)">https://www.etjer.store/</text></g></g></g></svg>