<svg width="538" height="190" viewBox="0 0 538 190" fill="none" xmlns="http://www.w3.org/2000/svg">
<g filter="url(#filter0_d_6701_3666)">
<rect x="300.137" y="19.8422" width="212.9" height="139.877" rx="12.4624" fill="white" shape-rendering="crispEdges"/>
<path d="M390.839 44.3964C390.461 44.3964 390.146 44.0815 390.146 43.7036C390.146 43.3257 390.461 43.0107 390.839 43.0107C391.217 43.0107 391.519 43.3257 391.519 43.7036C391.519 44.0815 391.229 44.3964 390.839 44.3964ZM392.564 44.3964C392.161 44.3964 391.872 44.0941 391.872 43.7036C391.872 43.3257 392.161 43.0107 392.564 43.0107C392.942 43.0107 393.245 43.3257 393.245 43.7036C393.245 44.0815 392.942 44.3964 392.564 44.3964ZM395.462 50.7455L395.676 50.7833L395.6 52.4084L395.386 52.4588C393.925 52.4588 393.182 51.7281 392.993 50.5188C392.728 51.1865 392.161 51.6778 391.103 51.6778C389.692 51.6778 388.747 50.7707 388.747 49.3724C388.747 47.8481 389.831 46.6262 392.842 46.0341V45.1397H394.139V49.511C394.139 50.5818 394.656 50.7455 395.462 50.7455ZM391.267 49.9519C392.073 49.9519 392.602 49.7252 392.842 49.4606V47.5458C390.612 47.9489 389.894 48.5536 389.894 49.1457C389.894 49.7 390.524 49.9519 391.267 49.9519ZM399.576 50.7455L399.79 50.7833L399.715 52.421L399.501 52.4588C398.405 52.4588 397.649 52.0557 397.346 51.2243C397.094 51.9801 396.439 52.4588 395.381 52.4588L395.167 52.421L395.243 50.7833L395.457 50.7455C396.376 50.7455 396.83 50.5692 396.83 49.4858V43.439H398.203V49.4354C398.203 50.5566 398.644 50.7455 399.576 50.7455ZM407.678 48.0119L408.925 47.5836C409.152 48.2261 409.366 49.1457 409.366 49.8385C409.366 51.514 408.447 52.4588 406.985 52.4588C405.978 52.4588 405.348 52.0683 405.108 51.2872C404.844 52.0809 404.201 52.4588 403.332 52.4588C402.438 52.4588 401.77 52.0935 401.518 51.2998C401.266 52.0809 400.611 52.4588 399.502 52.4588L399.288 52.421L399.364 50.7833L399.578 50.7455C400.586 50.7455 401.052 50.5692 401.052 49.7V48.3646H402.362V49.7126C402.362 50.5692 402.816 50.7455 403.508 50.7455C404.189 50.7455 404.642 50.5692 404.642 49.7126V48.3646H405.952V49.7126C405.952 50.5692 406.381 50.7455 407.048 50.7455C407.716 50.7455 408.056 50.3928 408.056 49.8637C408.056 49.385 407.829 48.5788 407.678 48.0119ZM415.172 44.3964C414.794 44.3964 414.479 44.0815 414.479 43.7036C414.479 43.3257 414.794 43.0107 415.172 43.0107C415.55 43.0107 415.853 43.3257 415.853 43.7036C415.853 44.0815 415.563 44.3964 415.172 44.3964ZM416.898 44.3964C416.495 44.3964 416.205 44.0941 416.205 43.7036C416.205 43.3257 416.495 43.0107 416.898 43.0107C417.276 43.0107 417.578 43.3257 417.578 43.7036C417.578 44.0815 417.276 44.3964 416.898 44.3964ZM419.796 50.7455L420.01 50.7833L419.934 52.4084L419.72 52.4588C418.259 52.4588 417.515 51.7281 417.327 50.5188C417.062 51.1865 416.495 51.6778 415.437 51.6778C414.026 51.6778 413.081 50.7707 413.081 49.3724C413.081 47.8481 414.165 46.6262 417.175 46.0341V45.1397H418.473V49.511C418.473 50.5818 418.989 50.7455 419.796 50.7455ZM415.601 49.9519C416.407 49.9519 416.936 49.7252 417.175 49.4606V47.5458C414.946 47.9489 414.228 48.5536 414.228 49.1457C414.228 49.7 414.857 49.9519 415.601 49.9519ZM431.733 50.7455L431.947 50.7833L431.871 52.421L431.657 52.4588C430.687 52.4588 430.158 52.2069 429.881 51.7785C429.276 52.2194 428.395 52.4588 427.223 52.4588H423.557C422.663 52.4588 421.945 52.0809 421.68 51.262C421.428 52.0683 420.735 52.4588 419.715 52.4588L419.501 52.421L419.576 50.7833L419.79 50.7455C420.572 50.7455 421.101 50.5314 421.101 49.6244V48.3016H422.436V49.6496C422.436 50.3298 422.738 50.6196 423.204 50.7078C424.628 48.1505 426.291 46.6262 428.193 46.6262C429.868 46.6262 430.914 48.0371 430.914 49.5362C430.914 49.9393 430.851 50.292 430.738 50.6196C430.952 50.6952 431.254 50.7455 431.733 50.7455ZM424.3 50.7455H427.437C428.772 50.7455 429.73 50.4306 429.73 49.7C429.73 49.0575 429.1 48.3394 428.004 48.3394C426.518 48.3394 425.245 49.4102 424.3 50.7455ZM433.802 46.7396C433.336 46.7396 433.021 46.3868 433.021 45.9711C433.021 45.5554 433.336 45.2027 433.802 45.2027C434.255 45.2027 434.57 45.5554 434.57 45.9711C434.57 46.3868 434.255 46.7396 433.802 46.7396ZM435.855 50.7455L436.069 50.7833L435.994 52.421L435.78 52.4588C434.696 52.4588 433.94 52.0557 433.638 51.2117C433.374 51.9675 432.719 52.4588 431.66 52.4588L431.446 52.421L431.522 50.7833L431.736 50.7455C432.668 50.7455 433.147 50.5692 433.147 49.4858V47.6718H434.457V49.4354C434.457 50.5566 434.847 50.7455 435.855 50.7455ZM440.128 47.0545C441.551 47.0545 442.559 48.2765 442.559 49.9141C442.559 51.4258 441.551 52.5092 439.8 52.5092C438.603 52.5092 437.86 51.9675 437.545 51.3628C437.243 52.0935 436.563 52.4588 435.782 52.4588L435.567 52.421L435.643 50.7833L435.857 50.7455C436.374 50.7455 436.941 50.6322 437.192 49.9267C437.633 48.0497 438.717 47.0545 440.128 47.0545ZM439.926 50.8085C440.858 50.8085 441.4 50.481 441.4 49.9897C441.4 49.3094 440.795 48.7426 439.977 48.7426C439.145 48.7426 438.503 49.2591 438.188 50.1913C438.414 50.4936 438.944 50.8085 439.926 50.8085ZM449.863 46.1349C449.863 45.757 450.178 45.442 450.556 45.442C450.934 45.442 451.236 45.757 451.236 46.1349C451.236 46.5128 450.946 46.8277 450.556 46.8277C450.178 46.8277 449.863 46.5128 449.863 46.1349ZM451.589 46.1349C451.589 45.757 451.878 45.442 452.281 45.442C452.659 45.442 452.962 45.757 452.962 46.1349C452.962 46.5128 452.659 46.8277 452.281 46.8277C451.878 46.8277 451.589 46.5254 451.589 46.1349ZM452.47 52.4588H450.115C447.305 52.4588 446.272 51.2998 446.272 49.3472C446.272 48.5788 446.449 47.6592 446.827 46.8403L447.961 47.2435C447.709 47.8985 447.57 48.4402 447.57 48.9819C447.57 50.1913 448.401 50.7455 450.228 50.7455H452.458C454.423 50.7455 455.242 50.2668 455.242 49.2716C455.242 48.4654 455.028 47.6088 454.814 46.7648L456.098 46.412C456.325 47.1931 456.552 48.2009 456.552 49.1583C456.552 51.1865 455.506 52.4588 452.47 52.4588ZM457.859 50.1157V43.439H459.22V49.5866C459.22 50.544 459.761 50.7455 460.542 50.7455H460.605L460.82 50.7833L460.744 52.421L460.53 52.4588H460.479C458.892 52.4588 457.859 51.7533 457.859 50.1157ZM464.351 50.7455H467.021V52.4588H460.534L460.319 52.3958L460.382 50.8337L460.609 50.7455H461.919C461.541 50.3802 461.327 49.8637 461.327 49.1835C461.327 47.76 462.411 46.349 464.212 46.349C465.421 46.349 466.24 47.1049 466.543 47.5962L465.837 48.7678C465.497 48.4654 464.892 48.0623 464.149 48.0623C463.192 48.0623 462.537 48.667 462.537 49.385C462.537 50.3046 463.431 50.7455 464.351 50.7455ZM473.521 50.7455H474.251L474.466 50.8589L474.39 52.3328L474.176 52.4588H473.294C472.828 54.0209 471.644 55.2428 469.275 55.2428C468.494 55.2428 467.764 55.1169 467.436 55.0161L467.55 53.4918C467.978 53.5548 468.57 53.643 469.313 53.643C470.976 53.643 471.883 53.0509 472.261 52.358H470.548C468.961 52.358 468.23 51.388 468.23 50.1913C468.23 48.478 469.364 47.1049 470.938 47.1049C472.601 47.1049 473.521 48.73 473.521 50.733V50.7455ZM469.351 50.0401C469.351 50.5062 469.88 50.7455 470.724 50.7455H472.437C472.311 49.7252 471.795 48.7803 470.8 48.7803C469.83 48.7803 469.351 49.4858 469.351 50.0401ZM477.326 43.8799C476.873 43.8799 476.57 43.5398 476.57 43.1493C476.57 42.7462 476.873 42.406 477.326 42.406C477.754 42.406 478.057 42.7462 478.057 43.1493C478.057 43.5398 477.754 43.8799 477.326 43.8799ZM477.326 44.7744C479.052 44.7744 479.984 46.3742 479.984 48.2765C479.984 51.4006 478.813 52.4588 476.57 52.4588H474.177L473.963 52.421L474.038 50.7833L474.252 50.7455H476.646C477.893 50.7455 478.775 50.5314 478.85 48.9315C478.523 49.4354 477.931 49.8763 476.91 49.8763C475.399 49.8763 474.643 48.9567 474.643 47.6844C474.643 46.1097 475.714 44.7744 477.326 44.7744ZM477.087 48.3772C477.918 48.3772 478.485 48.1127 478.787 47.7726C478.624 47.1679 478.145 46.3994 477.187 46.3994C476.28 46.3994 475.764 47.0293 475.764 47.5206C475.764 48.0623 476.293 48.3772 477.087 48.3772ZM488.614 50.7455L488.828 50.7833L488.752 52.421L488.538 52.4588C487.291 52.4588 486.724 51.9045 486.271 50.9345C485.93 51.9927 485.061 52.5722 483.675 52.5722C481.194 52.5722 480.866 51.1109 480.967 49.4606L482.101 49.4102C482.063 50.6574 482.831 50.8337 483.852 50.8337C484.847 50.8337 485.515 50.5188 485.628 49.9519L483.764 46.0845L485.086 45.4798L486.938 49.3724C487.404 50.3424 487.669 50.7455 488.614 50.7455ZM492.879 47.0545C494.303 47.0545 495.311 48.2765 495.311 49.9141C495.311 51.4258 494.303 52.5092 492.552 52.5092C491.355 52.5092 490.612 51.9675 490.297 51.3628C489.995 52.0935 489.314 52.4588 488.533 52.4588L488.319 52.421L488.395 50.7833L488.609 50.7455C489.125 50.7455 489.692 50.6322 489.944 49.9267C490.385 48.0497 491.469 47.0545 492.879 47.0545ZM492.678 50.8085C493.61 50.8085 494.152 50.481 494.152 49.9897C494.152 49.3094 493.547 48.7426 492.728 48.7426C491.897 48.7426 491.254 49.2591 490.939 50.1913C491.166 50.4936 491.695 50.8085 492.678 50.8085Z" fill="#004956"/>
<path d="M324.614 89.1369L325.211 88.9378C325.329 89.3065 325.462 89.8448 325.462 90.2577C325.462 91.1499 324.953 91.6587 324.142 91.6587C323.597 91.6587 323.213 91.4449 323.073 91.0246C322.911 91.4522 322.52 91.6587 322.056 91.6587H321.473C321.267 92.691 320.433 93.3178 319.18 93.3178C317.771 93.3178 316.96 92.514 316.96 91.3195C316.96 90.6338 317.159 90.0291 317.351 89.6236L317.889 89.8153C317.727 90.1766 317.58 90.7444 317.58 91.1647C317.58 92.079 318.207 92.5214 319.231 92.5214C320.256 92.5214 320.905 92.0642 320.905 91.2458C320.905 90.7444 320.765 90.1766 320.581 89.5277L321.2 89.3508C321.355 89.8522 321.48 90.3609 321.517 90.8623H322.115C322.52 90.8623 322.845 90.7444 322.845 90.2356V89.4171H323.464V90.2208C323.464 90.7517 323.766 90.8623 324.186 90.8623C324.622 90.8623 324.843 90.6338 324.843 90.2946C324.843 89.9923 324.703 89.4909 324.614 89.1369ZM326.173 91.2384C326.173 90.9435 326.402 90.7296 326.682 90.7296C326.97 90.7296 327.198 90.9361 327.198 91.2384C327.198 91.526 326.977 91.7472 326.682 91.7472C326.409 91.7472 326.173 91.5333 326.173 91.2384ZM329.81 91.0098C329.81 92.197 329.051 93.2145 327.76 93.2145C327.487 93.2145 327.237 93.1703 327.126 93.1334L327.192 92.3887C327.362 92.4108 327.524 92.4182 327.694 92.4182C328.748 92.4182 329.198 91.6956 329.198 91.1057C329.198 90.5674 329.043 89.9111 328.851 89.0263L329.463 88.8641C329.663 89.6604 329.81 90.4273 329.81 91.0098ZM334.195 90.7892H337.049V91.6587H332.901V90.9499C334.734 89.1826 335.925 88.0107 335.925 86.9901C335.925 86.3191 335.443 85.7993 334.64 85.7993C334.139 85.7993 333.619 85.9977 333.146 86.4325L332.872 85.667C333.25 85.3173 333.865 84.9015 334.791 84.9015C336.227 84.9015 336.946 85.856 336.946 86.8766C336.946 88.1052 335.821 89.2677 334.195 90.7892ZM340.406 91.7626C338.573 91.7626 338.034 90.4018 338.034 88.3321C338.034 86.3569 338.62 84.9015 340.406 84.9015C342.221 84.9015 342.769 86.3096 342.769 88.3321C342.769 90.3167 342.155 91.7626 340.406 91.7626ZM340.406 90.8743C341.446 90.8743 341.767 89.9481 341.767 88.3415C341.758 86.7349 341.474 85.7993 340.397 85.7993C339.31 85.7993 339.036 86.7538 339.036 88.3321C339.036 89.9765 339.282 90.8743 340.406 90.8743ZM346.184 91.7626C344.35 91.7626 343.812 90.4018 343.812 88.3321C343.812 86.3569 344.398 84.9015 346.184 84.9015C347.998 84.9015 348.547 86.3096 348.547 88.3321C348.547 90.3167 347.932 91.7626 346.184 91.7626ZM346.184 90.8743C347.223 90.8743 347.545 89.9481 347.545 88.3415C347.535 86.7349 347.252 85.7993 346.174 85.7993C345.088 85.7993 344.813 86.7538 344.813 88.3321C344.813 89.9765 345.059 90.8743 346.184 90.8743ZM351.961 91.7626C350.128 91.7626 349.589 90.4018 349.589 88.3321C349.589 86.3569 350.175 84.9015 351.961 84.9015C353.776 84.9015 354.324 86.3096 354.324 88.3321C354.324 90.3167 353.71 91.7626 351.961 91.7626ZM351.961 90.8743C353.001 90.8743 353.322 89.9481 353.322 88.3415C353.313 86.7349 353.029 85.7993 351.952 85.7993C350.865 85.7993 350.591 86.7538 350.591 88.3321C350.591 89.9765 350.837 90.8743 351.961 90.8743Z" fill="#004956"/>
<path d="M422.011 87.009C422.011 86.7538 422.228 86.5364 422.483 86.5364C422.748 86.5364 422.956 86.7538 422.956 87.009C422.956 87.2736 422.757 87.4815 422.483 87.4815C422.228 87.4815 422.011 87.2736 422.011 87.009ZM423.249 87.009C423.249 86.7538 423.447 86.5364 423.721 86.5364C423.977 86.5364 424.194 86.7538 424.194 87.009C424.194 87.2736 423.977 87.4815 423.721 87.4815C423.447 87.4815 423.249 87.2736 423.249 87.009ZM423.892 91.6587H422.105C420.064 91.6587 419.261 90.8932 419.261 89.4283C419.261 88.8802 419.402 88.2092 419.667 87.6138L420.357 87.8595C420.159 88.3793 420.045 88.7951 420.045 89.2299C420.045 90.2033 420.744 90.638 422.143 90.638H423.873C425.413 90.638 426.084 90.2316 426.084 89.4C426.084 88.7668 425.942 88.1052 425.791 87.4909L426.566 87.2925C426.708 87.8501 426.869 88.5778 426.869 89.296C426.869 90.7892 426.084 91.6587 423.892 91.6587ZM427.908 90.0237V84.9582H428.72V89.7024C428.72 90.4774 429.155 90.638 429.788 90.638H429.836L429.996 90.6664L429.949 91.6303L429.788 91.6587H429.76C428.673 91.6587 427.908 91.1673 427.908 90.0237ZM432.657 90.638H434.594V91.6587H429.793L429.633 91.602L429.661 90.7136L429.831 90.638H430.956C430.616 90.3545 430.417 89.9292 430.417 89.3622C430.417 88.3037 431.201 87.2547 432.506 87.2547C433.422 87.2547 433.999 87.8501 434.226 88.2092L433.753 88.8896C433.479 88.625 433.025 88.2753 432.43 88.2753C431.683 88.2753 431.173 88.7951 431.173 89.4189C431.173 90.2316 431.929 90.638 432.657 90.638ZM439.387 90.638H439.973L440.133 90.7231L440.096 91.5642L439.935 91.6587H439.226C438.895 92.8306 438.016 93.7473 436.249 93.7473C435.673 93.7473 435.153 93.6528 434.926 93.5772L435.002 92.651C435.257 92.6983 435.72 92.7644 436.278 92.7644C437.553 92.7644 438.253 92.2257 438.536 91.6209H437.298C436.107 91.6209 435.54 90.9404 435.54 90.0521C435.54 88.8329 436.353 87.8406 437.516 87.8406C438.716 87.8406 439.387 88.9652 439.387 90.4396V90.638ZM436.268 89.9765C436.268 90.4018 436.684 90.638 437.402 90.638H438.687C438.678 89.882 438.347 88.8424 437.431 88.8424C436.656 88.8424 436.268 89.4567 436.268 89.9765ZM442.223 85.3456C441.93 85.3456 441.713 85.1094 441.713 84.8353C441.713 84.5612 441.93 84.3344 442.223 84.3344C442.516 84.3344 442.724 84.5612 442.724 84.8353C442.724 85.1094 442.516 85.3456 442.223 85.3456ZM442.223 86.1395C443.461 86.1395 444.142 87.3114 444.142 88.6628C444.142 91.016 443.291 91.6587 441.637 91.6587H439.936L439.776 91.6303L439.813 90.6664L439.974 90.638H441.656C442.611 90.638 443.357 90.4679 443.414 89.1543C443.168 89.5323 442.734 89.8725 441.959 89.8725C440.825 89.8725 440.267 89.1826 440.267 88.2375C440.267 87.0657 441.051 86.1395 442.223 86.1395ZM442.053 88.918C442.734 88.918 443.168 88.6534 443.386 88.3321C443.272 87.8217 442.904 87.1318 442.138 87.1318C441.382 87.1318 440.995 87.6705 440.995 88.1336C440.995 88.6345 441.411 88.918 442.053 88.918ZM450.608 90.638L450.769 90.6664L450.731 91.6303L450.57 91.6587C449.635 91.6587 449.228 91.2429 448.888 90.553C448.633 91.3185 447.971 91.7437 446.932 91.7437C445.108 91.7437 444.881 90.6853 444.947 89.5606L445.656 89.5228C445.609 90.5435 446.204 90.7136 447.036 90.7136C447.858 90.7136 448.415 90.4207 448.472 89.8725L447.092 86.9617L447.886 86.5931L449.323 89.589C449.672 90.3261 449.871 90.638 450.608 90.638ZM453.857 87.8028C454.887 87.8028 455.605 88.7006 455.605 89.8158C455.605 90.9404 454.84 91.6965 453.602 91.6965C452.714 91.6965 452.146 91.2712 451.948 90.8365C451.731 91.3657 451.201 91.6587 450.568 91.6587L450.408 91.6303L450.445 90.6664L450.606 90.638C451.041 90.638 451.513 90.5435 451.702 89.9387C452.033 88.54 452.808 87.8028 453.857 87.8028ZM453.706 90.6853C454.452 90.6853 454.878 90.3734 454.878 89.9103C454.878 89.296 454.396 88.814 453.753 88.814C453.054 88.814 452.562 89.3149 452.345 90.1182C452.515 90.4018 452.931 90.6853 453.706 90.6853Z" fill="#004956"/>
<path d="M496.373 93.6785L494.857 81.0188C494.452 77.6124 491.554 75.0368 488.117 75.0368H473.609C470.171 75.0368 467.273 77.6124 466.868 81.0188L465.352 93.6785C465.124 95.5998 465.726 97.5419 467.014 98.9958C468.302 100.45 470.15 101.281 472.092 101.281H489.633C491.575 101.281 493.424 100.45 494.712 98.9958C495.999 97.5419 496.602 95.6102 496.373 93.6785Z" fill="#BAF3E6"/>
<path d="M486.112 83.9578C487.077 83.9578 487.856 84.7367 487.856 85.7025V93.3981C487.856 94.3639 487.077 95.1428 486.112 95.1428H475.612C474.646 95.1428 473.867 94.3639 473.867 93.3981V85.7025C473.867 84.7367 474.646 83.9578 475.612 83.9578H477.357V82.9089C477.357 81.943 478.136 81.1641 479.101 81.1641H482.601C483.567 81.1641 484.346 81.943 484.346 82.9089V83.9578H486.091H486.112ZM481.085 90.2202C480.94 90.2617 480.794 90.2617 480.649 90.2202L475.269 88.4754V93.3981C475.269 93.5954 475.425 93.7512 475.622 93.7512H486.122C486.319 93.7512 486.475 93.5954 486.475 93.3981V88.4235L481.095 90.2202H481.085ZM480.857 88.8181L486.454 86.9488V85.7025C486.454 85.5052 486.298 85.3494 486.101 85.3494H475.602C475.404 85.3494 475.248 85.5052 475.248 85.7025V87.0007L480.846 88.8181H480.857ZM482.965 83.9578V82.9089C482.965 82.7115 482.809 82.5558 482.612 82.5558H479.112C478.914 82.5558 478.759 82.7115 478.759 82.9089V83.9578H482.954H482.965Z" fill="#004956"/>
<path d="M328.661 130.959L329.258 130.76C329.376 131.128 329.509 131.667 329.509 132.08C329.509 132.972 329 133.481 328.189 133.481C327.643 133.481 327.26 133.267 327.12 132.846C326.958 133.274 326.567 133.481 326.102 133.481H325.52C325.313 134.513 324.48 135.14 323.227 135.14C321.818 135.14 321.007 134.336 321.007 133.141C321.007 132.456 321.206 131.851 321.398 131.445L321.936 131.637C321.774 131.998 321.627 132.566 321.627 132.986C321.627 133.901 322.253 134.343 323.278 134.343C324.303 134.343 324.952 133.886 324.952 133.068C324.952 132.566 324.812 131.998 324.628 131.35L325.247 131.173C325.402 131.674 325.527 132.183 325.564 132.684H326.161C326.567 132.684 326.891 132.566 326.891 132.057V131.239H327.511V132.043C327.511 132.574 327.813 132.684 328.233 132.684C328.668 132.684 328.89 132.456 328.89 132.116C328.89 131.814 328.75 131.313 328.661 130.959ZM330.22 133.06C330.22 132.765 330.449 132.551 330.729 132.551C331.017 132.551 331.245 132.758 331.245 133.06C331.245 133.348 331.024 133.569 330.729 133.569C330.456 133.569 330.22 133.355 330.22 133.06ZM333.857 132.832C333.857 134.019 333.097 135.036 331.807 135.036C331.534 135.036 331.284 134.992 331.173 134.955L331.239 134.211C331.409 134.233 331.571 134.24 331.741 134.24C332.795 134.24 333.245 133.517 333.245 132.928C333.245 132.389 333.09 131.733 332.898 130.848L333.51 130.686C333.709 131.482 333.857 132.249 333.857 132.832ZM340.898 131.127H341.871V131.978H340.898V133.584H339.924V131.978H336.758V131.279L340.047 126.837H340.898V131.127ZM339.924 128.207L337.77 131.127H339.924V128.207ZM344.494 129.36C345.95 129.36 346.81 130.201 346.81 131.392C346.81 132.696 345.751 133.584 344.428 133.584C343.672 133.584 342.954 133.292 342.528 133.027L342.746 132.176C343.228 132.45 343.814 132.696 344.409 132.696C345.212 132.696 345.808 132.214 345.808 131.411C345.808 130.74 345.401 130.126 344.239 130.126C343.814 130.126 343.511 130.211 343.077 130.371L342.963 130.277L343.455 126.837H346.573V127.687H344.201L343.946 129.407C344.116 129.379 344.296 129.36 344.494 129.36ZM350.129 133.584C348.296 133.584 347.757 132.224 347.757 130.154C347.757 128.179 348.343 126.723 350.129 126.723C351.944 126.723 352.492 128.131 352.492 130.154C352.492 132.139 351.878 133.584 350.129 133.584ZM350.129 132.696C351.169 132.696 351.49 131.77 351.49 130.163C351.481 128.557 351.197 127.621 350.12 127.621C349.033 127.621 348.759 128.576 348.759 130.154C348.759 131.798 349.005 132.696 350.129 132.696Z" fill="#004956"/>
<path d="M390.173 129.369C391.213 129.369 391.95 130.267 391.95 131.373C391.95 132.535 391.232 133.301 389.909 133.301C389.03 133.301 388.472 132.876 388.236 132.413C387.225 132.611 387.017 132.724 387.017 133.15V136.278H386.204V133.178C386.204 132.157 386.573 131.761 388.066 131.392C388.397 130.04 389.153 129.369 390.173 129.369ZM389.994 132.28C390.788 132.28 391.213 131.968 391.213 131.515C391.213 130.872 390.721 130.381 390.069 130.381C389.361 130.381 388.888 130.872 388.68 131.675C388.86 131.987 389.275 132.28 389.994 132.28ZM398.641 132.46L398.802 132.488L398.755 133.452L398.594 133.481C397.791 133.481 397.195 133.188 397.006 132.507C396.713 133.169 396.052 133.481 395.182 133.481H392.442V132.46H394.672L393.5 128.198L394.303 127.942L395.513 132.45C396.25 132.413 396.723 132.195 396.723 131.401V126.78H397.536V131.42C397.536 132.318 397.951 132.46 398.641 132.46ZM399.528 129.284C399.273 129.284 399.056 129.077 399.056 128.812C399.056 128.557 399.273 128.339 399.528 128.339C399.793 128.339 400.001 128.557 400.001 128.812C400.001 129.077 399.802 129.284 399.528 129.284ZM400.766 129.284C400.492 129.284 400.294 129.077 400.294 128.812C400.294 128.557 400.492 128.339 400.766 128.339C401.022 128.339 401.239 128.557 401.239 128.812C401.239 129.077 401.022 129.284 400.766 129.284ZM401.664 132.46L401.825 132.488L401.787 133.452L401.626 133.481C400.833 133.481 400.256 133.188 400.067 132.545C399.888 133.121 399.358 133.481 398.602 133.481L398.442 133.452L398.479 132.488L398.64 132.46C399.321 132.46 399.755 132.328 399.755 131.439V130.088H400.549V131.42C400.549 132.318 400.908 132.46 401.664 132.46ZM407.839 130.248L408.604 129.993C408.765 130.466 408.935 131.156 408.935 131.685C408.935 132.828 408.273 133.481 407.243 133.481C406.506 133.481 406.033 133.178 405.863 132.611C405.665 133.197 405.164 133.481 404.54 133.481C403.869 133.481 403.349 133.206 403.151 132.621C402.981 133.206 402.499 133.481 401.629 133.481L401.469 133.452L401.507 132.488L401.667 132.46C402.48 132.46 402.858 132.309 402.858 131.6V130.608H403.652V131.619C403.652 132.309 404.049 132.46 404.635 132.46C405.164 132.46 405.58 132.309 405.58 131.619V130.608H406.374V131.619C406.374 132.309 406.742 132.46 407.29 132.46C407.848 132.46 408.141 132.167 408.141 131.732C408.141 131.345 407.961 130.702 407.839 130.248ZM413.469 130.485C413.933 130.91 414.273 131.401 414.273 131.921C414.273 132.98 413.536 133.481 412.326 133.481H409.831V132.507L412.25 130.626C411.494 130.059 410.606 129.426 409.283 128.528L409.746 127.753C411.069 128.708 412.137 129.455 412.95 130.059C413.262 129.748 413.309 129.511 413.309 129.086V126.78H414.122V128.67C414.122 129.502 414.018 129.984 413.469 130.485ZM410.871 132.46H412.383C413.044 132.46 413.545 132.365 413.545 131.959C413.545 131.609 413.233 131.326 412.799 131.004L410.871 132.46ZM410.464 135.059C410.464 135.21 410.644 135.333 410.965 135.333H411.646V135.89H409.897V135.361H410.171C410.096 135.267 410.058 135.134 410.058 134.974C410.058 134.567 410.351 134.161 410.88 134.161C411.192 134.161 411.457 134.341 411.56 134.539L411.315 134.945C411.22 134.87 411.088 134.766 410.889 134.766C410.672 134.766 410.464 134.879 410.464 135.059ZM416.294 133.481H415.482V126.78H416.294V133.481ZM425.259 132.46L425.42 132.488L425.382 133.452L425.221 133.481C424.286 133.481 423.879 133.065 423.539 132.375C423.284 133.14 422.622 133.566 421.583 133.566C419.759 133.566 419.532 132.507 419.598 131.382L420.307 131.345C420.26 132.365 420.855 132.535 421.687 132.535C422.509 132.535 423.066 132.242 423.123 131.694L421.743 128.784L422.537 128.415L423.974 131.411C424.323 132.148 424.522 132.46 425.259 132.46ZM426.769 129.275C426.467 129.275 426.249 129.039 426.249 128.765C426.249 128.481 426.467 128.245 426.769 128.245C427.062 128.245 427.279 128.481 427.279 128.765C427.279 129.039 427.062 129.275 426.769 129.275ZM428.281 132.46L428.442 132.488L428.404 133.452L428.243 133.481C427.45 133.481 426.873 133.188 426.684 132.545C426.504 133.121 425.975 133.481 425.219 133.481L425.059 133.452L425.096 132.488L425.257 132.46C425.937 132.46 426.372 132.328 426.372 131.439V130.088H427.166V131.42C427.166 132.318 427.525 132.46 428.281 132.46ZM431.11 132.46H433.047V133.481H428.246L428.086 133.424L428.114 132.535L428.284 132.46H429.409C429.069 132.176 428.87 131.751 428.87 131.184C428.87 130.126 429.655 129.077 430.959 129.077C431.875 129.077 432.452 129.672 432.679 130.031L432.206 130.711C431.932 130.447 431.478 130.097 430.883 130.097C430.137 130.097 429.626 130.617 429.626 131.241C429.626 132.053 430.382 132.46 431.11 132.46ZM438.295 132.885C437.104 133.443 436.613 133.811 436.613 134.397C436.613 134.917 437.142 135.456 438.512 135.456C439.693 135.456 440.648 135.106 440.922 134.983L441.083 135.872C440.799 136.013 439.864 136.467 438.427 136.467C436.887 136.467 435.866 135.739 435.866 134.52C435.866 133.386 436.688 132.781 437.718 132.28C437.265 131.798 436.65 131.137 436.386 130.825L436.442 129.833C436.594 129.691 437.473 129.095 438.673 129.095C439.845 129.095 440.544 129.653 440.544 130.504C440.544 131.26 440.034 131.789 439.089 132.365C439.429 132.45 439.939 132.46 440.865 132.46H441.083L441.243 132.488L441.196 133.452L441.035 133.481H440.837C439.363 133.481 438.833 133.414 438.295 132.885ZM439.807 130.693C439.807 130.343 439.306 130.088 438.597 130.088C437.973 130.088 437.397 130.286 437.066 130.466C437.473 130.91 438.134 131.609 438.455 131.94C439.363 131.477 439.807 131.071 439.807 130.693ZM443.334 127.167C443.041 127.167 442.824 126.931 442.824 126.657C442.824 126.383 443.041 126.156 443.334 126.156C443.627 126.156 443.835 126.383 443.835 126.657C443.835 126.931 443.627 127.167 443.334 127.167ZM443.334 127.961C444.572 127.961 445.253 129.133 445.253 130.485C445.253 132.838 444.402 133.481 442.748 133.481H441.047L440.887 133.452L440.924 132.488L441.085 132.46H442.767C443.722 132.46 444.468 132.29 444.525 130.976C444.279 131.354 443.845 131.694 443.07 131.694C441.936 131.694 441.378 131.004 441.378 130.059C441.378 128.888 442.162 127.961 443.334 127.961ZM443.164 130.74C443.845 130.74 444.279 130.475 444.497 130.154C444.383 129.644 444.015 128.954 443.249 128.954C442.493 128.954 442.106 129.492 442.106 129.955C442.106 130.456 442.522 130.74 443.164 130.74ZM451.719 132.46L451.88 132.488L451.842 133.452L451.681 133.481C450.746 133.481 450.339 133.065 449.999 132.375C449.744 133.14 449.082 133.566 448.043 133.566C446.219 133.566 445.992 132.507 446.058 131.382L446.767 131.345C446.72 132.365 447.315 132.535 448.147 132.535C448.969 132.535 449.526 132.242 449.583 131.694L448.203 128.784L448.997 128.415L450.434 131.411C450.783 132.148 450.982 132.46 451.719 132.46ZM452.804 126.78H453.617V131.458C453.617 132.895 452.776 133.481 451.679 133.481L451.519 133.452L451.556 132.488L451.717 132.46C452.379 132.46 452.804 132.318 452.804 131.553V126.78ZM455.851 133.481H455.038V126.78H455.851V133.481Z" fill="#004956"/>
<path d="M496.373 135.5L494.857 122.841C494.452 119.434 491.554 116.859 488.117 116.859H473.609C470.171 116.859 467.273 119.434 466.868 122.841L465.352 135.5C465.124 137.422 465.726 139.364 467.014 140.818C468.302 142.272 470.15 143.102 472.092 143.102H489.633C491.575 143.102 493.424 142.272 494.712 140.818C495.999 139.364 496.602 137.432 496.373 135.5Z" fill="#BAF3E6"/>
<path d="M487.368 136.196L486.538 125.977C486.517 125.697 486.278 125.479 485.998 125.479H484.377V125.344C484.377 123.599 482.965 122.176 481.21 122.176C479.455 122.176 478.042 123.588 478.042 125.344V125.479H476.422C476.142 125.479 475.903 125.697 475.882 125.977L475.051 136.196C474.989 136.996 475.581 137.692 476.381 137.754C476.422 137.754 476.453 137.754 476.495 137.754H485.914C486.714 137.754 487.368 137.11 487.368 136.31C487.368 136.269 487.368 136.227 487.368 136.196ZM479.133 125.354C479.133 124.212 480.067 123.277 481.21 123.277C482.352 123.277 483.287 124.212 483.287 125.354V125.489H479.133V125.354ZM486.184 136.56C486.112 136.632 486.018 136.674 485.914 136.674H476.495C476.298 136.674 476.131 136.508 476.131 136.31C476.131 136.31 476.131 136.29 476.131 136.279L476.921 126.559H478.042V129.248C478.042 129.55 478.281 129.788 478.582 129.788C478.884 129.788 479.122 129.55 479.122 129.248V126.559H483.277V129.248C483.277 129.55 483.515 129.788 483.817 129.788C484.118 129.788 484.357 129.55 484.357 129.248V126.559H485.478L486.268 136.279C486.268 136.383 486.247 136.477 486.174 136.549L486.184 136.56Z" fill="#004956"/>
</g>
<g filter="url(#filter1_d_6701_3666)">
<path d="M62.8252 70.8654L241.079 70.8654C246.815 70.8654 251.465 66.2157 251.465 60.48V35.0774C251.465 29.3417 246.815 24.6921 241.079 24.6921L62.8252 24.6921C57.0896 24.6921 52.4399 29.3417 52.4399 35.0774V60.48C52.4399 66.2157 57.0896 70.8654 62.8252 70.8654Z" fill="white"/>
</g>
<path d="M75.2693 49.4285L75.9993 49.1778C76.1321 49.5538 76.2574 50.0921 76.2574 50.4977C76.2574 51.4784 75.7265 52.0314 74.8638 52.0314C74.3181 52.0314 73.92 51.8102 73.7651 51.3751C73.6103 51.8175 73.2269 52.0314 72.7623 52.0314H72.2314C71.9955 53.0637 71.1696 53.6904 69.894 53.6904C68.4414 53.6904 67.6155 52.8646 67.6155 51.6258C67.6155 50.9106 67.8146 50.2838 68.0211 49.8635L68.6847 50.0995C68.5299 50.4534 68.3898 51.0064 68.3898 51.412C68.3898 52.2747 68.9723 52.6876 69.9456 52.6876C70.9263 52.6876 71.5309 52.2673 71.5309 51.5078C71.5309 51.0064 71.3835 50.446 71.2065 49.7898L71.9733 49.5833C72.1134 50.0626 72.2388 50.5493 72.283 51.0286H72.8361C73.2121 51.0286 73.4923 50.9327 73.4923 50.4903V49.635H74.2592V50.4608C74.2592 50.9401 74.5246 51.0286 74.9007 51.0286C75.2915 51.0286 75.4905 50.8221 75.4905 50.5124C75.4905 50.2322 75.3578 49.7603 75.2693 49.4285ZM76.9077 51.5521C76.9077 51.2055 77.1731 50.9696 77.5049 50.9696C77.8367 50.9696 78.1022 51.1982 78.1022 51.5521C78.1022 51.8913 77.8441 52.1346 77.5049 52.1346C77.1952 52.1346 76.9077 51.906 76.9077 51.5521ZM80.8282 51.2719C80.8282 52.5623 80.0466 53.5872 78.7857 53.5872C78.4612 53.5872 78.1884 53.5282 78.0704 53.4913L78.1368 52.5623C78.3138 52.5844 78.476 52.5918 78.6456 52.5918C79.641 52.5918 80.0687 51.9503 80.0687 51.3751C80.0687 50.8442 79.8917 50.1585 79.7 49.3179L80.4595 49.1041C80.6586 49.8193 80.8282 50.6525 80.8282 51.2719ZM86.4377 45.3875V52.0314H85.2374V46.739L83.8765 47.5801L83.3756 46.7012L85.4642 45.3875H86.4377ZM90.2093 52.1448C88.3192 52.1448 87.6765 50.7933 87.6765 48.7236C87.6765 46.7106 88.357 45.2552 90.2187 45.2552C92.09 45.2552 92.7421 46.6823 92.7421 48.7236C92.7421 50.7366 92.0427 52.1448 90.2093 52.1448ZM90.2093 51.0485C91.1827 51.0485 91.4851 50.1885 91.4757 48.7142C91.4757 47.2493 91.2016 46.3799 90.1998 46.3799C89.1981 46.3799 88.9334 47.2588 88.9334 48.7047C88.9334 50.2074 89.1697 51.0485 90.2093 51.0485ZM96.2175 52.1448C94.3273 52.1448 93.6847 50.7933 93.6847 48.7236C93.6847 46.7106 94.3652 45.2552 96.2269 45.2552C98.0982 45.2552 98.7503 46.6823 98.7503 48.7236C98.7503 50.7366 98.0509 52.1448 96.2175 52.1448ZM96.2175 51.0485C97.1909 51.0485 97.4933 50.1885 97.4839 48.7142C97.4839 47.2493 97.2098 46.3799 96.208 46.3799C95.2063 46.3799 94.9416 47.2588 94.9416 48.7047C94.9416 50.2074 95.1779 51.0485 96.2175 51.0485ZM100.18 53.156H99.3485L99.6415 50.6138H100.842L100.18 53.156ZM104.09 52.1448C102.2 52.1448 101.557 50.7933 101.557 48.7236C101.557 46.7106 102.238 45.2552 104.099 45.2552C105.971 45.2552 106.623 46.6823 106.623 48.7236C106.623 50.7366 105.923 52.1448 104.09 52.1448ZM104.09 51.0485C105.063 51.0485 105.366 50.1885 105.356 48.7142C105.356 47.2493 105.082 46.3799 104.081 46.3799C103.079 46.3799 102.814 47.2588 102.814 48.7047C102.814 50.2074 103.05 51.0485 104.09 51.0485ZM110.098 52.1448C108.208 52.1448 107.565 50.7933 107.565 48.7236C107.565 46.7106 108.246 45.2552 110.108 45.2552C111.979 45.2552 112.631 46.6823 112.631 48.7236C112.631 50.7366 111.932 52.1448 110.098 52.1448ZM110.098 51.0485C111.072 51.0485 111.374 50.1885 111.365 48.7142C111.365 47.2493 111.09 46.3799 110.089 46.3799C109.087 46.3799 108.822 47.2588 108.822 48.7047C108.822 50.2074 109.059 51.0485 110.098 51.0485ZM116.106 52.1448C114.216 52.1448 113.574 50.7933 113.574 48.7236C113.574 46.7106 114.254 45.2552 116.116 45.2552C117.987 45.2552 118.639 46.6823 118.639 48.7236C118.639 50.7366 117.94 52.1448 116.106 52.1448ZM116.106 51.0485C117.08 51.0485 117.382 50.1885 117.373 48.7142C117.373 47.2493 117.099 46.3799 116.097 46.3799C115.095 46.3799 114.831 47.2588 114.831 48.7047C114.831 50.2074 115.067 51.0485 116.106 51.0485Z" fill="#004956"/>
<path d="M240.048 53.6985L238.459 40.4156C238.033 36.8431 234.99 34.1429 231.386 34.1429H216.172C212.568 34.1429 209.525 36.8431 209.099 40.4156L207.51 53.6985C207.272 55.7237 207.905 57.7488 209.255 59.2754C210.605 60.8021 212.547 61.6745 214.583 61.6745H232.986C235.021 61.6745 236.963 60.8021 238.313 59.2754C239.663 57.7488 240.297 55.7237 240.058 53.6985H240.048Z" fill="#F1F2F6"/>
<path d="M232.873 48.7344H214.449V54.8721H232.873V48.7344Z" fill="#80A92C"/>
<path d="M232.873 40.3533H214.449V46.5014H232.873V40.3533Z" fill="#0689CD"/>
<path d="M193.681 53.6258L193.598 53.6466C193.318 53.6985 193.214 53.7193 193.006 53.7193C192.528 53.7193 191.957 53.47 191.957 52.3172C191.957 51.7253 192.051 50.9256 192.954 50.9256C193.11 50.936 193.287 50.9568 193.609 51.0502L193.681 51.071V53.6258ZM193.827 47.8411L193.681 47.8723V50.0221L193.546 49.9805H193.505C193.359 49.9286 193.017 49.8247 192.684 49.8247C190.888 49.8247 190.514 51.1852 190.514 52.3172C190.514 53.875 191.386 54.7786 192.913 54.7786C193.557 54.7786 194.034 54.7163 194.512 54.5501C194.959 54.4047 195.114 54.2074 195.114 53.7712V47.6127C194.689 47.6854 194.242 47.7684 193.816 47.8411" fill="#27292D"/>
<path d="M199.006 53.6673L198.934 53.688L198.664 53.7607C198.404 53.823 198.175 53.8646 197.999 53.8646C197.573 53.8646 197.324 53.6569 197.324 53.3038C197.324 53.0753 197.428 52.6806 198.113 52.6806H199.006V53.6673ZM198.383 49.7935C197.833 49.7935 197.262 49.887 196.555 50.1155L196.098 50.2505L196.254 51.289L196.701 51.1436C197.168 50.9878 197.76 50.8944 198.196 50.8944C198.394 50.8944 198.996 50.8944 198.996 51.5486V51.829H198.155C196.628 51.829 195.922 52.3172 195.922 53.3661C195.922 54.2592 196.576 54.7993 197.667 54.7993C198.009 54.7993 198.477 54.7369 198.882 54.6331H198.902H198.923L199.058 54.6539C199.484 54.7266 199.931 54.8096 200.356 54.8927V51.4759C200.356 50.3751 199.692 49.8039 198.373 49.8039" fill="#27292D"/>
<path d="M188.383 53.6674L188.311 53.6882L188.041 53.7609C187.781 53.8232 187.563 53.8648 187.376 53.8648C186.95 53.8648 186.701 53.6571 186.701 53.304C186.701 53.0755 186.805 52.6808 187.49 52.6808H188.383V53.6674ZM187.76 49.7937C187.199 49.7937 186.639 49.8872 185.932 50.1156L185.475 50.2507L185.631 51.2892L186.078 51.1438C186.545 50.988 187.137 50.8946 187.573 50.8946C187.771 50.8946 188.373 50.8945 188.373 51.5488V51.8292H187.532C186.005 51.8292 185.299 52.3173 185.299 53.3663C185.299 54.2594 185.953 54.7994 187.054 54.7994C187.397 54.7994 187.864 54.7371 188.269 54.6333H188.29H188.311L188.446 54.654C188.882 54.7267 189.318 54.8098 189.744 54.8929V51.4761C189.744 50.3649 189.079 49.8041 187.771 49.8041" fill="#27292D"/>
<path d="M182.619 49.804C181.923 49.804 181.352 50.0324 181.134 50.1363L181.082 50.1674L181.03 50.1259C180.739 49.9078 180.303 49.804 179.7 49.804C179.171 49.804 178.672 49.8767 178.132 50.0428C177.665 50.1882 177.488 50.4063 177.488 50.8321V54.737H178.942V51.1333L179.015 51.1125C179.306 51.019 179.482 50.9983 179.659 50.9983C180.085 50.9983 180.292 51.2267 180.292 51.6629V54.7474H181.726V51.6006C181.726 51.4137 181.684 51.3098 181.684 51.2787L181.632 51.1852L181.726 51.1437C181.944 51.0502 182.182 50.9983 182.432 50.9983C182.723 50.9983 183.065 51.1125 183.065 51.6629V54.7474H184.498V51.5175C184.498 50.3752 183.886 49.8247 182.619 49.8247" fill="#27292D"/>
<path d="M197.938 44.362C197.72 44.362 197.367 44.3413 197.086 44.2893L197.003 44.2686V42.1603C197.003 41.9838 196.972 41.8799 196.962 41.8592L196.92 41.7761L197.014 41.7345C197.014 41.7345 197.055 41.7138 197.086 41.7034H197.107C197.107 41.7034 197.169 41.6722 197.201 41.6618C197.221 41.6618 197.232 41.6514 197.242 41.6514C197.564 41.5684 197.865 41.5787 197.99 41.5684C198.883 41.5684 198.987 42.3577 198.987 42.96C198.987 44.1232 198.405 44.362 197.928 44.362M197.928 40.3533H197.886C197.045 40.3533 196.193 40.5818 195.882 41.0283C195.716 41.2464 195.622 41.5164 195.622 41.8488V44.0193C195.622 44.2062 195.581 44.2789 195.581 44.2893L195.529 44.3828H192.891V42.8769C192.86 41.288 191.914 40.4052 190.554 40.4052H189.225C189.173 40.7895 189.131 41.0699 189.069 41.4541H190.388C191.084 41.4541 191.447 42.0461 191.447 42.9496V44.4659L191.354 44.414C191.354 44.414 191.219 44.3724 191.042 44.3724H188.757C188.716 44.6632 188.664 45.0371 188.602 45.4213H195.632C195.871 45.3694 196.152 45.3279 196.391 45.2863C196.744 45.4629 197.408 45.5563 197.865 45.5563C199.392 45.5563 200.379 44.5282 200.379 42.96C200.379 41.4022 199.413 40.3741 197.928 40.3429" fill="#27292D"/>
<path d="M185.6 46.0757H185.662C187.189 46.0757 187.895 45.5772 187.895 44.3309C187.895 43.4378 187.241 42.7316 186.15 42.7316H184.748C184.322 42.7316 184.073 42.4927 184.073 42.0877C184.073 41.8177 184.177 41.4749 184.863 41.4749H187.937C187.999 41.0803 188.03 40.8207 188.092 40.426H184.894C183.409 40.426 182.661 41.0491 182.661 42.0877C182.661 43.1262 183.315 43.6559 184.406 43.6559H185.808C186.233 43.6559 186.483 43.9882 186.483 44.3413C186.483 44.5698 186.379 45.0475 185.693 45.0475H180.958L180.137 45.0371C179.441 45.0371 178.953 44.6425 178.953 43.7286V43.0951C178.953 42.1396 179.327 41.5476 180.137 41.5476H181.477C181.539 41.1426 181.57 40.883 181.633 40.4987H179.815C178.455 40.4987 177.51 41.4126 177.479 43.0016V43.7078C177.51 45.2968 178.455 46.0653 179.815 46.0653H183.585H185.039H185.6V46.0757Z" fill="#27292D"/>
<path d="M49.8184 144.518V132.586H51.8435V133.541C52.4562 132.773 53.3701 132.357 54.5022 132.357C56.8285 132.357 58.5005 134.216 58.5005 136.875C58.5005 139.534 56.8181 141.424 54.5022 141.424C53.3598 141.424 52.4562 140.987 51.8435 140.219V144.518H49.8184ZM51.8435 135.774V137.976C52.2693 138.869 53.0378 139.513 54.1491 139.513C55.4888 139.513 56.3923 138.516 56.3923 136.864C56.3923 135.213 55.4888 134.247 54.1491 134.247C53.0378 134.258 52.2693 134.86 51.8435 135.774Z" fill="#00CCB3"/>
<path d="M59.8092 138.723C59.8092 137.269 60.7127 136.262 62.2082 136.075L65.6458 135.639V135.213C65.6458 134.694 65.3861 134.424 64.898 134.424H60.5777V132.586H64.9707C66.7155 132.586 67.6709 133.448 67.6709 134.964V141.174H65.625V140.125C65.033 140.956 64.0568 141.434 62.7898 141.434C61.0035 141.434 59.7988 140.344 59.7988 138.734M63.2987 139.783C64.3372 139.783 65.2927 139.201 65.6354 138.339V137.259L63.0079 137.623C62.2809 137.726 61.8759 138.111 61.8759 138.734C61.8759 139.409 62.3952 139.783 63.2987 139.783Z" fill="#00CCB3"/>
<path d="M69.1544 142.68H70.6291C71.1899 142.68 71.4392 142.452 71.6261 141.922L71.8858 141.164L68.7598 132.575H70.868L72.8101 138.557H72.8516L74.7106 132.575H76.7877L73.3709 142.441C72.9139 143.791 72.2908 144.518 70.7849 144.518H69.1336V142.68H69.1544Z" fill="#00CCB3"/>
<path d="M7.42491 150.417C9.78239 150.417 11.7141 149.68 12.9915 148.444C13.9469 147.499 14.5077 146.222 14.5077 144.747C14.5077 143.418 14.0092 142.223 13.0953 141.309C12.1814 140.395 10.8728 139.731 9.22158 139.409L6.52138 138.879C5.39977 138.671 4.76626 138.111 4.76626 137.332C4.76626 136.314 5.75287 135.608 7.34183 135.608C8.32844 135.608 9.18003 135.93 9.74084 136.49C10.0939 136.875 10.3328 137.373 10.4159 137.934L14.3208 137.051C14.2065 135.93 13.6873 134.943 12.8772 134.123C11.5894 132.856 9.62661 132.056 7.30029 132.056C5.1609 132.056 3.36424 132.762 2.11799 133.884C1.05869 134.87 0.466721 136.2 0.466721 137.685C0.466721 138.983 0.882136 140.084 1.73373 140.915C2.58533 141.766 3.81081 142.389 5.43092 142.784L8.09996 143.418C9.43967 143.739 10.0316 144.228 10.0316 145.11C10.0316 146.201 9.04502 146.834 7.42491 146.834C6.26175 146.834 5.31668 146.45 4.72472 145.817C4.3093 145.401 4.04967 144.83 4.01851 144.196L0.00976562 145.079C0.124005 146.273 0.684814 147.333 1.52603 148.184C2.85535 149.576 5.01551 150.417 7.43529 150.417M37.127 150.417C39.7338 150.417 41.7381 149.472 43.109 148.132C44.1995 147.073 44.8641 145.848 45.2172 144.581L41.1046 143.21C40.9281 143.843 40.575 144.518 40.0142 145.038C39.3391 145.671 38.4356 146.128 37.127 146.128C35.9327 146.128 34.8111 145.671 33.9907 144.861C33.1806 144.009 32.6821 142.784 32.6821 141.237C32.6821 139.689 33.1806 138.453 33.9907 137.612C34.7903 136.802 35.8912 136.376 37.0959 136.376C38.3629 136.376 39.2353 136.792 39.8792 137.436C40.4088 137.965 40.7307 138.63 40.9385 139.305L45.1238 137.893C44.8018 136.657 44.1371 135.431 43.1505 134.403C41.7381 133.032 39.7026 132.046 36.992 132.046C34.4995 132.046 32.2459 132.991 30.6258 134.621C29.0057 136.272 28.0191 138.568 28.0191 141.237C28.0191 143.906 29.0368 146.19 30.6881 147.852C32.2978 149.472 34.5826 150.417 37.1166 150.417M22.9095 150.417C24.7373 150.417 26.0459 149.856 26.6067 149.358V145.557C26.1809 145.879 25.3396 146.263 24.2388 146.263C23.4599 146.263 22.8991 146.087 22.4837 145.702C22.1306 145.349 21.954 144.747 21.954 143.947V127.839H17.3014V132.586H26.5963V137.093H17.3014V145.09C17.3014 146.71 17.7999 148.018 18.6722 148.922C19.6589 149.888 21.1128 150.417 22.9095 150.417Z" fill="#4B2F7F"/>
<defs>
<filter id="filter0_d_6701_3666" x="275.212" y="0.110048" width="262.75" height="189.726" filterUnits="userSpaceOnUse" color-interpolation-filters="sRGB">
<feFlood flood-opacity="0" result="BackgroundImageFix"/>
<feColorMatrix in="SourceAlpha" type="matrix" values="0 0 0 0 0 0 0 0 0 0 0 0 0 0 0 0 0 0 127 0" result="hardAlpha"/>
<feOffset dy="5.19268"/>
<feGaussianBlur stdDeviation="12.4624"/>
<feComposite in2="hardAlpha" operator="out"/>
<feColorMatrix type="matrix" values="0 0 0 0 0 0 0 0 0 0 0 0 0 0 0 0 0 0 0.08 0"/>
<feBlend mode="normal" in2="BackgroundImageFix" result="effect1_dropShadow_6701_3666"/>
<feBlend mode="normal" in="SourceGraphic" in2="effect1_dropShadow_6701_3666" result="shape"/>
</filter>
<filter id="filter1_d_6701_3666" x="27.5146" y="4.9599" width="248.875" height="96.023" filterUnits="userSpaceOnUse" color-interpolation-filters="sRGB">
<feFlood flood-opacity="0" result="BackgroundImageFix"/>
<feColorMatrix in="SourceAlpha" type="matrix" values="0 0 0 0 0 0 0 0 0 0 0 0 0 0 0 0 0 0 127 0" result="hardAlpha"/>
<feOffset dy="5.19268"/>
<feGaussianBlur stdDeviation="12.4624"/>
<feComposite in2="hardAlpha" operator="out"/>
<feColorMatrix type="matrix" values="0 0 0 0 0 0 0 0 0 0 0 0 0 0 0 0 0 0 0.08 0"/>
<feBlend mode="normal" in2="BackgroundImageFix" result="effect1_dropShadow_6701_3666"/>
<feBlend mode="normal" in="SourceGraphic" in2="effect1_dropShadow_6701_3666" result="shape"/>
</filter>
</defs>
</svg>
