<svg xmlns="http://www.w3.org/2000/svg" viewBox="0 0 287.16 128.38"><defs><style>.cls-1{fill:#003159;}.cls-2,.cls-3{fill:#4f46e5;}.cls-3{font-size:59px;font-family:IBMPlexSansArabic-Regular, IBM Plex Sans Arabic;}</style></defs><title>Asset11</title><g id="Layer_2" data-name="Layer 2"><g id="Layer_1-2" data-name="Layer 1"><g id="Layer_2-2" data-name="Layer 2"><g id="OBJECTS"><path class="cls-1" d="M227.55,118.23a7.84,7.84,0,0,0-7.45-5.51,4.71,4.71,0,0,0-.75,0,8,8,0,0,0-5.87,3.56,7.38,7.38,0,0,0-1.22,4,7.85,7.85,0,0,0,7.82,8.11q.38,0,.75,0a7.83,7.83,0,0,0,7.08-8v-.56A8.32,8.32,0,0,0,227.55,118.23Z"/><path class="cls-1" d="M269.32,110.57a8,8,0,0,0-1.91-1.17,7.76,7.76,0,0,0-2.77-.58h-.26c-.25,0-.51,0-.75,0a7.8,7.8,0,0,0-6,3.89,7.64,7.64,0,0,0-.95,2.66,8.13,8.13,0,0,0-.06,2,.69.69,0,0,0,0,.25,7.83,7.83,0,0,0,7.75,6.84,6.28,6.28,0,0,0,.75,0,7.82,7.82,0,0,0,4.2-13.84Z"/><path class="cls-1" d="M198.92,69.88l-1.36-14.3a13.45,13.45,0,0,0-13.32-12.13,9.21,9.21,0,0,0-1.28.06l-12.78,1.22a6.2,6.2,0,0,0-4.86,9,6,6,0,0,0,5.44,3.29,5.82,5.82,0,0,0,.59,0l12.78-1.22h.1a1,1,0,0,1,1.06,1l1.37,14.29A49.34,49.34,0,0,0,188,78.79a6.59,6.59,0,0,1,2.75-1.68l8.9-2.75A39.74,39.74,0,0,1,198.92,69.88Z"/><path class="cls-1" d="M286.93,61.79l-.7-7.4a6.17,6.17,0,0,0-6.15-5.59h-.59a6.17,6.17,0,0,0-5.57,6.73h0l.71,7.4c.1,1.07.14,2.13.15,3.16a38,38,0,0,1-34.4,38.3c-1.22.12-2.43.17-3.63.17A37.53,37.53,0,0,1,223.06,102,38.25,38.25,0,0,1,212,95.33l-1.06,3a6.53,6.53,0,0,1-12.25.22l-2.17-5.67L192.71,91a50.82,50.82,0,0,0,20.38,20,11.81,11.81,0,0,1,6-2.35,10.88,10.88,0,0,1,1.14-.06h0a11.88,11.88,0,0,1,11.29,8.08c1.72.18,3.45.27,5.17.28s3.2-.08,4.82-.23a50.13,50.13,0,0,0,11-2.33,11.92,11.92,0,0,1,10.65-10c.38,0,.76,0,1.14,0h0a11.94,11.94,0,0,1,4.57.91A50.35,50.35,0,0,0,286.93,61.79Z"/><path class="cls-2" d="M212,74.1a3,3,0,0,0-.84.13l-18.48,5.71a2.8,2.8,0,0,0-.45,5.17l7.09,3.59a2.79,2.79,0,0,1,1.35,1.48l2.34,6a2.8,2.8,0,0,0,5.26-.1l6.36-18.28a2.8,2.8,0,0,0-1.72-3.57A3.11,3.11,0,0,0,212,74.1Z"/><path class="cls-2" d="M262.26,73.48a5.78,5.78,0,0,0-4.59-1.14,5.23,5.23,0,0,0-3.42,2.45,57.71,57.71,0,0,1-5.73,7.45,14.5,14.5,0,0,1-8,4.08q-17,2.85-20.69-19.42c4.12-.29,7.62-.67,10.5-1.16a117.72,117.72,0,0,0,22.39-6.61q9.75-3.75,11.41-5.39c2.49-2.44,3.39-5.71,2.73-9.8q-2-12.12-11-18.69T235.2,20.66q-15.06,2.54-22.95,18.13-6.92,13.73-4.09,30.56c.2,1.2.42,2.36.67,3.48l5.37-1.66a2.79,2.79,0,0,1,3.48,3.59L213.75,86q8.66,14.52,28.13,11.25,13.63-2.3,21.93-15.11a6.09,6.09,0,0,0,1-4.42A6.36,6.36,0,0,0,262.26,73.48ZM225.52,39a19.48,19.48,0,0,1,12.61-7.76,12.45,12.45,0,0,1,10.65,3.13q4.72,4.13,6.46,12.28-15.59,6.63-27,8.55a80.21,80.21,0,0,1-9,1Q220.45,45.55,225.52,39Z"/></g></g><path class="cls-2" d="M9,125.44a15.24,15.24,0,0,1-5.05-.89A8,8,0,0,1,0,121.84a123.5,123.5,0,0,0,11.89-16.39A82.55,82.55,0,0,0,18.8,91.24a51.49,51.49,0,0,0,2.82-11.4A48.62,48.62,0,0,0,22,74.27c0-1-.08-2.26-.24-3.82a19.06,19.06,0,0,0-.86-4.16l-.24-.54a15.53,15.53,0,0,1,2-.08,11,11,0,0,1,7.85,3.6q4.13,3.95,4.12,12.89a54.51,54.51,0,0,1-3.27,17,93.84,93.84,0,0,1-10.42,20.71A12.06,12.06,0,0,1,13.34,125,21.32,21.32,0,0,1,9,125.44Z"/><path class="cls-2" d="M49.33,50.34q.39,0,4.16,3.41a86.75,86.75,0,0,0,12.59,7.59,109,109,0,0,0,14.21,5A69.36,69.36,0,0,0,93,68.15q6.66.34,5.68,8.32t-5.5,7q-4.67,0-12.24,5.46A124.09,124.09,0,0,1,66.48,98a33.35,33.35,0,0,1-23.08,2Q31.48,96.8,25.88,86.63T29.1,82.3q8.81,5.82,22.74,5.83,9.57,0,28.06-11.81a93.79,93.79,0,0,1-27.28-4.53Q46.55,69,45.91,66.68A11.15,11.15,0,0,1,45.33,63v-.77q0-9.45,3-11.7ZM72,102.76a28.65,28.65,0,0,0,7.87,1.76c2.37.14,3.86-.07,4.49-.64a11.54,11.54,0,0,1,.55,1.86,14.15,14.15,0,0,1,.43,3.93,6.16,6.16,0,0,1-.59,3A5.33,5.33,0,0,1,80,114.6a16.59,16.59,0,0,1-5.75-1.31,9,9,0,0,1-1.08-3,21.85,21.85,0,0,1-.47-3.91,18.34,18.34,0,0,1,0-2.67C72.8,103.23,72.55,102.91,72,102.76Z"/><path class="cls-2" d="M101.32,101.36h-.51A8.9,8.9,0,0,1,98.3,101a8,8,0,0,1-1.8-.74l-.75-.46a23.53,23.53,0,0,1-6.3-6.51,24.1,24.1,0,0,1-3.16-7,16.28,16.28,0,0,1-.51-3.64,6.79,6.79,0,0,1,.16-1.51c.19-.7.47-1.05.86-1.05.08,0,.1,0,0,0a20.9,20.9,0,0,1,1.69,2.25A44.25,44.25,0,0,0,92.22,87a13.3,13.3,0,0,0,5.18,3.64,7,7,0,0,0,2.67.5,10.31,10.31,0,0,0,4.35-1.08c1.91-1.06,3.26-3,4-6a33.12,33.12,0,0,0,.94-8.13q0-.51-.06-3.27a36.39,36.39,0,0,0-1.1-7.18c-.69-2.94-1.39-4.83-2.1-5.65a15,15,0,0,1,8.24-2.48A8.33,8.33,0,0,1,122.71,63a24.06,24.06,0,0,1,1.14,7.7v1.94q0,3.87-.26,8.17t-.25,8.36c0,.9,0,2.49.06,4.76a17.15,17.15,0,0,0,1.12,6.08,30.88,30.88,0,0,1-3.46.15q-8.24,0-11.14-3.79C106.78,99.58,103.92,101.24,101.32,101.36ZM111.25,53a28.94,28.94,0,0,0-7.87-1.76c-2.36-.14-3.86.07-4.49.64,0,0-.2-.64-.53-1.86a13.67,13.67,0,0,1-.45-3.91,5.92,5.92,0,0,1,.63-3,5.29,5.29,0,0,1,4.71-2A16.64,16.64,0,0,1,109,42.44a8.75,8.75,0,0,1,1.12,3,22.56,22.56,0,0,1,.47,3.91,16.3,16.3,0,0,1-.06,2.67C110.43,52.5,110.68,52.82,111.25,53Zm15.62,0H127a25.64,25.64,0,0,0-8.63-1.75q-2.83,0-3.57.66s-.2-.59-.52-1.7a15.4,15.4,0,0,1-.47-3.83c0-.11,0-.53,0-1.26a4,4,0,0,1,.57-2,5.1,5.1,0,0,1,4.16-1.93c.13,0,.77,0,1.91.08a13.45,13.45,0,0,1,4.41,1.23,8.89,8.89,0,0,1,1.14,3,25.23,25.23,0,0,1,.47,5,11.24,11.24,0,0,1-.16,2.09C126.3,52.79,126.48,52.94,126.87,52.94Z"/><path class="cls-2" d="M133.54,39.5a4.08,4.08,0,0,1-.55-2.28c0-.13,0-.47.08-1s.62-1.06,1.69-1.55a56.65,56.65,0,0,1,6-1c-4.42-1.22-7.07-2.13-8-2.75a3.44,3.44,0,0,1-1.53-3,3.79,3.79,0,0,1,2.39-3.6,11,11,0,0,1,3.22-.43,17.26,17.26,0,0,1,1.84.1c.66.06,1.31.1,2,.1s1.76-.06,2.94-.18a4.69,4.69,0,0,0,2.63-.91,3.94,3.94,0,0,1,.59,2.32c0,.11,0,.42-.08,1s-.62,1-1.69,1.53a7.66,7.66,0,0,1-2.75.47,24.38,24.38,0,0,1-3.14-.2C138.29,28,137.56,28,137,28c-1.47,0-2.2.51-2.2,1.55v.23a4.77,4.77,0,0,0,3.45,3.33,20.3,20.3,0,0,0,6.36.93,17,17,0,0,0,3.89-.28V34.9a12,12,0,0,1-.12,1.56,1.86,1.86,0,0,1-.55,1.26,4.65,4.65,0,0,1-2.32.62c-.65,0-1.36.08-2.12.08l-1.53,0-1.25,0a39,39,0,0,0-4,.23A6.12,6.12,0,0,0,133.54,39.5Zm4.63,61.9q-.15-15.09-.94-19.18t-1.8-8.34q-1.58-6.51-2.51-12.87a34.46,34.46,0,0,1,.19-12c.31-1,1.75-2,4.3-2.85a27.42,27.42,0,0,1,7.67-1.53,54.21,54.21,0,0,0,.2,16q1.29,9.18,3.21,17.53,1.26,5.82,2,10.28a21,21,0,0,1,.27,6.91,5.57,5.57,0,0,1-3.24,4.26Q144.73,101.1,138.17,101.4Z"/><text class="cls-3" transform="translate(85.69 50.09)">ّ</text></g></g></svg>