<?xml version="1.0" encoding="utf-8"?>
<!-- Generator: Adobe Illustrator 24.0.1, SVG Export Plug-In . SVG Version: 6.00 Build 0)  -->
<svg version="1.1" id="Layer_1" xmlns="http://www.w3.org/2000/svg" xmlns:xlink="http://www.w3.org/1999/xlink" x="0px" y="0px"
	 viewBox="0 0 1132.3 904.5" style="enable-background:new 0 0 1132.3 904.5;" xml:space="preserve">
<style type="text/css">
	.st0{filter:url(#Adobe_OpacityMaskFilter);}
	.st1{fill-rule:evenodd;clip-rule:evenodd;fill:#FFFFFF;}
	.st2{mask:url(#mask-2_4_);}
	.st3{fill-rule:evenodd;clip-rule:evenodd;fill:url(#SVGID_1_);}
	.st4{fill-rule:evenodd;clip-rule:evenodd;fill:url(#SVGID_2_);}
	.st5{filter:url(#Adobe_OpacityMaskFilter_1_);}
	.st6{mask:url(#mask-13_1_);fill-rule:evenodd;clip-rule:evenodd;fill:#96A5FF;}
	.st7{filter:url(#Adobe_OpacityMaskFilter_2_);}
	.st8{mask:url(#mask-15_1_);}
	.st9{fill:none;stroke:#6C7FEF;stroke-width:4.4;stroke-linecap:round;stroke-linejoin:round;}
	.st10{fill:none;stroke:#FE9178;stroke-width:4.4;stroke-linecap:round;stroke-linejoin:round;}
	.st11{fill-rule:evenodd;clip-rule:evenodd;fill:url(#SVGID_3_);}
	.st12{filter:url(#Adobe_OpacityMaskFilter_3_);}
	.st13{mask:url(#mask-18_1_);fill:none;stroke:#FFFFFF;stroke-width:5.28;stroke-linecap:round;stroke-linejoin:round;}
	.st14{filter:url(#Adobe_OpacityMaskFilter_4_);}
	.st15{mask:url(#mask-18_2_);fill:none;stroke:#FFFFFF;stroke-width:5.28;stroke-linecap:round;stroke-linejoin:round;}
	.st16{fill-rule:evenodd;clip-rule:evenodd;fill:url(#SVGID_4_);}
	.st17{fill:none;stroke:#FFFFFF;stroke-width:4.4;stroke-linecap:round;stroke-linejoin:round;}
	.st18{fill-rule:evenodd;clip-rule:evenodd;fill:url(#SVGID_5_);}
	.st19{fill-rule:evenodd;clip-rule:evenodd;fill:url(#SVGID_6_);}
	.st20{filter:url(#Adobe_OpacityMaskFilter_5_);}
	.st21{mask:url(#mask-21_1_);fill:none;stroke:#FFFFFF;stroke-width:5.28;stroke-linecap:round;stroke-linejoin:round;}
	.st22{filter:url(#Adobe_OpacityMaskFilter_6_);}
	.st23{mask:url(#mask-21_2_);fill:none;stroke:#FFFFFF;stroke-width:5.28;stroke-linecap:round;stroke-linejoin:round;}
	.st24{fill-rule:evenodd;clip-rule:evenodd;fill:#F5F6FF;}
	.st25{opacity:0.247;}
	.st26{fill-rule:evenodd;clip-rule:evenodd;fill:url(#SVGID_7_);}
	.st27{filter:url(#Adobe_OpacityMaskFilter_7_);}
	.st28{mask:url(#mask-23_1_);fill:none;stroke:#FFFFFF;stroke-width:5.28;stroke-linecap:round;stroke-linejoin:round;}
	.st29{filter:url(#Adobe_OpacityMaskFilter_8_);}
	.st30{mask:url(#mask-23_2_);fill:none;stroke:#FFFFFF;stroke-width:5.28;stroke-linecap:round;stroke-linejoin:round;}
	.st31{fill-rule:evenodd;clip-rule:evenodd;fill:url(#SVGID_8_);}
	.st32{fill-rule:evenodd;clip-rule:evenodd;fill:url(#SVGID_9_);}
	.st33{fill-rule:evenodd;clip-rule:evenodd;fill:url(#SVGID_10_);}
	.st34{filter:url(#Adobe_OpacityMaskFilter_9_);}
	.st35{mask:url(#mask-25_1_);fill:none;stroke:#FFFFFF;stroke-width:5.28;stroke-linecap:round;stroke-linejoin:round;}
	.st36{filter:url(#Adobe_OpacityMaskFilter_10_);}
	.st37{mask:url(#mask-25_2_);fill:none;stroke:#FFFFFF;stroke-width:5.28;stroke-linecap:round;stroke-linejoin:round;}
	.st38{fill-rule:evenodd;clip-rule:evenodd;fill:url(#SVGID_11_);}
	.st39{fill-rule:evenodd;clip-rule:evenodd;fill:url(#Oval-Copy_1_);}
	.st40{fill-rule:evenodd;clip-rule:evenodd;fill:url(#Oval-Copy-2_1_);}
	.st41{fill-rule:evenodd;clip-rule:evenodd;fill:url(#Path-59_1_);}
	.st42{fill-rule:evenodd;clip-rule:evenodd;fill:url(#SVGID_12_);}
	.st43{filter:url(#Adobe_OpacityMaskFilter_11_);}
	
		.st44{opacity:0.2953;mask:url(#mask-30_1_);fill-rule:evenodd;clip-rule:evenodd;fill:#5394FF;stroke:#979797;enable-background:new    ;}
	.st45{fill:none;stroke:#FFFFFF;stroke-width:6;stroke-linecap:round;stroke-linejoin:round;}
	.st46{opacity:0.1172;fill-rule:evenodd;clip-rule:evenodd;fill:#7C8EF8;enable-background:new    ;}
	.st47{fill-rule:evenodd;clip-rule:evenodd;fill:url(#Path-45-Copy-2_1_);}
	.st48{fill-rule:evenodd;clip-rule:evenodd;fill:url(#Path-60_1_);}
	.st49{fill-rule:evenodd;clip-rule:evenodd;fill:url(#Path-60-Copy_1_);}
	.st50{fill-rule:evenodd;clip-rule:evenodd;fill:url(#Rectangle-Copy-5_1_);}
	.st51{fill-rule:evenodd;clip-rule:evenodd;fill:url(#SVGID_13_);}
	.st52{fill-rule:evenodd;clip-rule:evenodd;fill:url(#Path-10_1_);}
	.st53{fill-rule:evenodd;clip-rule:evenodd;fill:#A261FE;}
	.st54{fill-rule:evenodd;clip-rule:evenodd;fill:url(#Path-8_1_);}
	.st55{fill-rule:evenodd;clip-rule:evenodd;fill:url(#Path-10-Copy_1_);}
	.st56{opacity:0.2795;fill-rule:evenodd;clip-rule:evenodd;fill:url(#Path-8-Copy_1_);enable-background:new    ;}
	.st57{fill-rule:evenodd;clip-rule:evenodd;fill:url(#Path-7_1_);}
	.st58{fill-rule:evenodd;clip-rule:evenodd;fill:#FFAAAA;}
	.st59{fill-rule:evenodd;clip-rule:evenodd;fill:url(#Path-5_1_);}
	.st60{fill-rule:evenodd;clip-rule:evenodd;fill:url(#Path-4_1_);}
	.st61{opacity:0.334;fill-rule:evenodd;clip-rule:evenodd;fill:#FFAAAA;enable-background:new    ;}
	.st62{fill-rule:evenodd;clip-rule:evenodd;fill:url(#Path-31_1_);}
	.st63{fill-rule:evenodd;clip-rule:evenodd;fill:url(#SVGID_14_);}
	.st64{opacity:0.3119;fill-rule:evenodd;clip-rule:evenodd;fill:#DD6BA5;enable-background:new    ;}
	.st65{fill-rule:evenodd;clip-rule:evenodd;fill:url(#SVGID_15_);}
	.st66{fill-rule:evenodd;clip-rule:evenodd;fill:#FFD4D4;}
	.st67{fill-rule:evenodd;clip-rule:evenodd;fill:#FE8C71;}
	.st68{fill-rule:evenodd;clip-rule:evenodd;fill:url(#SVGID_16_);}
	.st69{fill-rule:evenodd;clip-rule:evenodd;fill:url(#Path-9_1_);}
	.st70{fill-rule:evenodd;clip-rule:evenodd;fill:url(#SVGID_17_);}
	.st71{fill-rule:evenodd;clip-rule:evenodd;fill:url(#SVGID_18_);}
	.st72{fill-rule:evenodd;clip-rule:evenodd;fill:url(#Path-2-Copy-5_1_);}
	.st73{opacity:0.3129;fill-rule:evenodd;clip-rule:evenodd;fill:#FFB69F;enable-background:new    ;}
	.st74{fill-rule:evenodd;clip-rule:evenodd;fill:url(#Path-Copy_1_);}
	.st75{fill-rule:evenodd;clip-rule:evenodd;fill:#EDF0FF;}
	.st76{opacity:0.7225;fill-rule:evenodd;clip-rule:evenodd;fill:#D6DBF0;enable-background:new    ;}
	.st77{fill-rule:evenodd;clip-rule:evenodd;fill:#DCE2FF;}
	.st78{fill-rule:evenodd;clip-rule:evenodd;fill:#DAE0FF;}
	.st79{fill-rule:evenodd;clip-rule:evenodd;fill:url(#Path-45_1_);}
</style>
<title>Artboard</title>
<defs>
	<filter id="Adobe_OpacityMaskFilter" filterUnits="userSpaceOnUse" x="121" y="101.2" width="933" height="713.8">
		<feColorMatrix  type="matrix" values="1 0 0 0 0  0 1 0 0 0  0 0 1 0 0  0 0 0 1 0"/>
	</filter>
</defs>
<mask maskUnits="userSpaceOnUse" x="121" y="101.2" width="933" height="713.8" id="mask-2_4_">
	<g class="st0">
		<rect id="path-1_4_" x="-757.2" y="-264.9" class="st1" width="1869.2" height="1333.1"/>
	</g>
</mask>
<g id="Group-28" class="st2">
	<g transform="translate(673.000000, 282.000000)">
		<g id="Group-27" transform="translate(71.000000, 0.000000)">
			<g>
				<g id="Group-4" transform="translate(23.134820, 0.000000)">
					<g>
						
							<linearGradient id="SVGID_1_" gradientUnits="userSpaceOnUse" x1="-761.2266" y1="505.7182" x2="-762.0176" y2="505.1302" gradientTransform="matrix(598.7836 0 0 -462.8018 456095.9063 233922.1563)">
							<stop  offset="0" style="stop-color:#F2F4FF"/>
							<stop  offset="1" style="stop-color:#99A8FF"/>
						</linearGradient>
						<path class="st3" d="M-484.4-180.8h689c24.4,0,44.1,19.8,44.1,44.1v512.5c0,24.4-19.8,44.1-44.1,44.1h-689
							c-24.4,0-44.1-19.8-44.1-44.1v-512.5C-528.5-161.1-508.8-180.8-484.4-180.8z"/>
					</g>
					<g>
						
							<linearGradient id="SVGID_2_" gradientUnits="userSpaceOnUse" x1="-761.2237" y1="505.7043" x2="-762.7748" y2="504.6118" gradientTransform="matrix(598.7836 0 0 -462.8018 456061.9063 233922.1563)">
							<stop  offset="0" style="stop-color:#F2F4FF"/>
							<stop  offset="1" style="stop-color:#99A8FF"/>
						</linearGradient>
						<path class="st4" d="M-528.6-180.8h689c24.4,0,44.1,19.8,44.1,44.1v512.5c0,24.4-19.8,44.1-44.1,44.1h-689
							c-24.4,0-44.1-19.8-44.1-44.1v-512.5C-572.7-161.1-552.9-180.8-528.6-180.8z"/>
					</g>
					<defs>
						<filter id="Adobe_OpacityMaskFilter_1_" filterUnits="userSpaceOnUse" x="-199.1" y="367.8" width="31.8" height="31.8">
							<feColorMatrix  type="matrix" values="1 0 0 0 0  0 1 0 0 0  0 0 1 0 0  0 0 0 1 0"/>
						</filter>
					</defs>
					<mask maskUnits="userSpaceOnUse" x="-199.1" y="367.8" width="31.8" height="31.8" id="mask-13_1_">
						<g class="st5">
							<path id="path-12_1_" class="st1" d="M-528.6-180.8h689c24.4,0,44.1,19.8,44.1,44.1v512.5c0,24.4-19.8,44.1-44.1,44.1h-689
								c-24.4,0-44.1-19.8-44.1-44.1v-512.5C-572.7-161.1-552.9-180.8-528.6-180.8z"/>
						</g>
					</mask>
					<ellipse id="Oval" class="st6" cx="-183.2" cy="383.7" rx="15.9" ry="15.9"/>
					<g>
						<path class="st1" d="M-544.5-157.9h715.6c7.7,0,14,6.3,14,14v476.4c0,7.7-6.3,14-14,14h-715.6c-7.7,0-14-6.3-14-14v-476.4
							C-558.6-151.6-552.3-157.9-544.5-157.9z"/>
					</g>
					<defs>
						<filter id="Adobe_OpacityMaskFilter_2_" filterUnits="userSpaceOnUse" x="-288.3" y="121.3" width="423.1" height="179.2">
							<feColorMatrix  type="matrix" values="1 0 0 0 0  0 1 0 0 0  0 0 1 0 0  0 0 0 1 0"/>
						</filter>
					</defs>
					<mask maskUnits="userSpaceOnUse" x="-288.3" y="121.3" width="423.1" height="179.2" id="mask-15_1_">
						<g class="st7">
							<path id="path-14_1_" class="st1" d="M-544.5-157.9h715.6c7.7,0,14,6.3,14,14v476.4c0,7.7-6.3,14-14,14h-715.6
								c-7.7,0-14-6.3-14-14v-476.4C-558.6-151.6-552.3-157.9-544.5-157.9z"/>
						</g>
					</mask>
					<g id="Group-9" class="st8">
						<g transform="translate(185.078562, 232.762104)">
							<g id="Group-3-Copy">
								<g id="Group-36-Copy">
									<g id="Group-22" transform="translate(33.341359, 6.125319)">
										<line id="Path-2" class="st9" x1="-463.4" y1="-108.7" x2="-355.7" y2="-109.6"/>
										<line id="Path-2-Copy" class="st10" x1="-463.4" y1="-93.7" x2="-417.5" y2="-94.6"/>
									</g>
									<g id="Group-24">
										<g id="Rectangle-Copy-9">
											
												<linearGradient id="SVGID_3_" gradientUnits="userSpaceOnUse" x1="-965.6747" y1="277.7205" x2="-967.5349" y2="276.011" gradientTransform="matrix(23.1348 0 0 -23.1401 21908.877 6305.6563)">
												<stop  offset="0" style="stop-color:#EEF1FF"/>
												<stop  offset="1" style="stop-color:#99A8FF"/>
											</linearGradient>
											<path class="st11" d="M-468.2-111.5h19.6c2.9,0,5.2,2.3,5.2,5.2v19.7c0,2.9-2.3,5.2-5.2,5.2h-19.6
												c-2.9,0-5.2-2.3-5.2-5.2v-19.7C-473.4-109.1-471-111.5-468.2-111.5z"/>
										</g>
										<defs>
											<filter id="Adobe_OpacityMaskFilter_3_" filterUnits="userSpaceOnUse" x="-465.4" y="-107" width="14.1" height="14.1">
												<feColorMatrix  type="matrix" values="1 0 0 0 0  0 1 0 0 0  0 0 1 0 0  0 0 0 1 0"/>
											</filter>
										</defs>
										<mask maskUnits="userSpaceOnUse" x="-465.4" y="-107" width="14.1" height="14.1" id="mask-18_1_">
											<g class="st12">
												<path id="path-17_1_" class="st1" d="M-468.2-111.5h19.6c2.9,0,5.2,2.3,5.2,5.2v19.7c0,2.9-2.3,5.2-5.2,5.2h-19.6
													c-2.9,0-5.2-2.3-5.2-5.2v-19.7C-473.4-109.1-471-111.5-468.2-111.5z"/>
											</g>
										</mask>
										<ellipse class="st13" cx="-458.4" cy="-100" rx="4.4" ry="4.4"/>
										<defs>
											<filter id="Adobe_OpacityMaskFilter_4_" filterUnits="userSpaceOnUse" x="-468.9" y="-91.1" width="21.2" height="21.2">
												<feColorMatrix  type="matrix" values="1 0 0 0 0  0 1 0 0 0  0 0 1 0 0  0 0 0 1 0"/>
											</filter>
										</defs>
										<mask maskUnits="userSpaceOnUse" x="-468.9" y="-91.1" width="21.2" height="21.2" id="mask-18_2_">
											<g class="st14">
												<path id="path-17_2_" class="st1" d="M-468.2-111.5h19.6c2.9,0,5.2,2.3,5.2,5.2v19.7c0,2.9-2.3,5.2-5.2,5.2h-19.6
													c-2.9,0-5.2-2.3-5.2-5.2v-19.7C-473.4-109.1-471-111.5-468.2-111.5z"/>
											</g>
										</mask>
										<ellipse id="Oval-Copy-5" class="st15" cx="-458.4" cy="-80.5" rx="7.9" ry="8"/>
									</g>
								</g>
								
									<g id="Group-29" transform="translate(78.530665, 90.196639) scale(-1, 1) translate(-78.530665, -90.196639) translate(15.530665, 42.196639)">
									
										<linearGradient id="SVGID_4_" gradientUnits="userSpaceOnUse" x1="1082.8439" y1="231.5487" x2="1080.9829" y2="230.5558" gradientTransform="matrix(-125.7445 0 0 -95.8272 136842.8906 22083.5156)">
										<stop  offset="0" style="stop-color:#EEF1FF"/>
										<stop  offset="1" style="stop-color:#99A8FF"/>
									</linearGradient>
									<path class="st16" d="M442.4-98.9h140.8c6.2,0,11.2,5,11.2,11.2v102c0,6.2-5,11.2-11.2,11.2H442.4c-6.2,0-11.2-5-11.2-11.2
										v-102C431.2-93.9,436.2-98.9,442.4-98.9z"/>
									
										<g id="Group" transform="translate(58.719717, 50.362456) scale(-1, 1) translate(-58.719717, -50.362456) translate(24.219717, 25.862456)">
										<polygon id="Path-51" class="st17" points="-459,-38.8 -459,-27.9 -370,-27.9 -370,-38.8 										"/>
										<ellipse class="st17" cx="-441.7" cy="-65.2" rx="6.6" ry="6.6"/>
										<path id="Path-51-Copy" class="st17" d="M-459-91.2v63.2h89v-0.5c0-13.5-8.4-25.6-21.1-30.2l-8.1-3
											c-12.4-4.6-20.6-16.3-20.6-29.5l0,0l0,0H-459z"/>
										<line id="Path-52" class="st17" x1="-389.6" y1="-58.3" x2="-389.6" y2="-38.8"/>
										<line id="Path-53" class="st17" x1="-418" y1="-38.8" x2="-418" y2="-27.9"/>
										<line id="Path-54" class="st17" x1="-459" y1="-33.4" x2="-418" y2="-33.4"/>
										<line id="Path-55" class="st17" x1="-459" y1="-84.6" x2="-420" y2="-84.6"/>
										<path id="Path-56" class="st17" d="M-427-84.6c-1.1,13.1,7.5,25.1,20.2,28.3l17.2,4.3l0,0"/>
										<line id="Path-57" class="st17" x1="-426.2" y1="-78.8" x2="-414.5" y2="-78.8"/>
										<line id="Path-57-Copy" class="st17" x1="-424.8" y1="-71.7" x2="-411" y2="-71.7"/>
									</g>
								</g>
							</g>
							<g id="Group-2-Copy" transform="translate(188.480741, 0.000000)">
								
									<g transform="translate(74.448050, 90.196639) scale(-1, 1) translate(-74.448050, -90.196639) translate(11.448050, 42.196639)">
									
										<linearGradient id="SVGID_5_" gradientUnits="userSpaceOnUse" x1="1267.6791" y1="231.5487" x2="1265.8181" y2="230.5558" gradientTransform="matrix(-125.7445 0 0 -95.8272 160029.9531 22083.5156)">
										<stop  offset="0" style="stop-color:#EEF1FF"/>
										<stop  offset="1" style="stop-color:#99A8FF"/>
									</linearGradient>
									<path class="st18" d="M387.4-98.9h140.8c6.2,0,11.2,5,11.2,11.2v102c0,6.2-5,11.2-11.2,11.2H387.4c-6.2,0-11.2-5-11.2-11.2
										v-102C376.2-93.9,381.3-98.9,387.4-98.9z"/>
								</g>
								<g id="Group-36-Copy-2">
									<g transform="translate(33.341359, 6.125319)">
										<line class="st9" x1="-407.3" y1="-108.7" x2="-299.5" y2="-109.6"/>
										<line class="st10" x1="-407.3" y1="-93.7" x2="-361.3" y2="-94.6"/>
									</g>
									<g>
										<g>
											
												<linearGradient id="SVGID_6_" gradientUnits="userSpaceOnUse" x1="-1151.7274" y1="277.7205" x2="-1153.5875" y2="276.011" gradientTransform="matrix(23.1348 0 0 -23.1401 26269.3457 6305.6563)">
												<stop  offset="0" style="stop-color:#EEF1FF"/>
												<stop  offset="1" style="stop-color:#99A8FF"/>
											</linearGradient>
											<path class="st19" d="M-412-111.5h19.6c2.9,0,5.2,2.3,5.2,5.2v19.7c0,2.9-2.3,5.2-5.2,5.2H-412c-2.9,0-5.2-2.3-5.2-5.2
												v-19.7C-417.2-109.1-414.9-111.5-412-111.5z"/>
										</g>
										<defs>
											<filter id="Adobe_OpacityMaskFilter_5_" filterUnits="userSpaceOnUse" x="-409.2" y="-107" width="14.1" height="14.1">
												<feColorMatrix  type="matrix" values="1 0 0 0 0  0 1 0 0 0  0 0 1 0 0  0 0 0 1 0"/>
											</filter>
										</defs>
										<mask maskUnits="userSpaceOnUse" x="-409.2" y="-107" width="14.1" height="14.1" id="mask-21_1_">
											<g class="st20">
												<path id="path-20_1_" class="st1" d="M-412-111.5h19.6c2.9,0,5.2,2.3,5.2,5.2v19.7c0,2.9-2.3,5.2-5.2,5.2H-412
													c-2.9,0-5.2-2.3-5.2-5.2v-19.7C-417.2-109.1-414.9-111.5-412-111.5z"/>
											</g>
										</mask>
										<ellipse class="st21" cx="-402.2" cy="-100" rx="4.4" ry="4.4"/>
										<defs>
											<filter id="Adobe_OpacityMaskFilter_6_" filterUnits="userSpaceOnUse" x="-412.8" y="-91.1" width="21.2" height="21.2">
												<feColorMatrix  type="matrix" values="1 0 0 0 0  0 1 0 0 0  0 0 1 0 0  0 0 0 1 0"/>
											</filter>
										</defs>
										<mask maskUnits="userSpaceOnUse" x="-412.8" y="-91.1" width="21.2" height="21.2" id="mask-21_2_">
											<g class="st22">
												<path id="path-20_2_" class="st1" d="M-412-111.5h19.6c2.9,0,5.2,2.3,5.2,5.2v19.7c0,2.9-2.3,5.2-5.2,5.2H-412
													c-2.9,0-5.2-2.3-5.2-5.2v-19.7C-417.2-109.1-414.9-111.5-412-111.5z"/>
											</g>
										</mask>
										<ellipse class="st23" cx="-402.2" cy="-80.5" rx="7.9" ry="8"/>
									</g>
								</g>
							</g>
						</g>
					</g>
				</g>
				<path id="Rectangle-Copy" class="st24" d="M-521.4-157.9H-297l0,0v504.4h-224.5c-7.7,0-14-6.3-14-14v-476.4
					C-535.4-151.6-529.2-157.9-521.4-157.9z"/>
				<g id="Group-5" transform="translate(32.660923, 92.560369)" class="st25">
					<line id="Path-50" class="st9" x1="-497.5" y1="-146.2" x2="-374.8" y2="-146.2"/>
					<ellipse class="st9" cx="-518.6" cy="-146.2" rx="7.1" ry="7.1"/>
				</g>
				<g id="Group-5-Copy" transform="translate(32.660923, 137.479371)" class="st25">
					<line class="st9" x1="-497.5" y1="-132.8" x2="-374.8" y2="-132.8"/>
					<ellipse class="st9" cx="-518.6" cy="-132.8" rx="7.1" ry="7.1"/>
				</g>
				<g id="Group-5-Copy-2" transform="translate(32.660923, 182.398374)" class="st25">
					<line class="st9" x1="-497.5" y1="-119.4" x2="-457.7" y2="-119.4"/>
					<ellipse class="st9" cx="-518.6" cy="-119.4" rx="7.1" ry="7.1"/>
				</g>
				<g id="Group-8" transform="translate(208.213382, 55.808458)">
					<g id="Group-3">
						<g>
							<g transform="translate(33.341359, 6.125319)">
								<line class="st9" x1="-463.4" y1="-161.5" x2="-355.7" y2="-162.4"/>
								<line class="st10" x1="-463.4" y1="-146.5" x2="-417.5" y2="-147.4"/>
							</g>
							<g>
								<g>
									
										<linearGradient id="SVGID_7_" gradientUnits="userSpaceOnUse" x1="-965.6747" y1="456.9533" x2="-967.5349" y2="455.2437" gradientTransform="matrix(23.1348 0 0 -23.1401 21908.877 10400.3799)">
										<stop  offset="0" style="stop-color:#EEF1FF"/>
										<stop  offset="1" style="stop-color:#99A8FF"/>
									</linearGradient>
									<path class="st26" d="M-468.2-164.2h19.6c2.9,0,5.2,2.3,5.2,5.2v19.7c0,2.9-2.3,5.2-5.2,5.2h-19.6c-2.9,0-5.2-2.3-5.2-5.2
										V-159C-473.4-161.9-471-164.2-468.2-164.2z"/>
								</g>
								<defs>
									<filter id="Adobe_OpacityMaskFilter_7_" filterUnits="userSpaceOnUse" x="-465.4" y="-159.8" width="14.1" height="14.1">
										<feColorMatrix  type="matrix" values="1 0 0 0 0  0 1 0 0 0  0 0 1 0 0  0 0 0 1 0"/>
									</filter>
								</defs>
								<mask maskUnits="userSpaceOnUse" x="-465.4" y="-159.8" width="14.1" height="14.1" id="mask-23_1_">
									<g class="st27">
										<path id="path-22_1_" class="st1" d="M-468.2-164.2h19.6c2.9,0,5.2,2.3,5.2,5.2v19.7c0,2.9-2.3,5.2-5.2,5.2h-19.6
											c-2.9,0-5.2-2.3-5.2-5.2V-159C-473.4-161.9-471-164.2-468.2-164.2z"/>
									</g>
								</mask>
								<ellipse class="st28" cx="-458.4" cy="-152.7" rx="4.4" ry="4.4"/>
								<defs>
									<filter id="Adobe_OpacityMaskFilter_8_" filterUnits="userSpaceOnUse" x="-468.9" y="-143.9" width="21.2" height="21.2">
										<feColorMatrix  type="matrix" values="1 0 0 0 0  0 1 0 0 0  0 0 1 0 0  0 0 0 1 0"/>
									</filter>
								</defs>
								<mask maskUnits="userSpaceOnUse" x="-468.9" y="-143.9" width="21.2" height="21.2" id="mask-23_2_">
									<g class="st29">
										<path id="path-22_2_" class="st1" d="M-468.2-164.2h19.6c2.9,0,5.2,2.3,5.2,5.2v19.7c0,2.9-2.3,5.2-5.2,5.2h-19.6
											c-2.9,0-5.2-2.3-5.2-5.2V-159C-473.4-161.9-471-164.2-468.2-164.2z"/>
									</g>
								</mask>
								<ellipse class="st30" cx="-458.4" cy="-133.3" rx="7.9" ry="8"/>
							</g>
						</g>
						
							<g transform="translate(78.530665, 90.196639) scale(-1, 1) translate(-78.530665, -90.196639) translate(15.530665, 42.196639)">
							
								<linearGradient id="SVGID_8_" gradientUnits="userSpaceOnUse" x1="1082.8439" y1="409.0527" x2="1080.9829" y2="408.0598" gradientTransform="matrix(-125.7445 0 0 -95.8272 136842.8906 39040.4883)">
								<stop  offset="0" style="stop-color:#EEF1FF"/>
								<stop  offset="1" style="stop-color:#99A8FF"/>
							</linearGradient>
							<path class="st31" d="M442.4-151.6h140.8c6.2,0,11.2,5,11.2,11.2v102c0,6.2-5,11.2-11.2,11.2H442.4c-6.2,0-11.2-5-11.2-11.2
								v-102C431.2-146.6,436.2-151.6,442.4-151.6z"/>
							
								<g id="Group-13" transform="translate(62.462743, 48.423127) scale(-1, 1) translate(-62.462743, -48.423127) translate(39.462743, 17.423127)">
								<g id="Group-11" transform="translate(0.245986, 0.316669)">
									<path id="Path-46" class="st17" d="M-451.4-146.3h47.3c2.9,0,5.2,2.3,5.2,5.2v68.5c0,2.9-2.3,5.2-5.2,5.2h-12.5
										c-2.6,0-4.8-1.9-5.2-4.5l-3.7-29.6c-0.1-1.1-1.2-1.9-2.3-1.8c-1,0.1-1.7,0.9-1.8,1.8l-3.1,29.5c-0.3,2.6-2.5,4.7-5.2,4.7
										h-13.5c-2.9,0-5.2-2.3-5.2-5.2v-68.5C-456.6-144-454.3-146.3-451.4-146.3z"/>
									<line id="Path-6" class="st17" x1="-456.6" y1="-137.4" x2="-398.9" y2="-137.4"/>
									<path id="Shape" class="st17" d="M-455.2-76h22.7 M-421.9-76h22.4"/>
									<g transform="translate(16.462787, 3.578440)">
										<line id="Path-47" class="st17" x1="-446.9" y1="-145.3" x2="-451.7" y2="-133.6"/>
										<line id="Path-47-Copy" class="st17" x1="-441.1" y1="-145.3" x2="-436.1" y2="-133.6"/>
									</g>
								</g>
							</g>
						</g>
					</g>
					<g id="Group-2" transform="translate(188.480741, 0.000000)">
						
							<g id="Group-30" transform="translate(74.448050, 90.196639) scale(-1, 1) translate(-74.448050, -90.196639) translate(11.448050, 42.196639)">
							
								<linearGradient id="SVGID_9_" gradientUnits="userSpaceOnUse" x1="1267.6791" y1="409.0527" x2="1265.8181" y2="408.0598" gradientTransform="matrix(-125.7445 0 0 -95.8272 160029.9375 39040.4883)">
								<stop  offset="0" style="stop-color:#EEF1FF"/>
								<stop  offset="1" style="stop-color:#99A8FF"/>
							</linearGradient>
							<path class="st32" d="M387.4-151.6h140.8c6.2,0,11.2,5,11.2,11.2v102c0,6.2-5,11.2-11.2,11.2H387.4c-6.2,0-11.2-5-11.2-11.2
								v-102C376.2-146.6,381.3-151.6,387.4-151.6z"/>
							<g transform="translate(25.584388, 21.234436)">
								<path id="Path-48" class="st17" d="M422.7-145.3v1.5c0,4.3,3.5,7.9,7.9,7.9s7.9-3.5,7.9-7.9v-1.5l0,0h20.1
									c1.5,0,2.8,0.6,3.8,1.7l14,15.3c1.9,2.1,1.8,5.4-0.3,7.3c0,0,0,0,0,0l-5.9,5.3c-2.1,1.9-5.4,1.7-7.3-0.4c0,0,0,0,0,0l-2-2.2
									c-1.1-1.3-3.1-1.4-4.4-0.3c-0.7,0.6-1.1,1.4-1.1,2.3v35.8c0,2.9-2.3,5.2-5.2,5.2h-39c-2.9,0-5.2-2.3-5.2-5.2v-36.2
									c0-1.5-1.2-2.7-2.7-2.7c-0.8,0-1.6,0.4-2.1,1l-1.2,1.6c-1.8,2.3-5,2.6-7.3,0.9c-0.2-0.1-0.3-0.3-0.5-0.4l-5-5
									c-1.9-1.9-2-4.8-0.4-6.9l11.8-15.2c1-1.3,2.5-2,4.1-2H422.7L422.7-145.3z"/>
								<line id="Path-49" class="st17" x1="473.9" y1="-129.6" x2="388.8" y2="-129.6"/>
								<path id="Path-49-Copy" class="st17" d="M454.7-111.2h-48.3H454.7z"/>
								<path id="Path-49-Copy-2" class="st17" d="M454.7-92.1h-48.3H454.7z"/>
							</g>
						</g>
						<g>
							<g transform="translate(33.341359, 6.125319)">
								<line class="st9" x1="-407.3" y1="-161.5" x2="-299.5" y2="-162.4"/>
								<line class="st10" x1="-407.3" y1="-146.5" x2="-361.3" y2="-147.4"/>
							</g>
							<g>
								<g>
									
										<linearGradient id="SVGID_10_" gradientUnits="userSpaceOnUse" x1="-1151.7274" y1="456.9533" x2="-1153.5875" y2="455.2437" gradientTransform="matrix(23.1348 0 0 -23.1401 26269.3457 10400.3799)">
										<stop  offset="0" style="stop-color:#EEF1FF"/>
										<stop  offset="1" style="stop-color:#99A8FF"/>
									</linearGradient>
									<path class="st33" d="M-412-164.2h19.6c2.9,0,5.2,2.3,5.2,5.2v19.7c0,2.9-2.3,5.2-5.2,5.2H-412c-2.9,0-5.2-2.3-5.2-5.2
										V-159C-417.2-161.9-414.9-164.2-412-164.2z"/>
								</g>
								<defs>
									<filter id="Adobe_OpacityMaskFilter_9_" filterUnits="userSpaceOnUse" x="-409.2" y="-159.8" width="14.1" height="14.1">
										<feColorMatrix  type="matrix" values="1 0 0 0 0  0 1 0 0 0  0 0 1 0 0  0 0 0 1 0"/>
									</filter>
								</defs>
								<mask maskUnits="userSpaceOnUse" x="-409.2" y="-159.8" width="14.1" height="14.1" id="mask-25_1_">
									<g class="st34">
										<path id="path-24_1_" class="st1" d="M-412-164.2h19.6c2.9,0,5.2,2.3,5.2,5.2v19.7c0,2.9-2.3,5.2-5.2,5.2H-412
											c-2.9,0-5.2-2.3-5.2-5.2V-159C-417.2-161.9-414.9-164.2-412-164.2z"/>
									</g>
								</mask>
								<ellipse class="st35" cx="-402.2" cy="-152.7" rx="4.4" ry="4.4"/>
								<defs>
									<filter id="Adobe_OpacityMaskFilter_10_" filterUnits="userSpaceOnUse" x="-412.8" y="-143.9" width="21.2" height="21.2">
										<feColorMatrix  type="matrix" values="1 0 0 0 0  0 1 0 0 0  0 0 1 0 0  0 0 0 1 0"/>
									</filter>
								</defs>
								<mask maskUnits="userSpaceOnUse" x="-412.8" y="-143.9" width="21.2" height="21.2" id="mask-25_2_">
									<g class="st36">
										<path id="path-24_2_" class="st1" d="M-412-164.2h19.6c2.9,0,5.2,2.3,5.2,5.2v19.7c0,2.9-2.3,5.2-5.2,5.2H-412
											c-2.9,0-5.2-2.3-5.2-5.2V-159C-417.2-161.9-414.9-164.2-412-164.2z"/>
									</g>
								</mask>
								<ellipse class="st37" cx="-402.2" cy="-133.3" rx="7.9" ry="8"/>
							</g>
						</g>
					</g>
				</g>
				<g transform="translate(19.052205, 30.626593)">
					
						<linearGradient id="SVGID_11_" gradientUnits="userSpaceOnUse" x1="-807.8163" y1="490.9568" x2="-808.8806" y2="489.5723" gradientTransform="matrix(10.4107 0 0 -10.413 7892.6914 4939.8921)">
						<stop  offset="0" style="stop-color:#F2F4FF"/>
						<stop  offset="1" style="stop-color:#99A8FF"/>
					</linearGradient>
					<ellipse class="st38" cx="-523" cy="-164.9" rx="6.8" ry="6.8"/>
					
						<linearGradient id="Oval-Copy_1_" gradientUnits="userSpaceOnUse" x1="-807.1676" y1="490.9568" x2="-808.2319" y2="489.5723" gradientTransform="matrix(10.4107 0 0 -10.413 7915.3501 4939.8921)">
						<stop  offset="0" style="stop-color:#F2F4FF"/>
						<stop  offset="1" style="stop-color:#99A8FF"/>
					</linearGradient>
					<ellipse id="Oval-Copy" class="st39" cx="-493.6" cy="-164.9" rx="6.8" ry="6.8"/>
					
						<linearGradient id="Oval-Copy-2_1_" gradientUnits="userSpaceOnUse" x1="-806.5189" y1="490.9568" x2="-807.5833" y2="489.5723" gradientTransform="matrix(10.4107 0 0 -10.413 7938.0083 4939.8921)">
						<stop  offset="0" style="stop-color:#F2F4FF"/>
						<stop  offset="1" style="stop-color:#99A8FF"/>
					</linearGradient>
					<ellipse id="Oval-Copy-2" class="st40" cx="-464.2" cy="-164.9" rx="6.8" ry="6.8"/>
				</g>
			</g>
			<g id="Group-19" transform="translate(462.696405, 323.280700)">
				
					<linearGradient id="Path-59_1_" gradientUnits="userSpaceOnUse" x1="-1202.1877" y1="183.8737" x2="-1204.6692" y2="180.6477" gradientTransform="matrix(136.3016 0 0 -147.6196 163750.0469 26900.8984)">
					<stop  offset="0" style="stop-color:#0825AA"/>
					<stop  offset="1" style="stop-color:#5CBEFF"/>
				</linearGradient>
				<path id="Path-59" class="st41" d="M-357.6-36.2l25.4-19.2c22.5-17,53.6-17,76.1,0l25.4,19.2c24.3,18.4,32,51.5,18.3,78.8
					c-27.2,54-54.5,80.9-81.7,80.9s-54.5-27-81.7-80.9C-389.6,15.3-381.9-17.9-357.6-36.2z"/>
				<g id="Group-25" transform="translate(0.000000, 0.238826)">
					<g id="Group-26">
						<g id="Path-59-Copy-2">
							
								<linearGradient id="SVGID_12_" gradientUnits="userSpaceOnUse" x1="-1203.2595" y1="182.826" x2="-1204.9211" y2="180.4061" gradientTransform="matrix(122.0041 0 0 -144.6282 146572.7656 26324.3203)">
								<stop  offset="0" style="stop-color:#4A6BFF"/>
								<stop  offset="1" style="stop-color:#5CBEFF"/>
							</linearGradient>
							<path class="st42" d="M-363.8-35.2l16.1-13.8c23.6-20.3,58.6-20.3,82.2,0l16.1,13.8c20.9,18,27.7,47.5,16.8,72.8
								c-24.7,57.2-49.3,85.8-74,85.8s-49.3-28.6-74-85.8C-391.5,12.2-384.7-17.3-363.8-35.2z"/>
						</g>
						<defs>
							<filter id="Adobe_OpacityMaskFilter_11_" filterUnits="userSpaceOnUse" x="-307.1" y="-84.9" width="154.4" height="252.4">
								<feColorMatrix  type="matrix" values="1 0 0 0 0  0 1 0 0 0  0 0 1 0 0  0 0 0 1 0"/>
							</filter>
						</defs>
						<mask maskUnits="userSpaceOnUse" x="-307.1" y="-84.9" width="154.4" height="252.4" id="mask-30_1_">
							<g class="st43">
								<path id="path-29_1_" class="st1" d="M-363.8-35.2l16.1-13.8c23.6-20.3,58.6-20.3,82.2,0l16.1,13.8
									c20.9,18,27.7,47.5,16.8,72.8c-24.7,57.2-49.3,85.8-74,85.8s-49.3-28.6-74-85.8C-391.5,12.2-384.7-17.3-363.8-35.2z"/>
							</g>
						</mask>
						<rect x="-306.6" y="-84.4" class="st44" width="153.4" height="251.4"/>
					</g>
					<g id="Path-59-Copy-3">
						<path class="st45" d="M-346.9-32.3l3.1-2.7c21.4-18.4,53-18.4,74.5,0l3.1,2.7c21.4,18.4,28,48.7,16.1,74.3
							c-18.8,40.7-37.7,61.1-56.5,61.1c-18.8,0-37.7-20.4-56.5-61.1C-374.9,16.4-368.3-13.9-346.9-32.3z"/>
					</g>
				</g>
				<polyline id="Path-44" class="st45" points="-323.3,15.3 -310.5,30.7 -290.7,6.8 				"/>
			</g>
			<g transform="translate(3.402179, 158.577691)">
				<ellipse id="Oval-Copy-3" class="st46" cx="-483.1" cy="-73.4" rx="42.5" ry="42.5"/>
				<g>
					<ellipse class="st1" cx="-492.4" cy="-91.5" rx="42" ry="42.1"/>
					
						<linearGradient id="Path-45-Copy-2_1_" gradientUnits="userSpaceOnUse" x1="-761.2069" y1="351.9002" x2="-760.781" y2="350.856" gradientTransform="matrix(27.0328 0 0 -23.8207 20080.8926 8280.2881)">
						<stop  offset="0" style="stop-color:#FFCABA"/>
						<stop  offset="1" style="stop-color:#FD6F50"/>
					</linearGradient>
					<path id="Path-45-Copy-2" class="st47" d="M-493.4-74.2c14.2-8.6,19.8-17,16.7-25.1c-0.5-1.2-2.5-4.1-5-5.1
						c-2.5-1-5.5-1.2-8.1,0.7c-1.1,0.8-2.3,1.9-3.6,3.3c-2.6-3-5.1-4.4-7.5-4.4c-3.6,0-6.2,1-8.4,4.4
						C-514-92.9-508.7-84.2-493.4-74.2z"/>
				</g>
			</g>
			<g id="Group-23" transform="translate(190.522049, 462.801844)">
				
					<linearGradient id="Path-60_1_" gradientUnits="userSpaceOnUse" x1="-931.4596" y1="41.2466" x2="-931.4596" y2="43.1754" gradientTransform="matrix(154.3139 0 0 -73.812 143433.0313 3143.9629)">
					<stop  offset="0" style="stop-color:#F2F4FF"/>
					<stop  offset="1" style="stop-color:#99A8FF"/>
				</linearGradient>
				<polygon id="Path-60" class="st48" points="-404.3,-42.9 -369.1,52.9 -204,52.9 -244.1,-42.9 				"/>
				
					<linearGradient id="Path-60-Copy_1_" gradientUnits="userSpaceOnUse" x1="-931.6844" y1="42.1478" x2="-932.1814" y2="42.8848" gradientTransform="matrix(133.9008 0 0 -73.812 124467.6172 3143.9629)">
					<stop  offset="0" style="stop-color:#F2F4FF"/>
					<stop  offset="1" style="stop-color:#99A8FF"/>
				</linearGradient>
				<polygon id="Path-60-Copy" class="st49" points="-404.3,-42.9 -369.1,52.9 -230.5,52.9 -270.6,-42.9 				"/>
				
					<linearGradient id="Rectangle-Copy-5_1_" gradientUnits="userSpaceOnUse" x1="-930.6285" y1="42.8254" x2="-931.8193" y2="42.8956" gradientTransform="matrix(170.2797 0 0 -20.9211 158209.3281 954.058)">
					<stop  offset="0" style="stop-color:#F2F4FF"/>
					<stop  offset="1" style="stop-color:#99A8FF"/>
				</linearGradient>
				<path id="Rectangle-Copy-5" class="st50" d="M-451.3,43l182.1,1.5l0,0l11.5,25.6h-221c0-15,12.2-27.2,27.2-27.2
					C-451.4,43-451.3,43-451.3,43z"/>
				
					<linearGradient id="SVGID_13_" gradientUnits="userSpaceOnUse" x1="-931.0126" y1="42.7977" x2="-932.2033" y2="42.9002" gradientTransform="matrix(143.133 0 0 -21.1558 133062.5156 963.8341)">
					<stop  offset="0" style="stop-color:#F2F4FF"/>
					<stop  offset="1" style="stop-color:#99A8FF"/>
				</linearGradient>
				<path class="st51" d="M-354.2,42.7l146.9,1.8l0,0l11.5,25.6l-185.8-0.4c0-14.9,12.1-27,27-27C-354.4,42.7-354.3,42.7-354.2,42.7
					z"/>
			</g>
		</g>
		<g transform="translate(0.000000, 213.000000)">
			<g id="Group-6-Copy-5" transform="translate(0.000000, 14.967015)">
				<g id="Group-5-Copy-4" transform="translate(0.482382, 0.000000)">
					<g transform="translate(69.949480, 310.794366)">
						
							<linearGradient id="Path-10_1_" gradientUnits="userSpaceOnUse" x1="-759.2079" y1="-32.4051" x2="-760.2538" y2="-32.3831" gradientTransform="matrix(24.3028 0 0 -9.9788 17940.7773 -336.4381)">
							<stop  offset="0" style="stop-color:#FFD4D4"/>
							<stop  offset="1" style="stop-color:#FFAAAA"/>
						</linearGradient>
						<polygon id="Path-10" class="st52" points="-535.5,-19.7 -535.4,-6.7 -504,-6.7 -518.9,-14.4 -517.9,-19.7 						"/>
						<polygon id="Path-10-Copy-2" class="st53" points="-535.5,-14.5 -535.4,-6.7 -504,-6.7 -518.9,-14.4 						"/>
					</g>
					<g transform="translate(27.132738, 131.181867)">
						
							<linearGradient id="Path-8_1_" gradientUnits="userSpaceOnUse" x1="-710.4445" y1="144.479" x2="-710.5559" y2="146.6925" gradientTransform="matrix(34.0076 0 0 -180.6449 23675.9199 26425.7813)">
							<stop  offset="0" style="stop-color:#B1A6FF"/>
							<stop  offset="1" style="stop-color:#FEFDFF"/>
						</linearGradient>
						<polygon id="Path-8" class="st54" points="-494.2,161.2 -472.8,161.2 -466.2,-63.3 -510.4,-73.3 						"/>
						<g transform="translate(0.000000, 180.050233)">
							
								<linearGradient id="Path-10-Copy_1_" gradientUnits="userSpaceOnUse" x1="-720.5425" y1="-32.8457" x2="-721.5885" y2="-32.8161" gradientTransform="matrix(20.9671 0 0 -9.9788 14581.2588 -341.2439)">
								<stop  offset="0" style="stop-color:#FFD4D4"/>
								<stop  offset="1" style="stop-color:#FFAAAA"/>
							</linearGradient>
							<polygon id="Path-10-Copy" class="st55" points="-548.4,-20.1 -547.7,-7.2 -521.1,-7.2 -530.8,-13.7 -530.8,-20.1 							"/>
							<polygon id="Path-10-Copy-3" class="st53" points="-548,-13.5 -547.7,-7.2 -521.1,-7.2 -530.8,-13.7 							"/>
						</g>
					</g>
					<g id="Group-17" transform="translate(0.013827, 4.377484)">
						
							<linearGradient id="Path-8-Copy_1_" gradientUnits="userSpaceOnUse" x1="-689.4752" y1="273.1304" x2="-689.5107" y2="274.0457" gradientTransform="matrix(24.6727 0 0 -86.0468 16544.0957 23627.1738)">
							<stop  offset="0" style="stop-color:#ACBBFF"/>
							<stop  offset="1" style="stop-color:#99A8FF"/>
						</linearGradient>
						<polygon id="Path-8-Copy" class="st56" points="-451.8,58.7 -483.8,58.7 -475.1,170.4 						"/>
						
							<linearGradient id="Path-7_1_" gradientUnits="userSpaceOnUse" x1="-682.6454" y1="271.2781" x2="-682.7712" y2="273.4915" gradientTransform="matrix(36.1435 0 0 -180.6617 24177.8887 49465.9102)">
							<stop  offset="0" style="stop-color:#B1A6FF"/>
							<stop  offset="1" style="stop-color:#FEFDFF"/>
						</linearGradient>
						<polygon id="Path-7" class="st57" points="-522,290.9 -502.5,290.9 -475.1,56.4 -519.1,58.8 						"/>
						<path id="Path-9-Copy-3" class="st58" d="M-430.3-15.1l5.8,11.6l44-32.4l3.8-6.3c2.6-3.7,4.1-5.6,4.6-5.7
							c0.5-0.1,0.2,1.8-0.8,5.7c2.4-0.3,4-0.7,4.8-1.2c3.4-2.1,6.4-3.9,6.9-3.5c1.1,0.8-4.7,10.9-11.1,15.1
							c-6.4,4.2-50.7,55.1-59.1,54.5c-5.6-0.4-11.9-9.6-19-27.7L-430.3-15.1z"/>
						
							<linearGradient id="Path-5_1_" gradientUnits="userSpaceOnUse" x1="-682.9128" y1="272.2149" x2="-683.793" y2="274.0528" gradientTransform="matrix(33.9661 3.57 4.5587 -43.3732 21522.9023 14268.917)">
							<stop  offset="0" style="stop-color:#7EDDFF"/>
							<stop  offset="1" style="stop-color:#D48EFF"/>
						</linearGradient>
						<path id="Path-5" class="st59" d="M-456.4-55.3c8.3,1.8,13.8,6.3,16.4,13.7c3.8,11,11.9,27.7,15.6,33.8
							c-6.2,5.8-14.1,9.2-23.5,10.3l-17.3-45.6L-456.4-55.3z"/>
						
							<linearGradient id="Path-4_1_" gradientUnits="userSpaceOnUse" x1="-672.9885" y1="271.7106" x2="-674.1272" y2="273.5484" gradientTransform="matrix(89.2544 9.381 10.5315 -100.2008 56766.8398 33664.7656)">
							<stop  offset="0" style="stop-color:#7EDDFF"/>
							<stop  offset="1" style="stop-color:#D48EFF"/>
						</linearGradient>
						<path id="Path-4" class="st60" d="M-485.6-56.1c-17,2.1-40.9,7.1-46.1,16.5c-5.2,9.4-10.9,22-17.5,38.6l31.5,2.5l-5.2,67.4
							l83.8-2.5c-2.2-8.6-5.1-21.5-8.9-38.8c-5.6-26-1.4-45.2-3.9-56.8c-1.6-7.7-2.7-16.3-3.2-25.6
							C-464.1-57.1-474.2-57.5-485.6-56.1z"/>
						<path class="st58" d="M-478.7-66.2v10c-2.8,10.1-4.9,15.2-6.3,15.2s-5-4.7-10.9-14v-15L-478.7-66.2z"/>
						<path id="Path-2-Copy-2" class="st61" d="M-478.7-66.4v10.2c-4.8-0.1-8.2-0.4-10.1-0.9c-1.9-0.5-4.3-1.7-7.3-3.7v-5.6
							L-478.7-66.4z"/>
						
							<linearGradient id="Path-31_1_" gradientUnits="userSpaceOnUse" x1="-683.4312" y1="276.2246" x2="-684.4882" y2="274.5688" gradientTransform="matrix(33.2144 0.5798 0.635 -36.3797 22056.6328 10318.5557)">
							<stop  offset="0" style="stop-color:#9346A1"/>
							<stop  offset="1" style="stop-color:#5D58B8"/>
						</linearGradient>
						<path id="Path-31" class="st62" d="M-502.9-69.8c-7.6-7.6-13.2-31.1,0.9-32.5c12.2-10.8,22-11.6,29.4-2.3s6.7,18.4-2,27.2
							c-6.8,7.5-11.7,11.7-14.5,12.8C-495-62.4-499.4-66.3-502.9-69.8z"/>
						<path id="Path" class="st58" d="M-487.8-79.1c-3.6,0.8-8.3-0.8-14.3-4.8c-4,0.3-6.1,1.9-6.1,4.8s1.9,4.9,5.9,6.1
							c5.5,10.1,11.7,14.5,18.5,13.2c5.2-1,12.3-10.8,10.9-27.7c-0.1-0.7-0.2-1.5-0.5-2.5C-473.4-90.4-482.4-80.3-487.8-79.1z"/>
					</g>
					
						<g transform="translate(52.551463, 29.292434) rotate(1.000000) translate(-52.551463, -29.292434) translate(35.396554, 0.306273)">
					</g>
					<path class="st58" d="M-546,0.7c-4.3,10-6.5,16.4-6.5,19c0,4,28.4,55.2,35,61c0.5,0.5,2-0.6,3.1-2.5c1.3-2.2,2.2-5.3,2-6.4
						c-0.5-2.1-7.1-19.4-19.9-52l7.1-17.1L-546,0.7z"/>
				</g>
			</g>
			<g id="Group-26-Copy" transform="translate(180.370407, 0.000000)">
			</g>
			
				<g transform="translate(134.638573, 185.743815) scale(-1, 1) translate(-134.638573, -185.743815) translate(67.638573, 33.743815)">
				<g id="Group-13-Copy">
					<g transform="translate(34.783817, 116.707689)">
						
							<linearGradient id="SVGID_14_" gradientUnits="userSpaceOnUse" x1="824.985" y1="141.4535" x2="824.8949" y2="142.7427" gradientTransform="matrix(-58.1693 -4.0676 12.0993 -173.0274 46826.1602 27960.582)">
							<stop  offset="0" style="stop-color:#D762A1"/>
							<stop  offset="1" style="stop-color:#FFA1C0"/>
						</linearGradient>
						<polygon class="st63" points="564.6,156.3 582.9,156.3 560.5,-69.7 522.8,-69.7 						"/>
						<polygon class="st64" points="547,-69.7 522.8,-69.7 541.7,32.1 						"/>
					</g>
					
						<linearGradient id="SVGID_15_" gradientUnits="userSpaceOnUse" x1="854.8812" y1="261.6107" x2="853.6131" y2="260.0009" gradientTransform="matrix(-39.952 0 0 -39.2508 34741.3672 10150.9307)">
						<stop  offset="0" style="stop-color:#FF7C50"/>
						<stop  offset="1" style="stop-color:#EAA05B"/>
					</linearGradient>
					<path class="st65" d="M556.1-106.3c10.6,0.2,19.1,9,19,19.6l-0.4,27.5l0,0l-51.5,3.8l8.7-32.8
						C534.9-99.1,544.9-106.6,556.1-106.3z"/>
					<g transform="translate(22.384388, 120.061260)">
						<g transform="translate(1.074947, 172.450170)">
							<polygon class="st66" points="504.9,-20.1 504.2,-8.2 530.9,-8.2 519.3,-14.2 519.8,-20.1 							"/>
							<path class="st67" d="M504-14.2v6.3h27.9l-10.6-5.6c-0.5,1.6-1.7,2.3-3.7,2.3S511-12.2,504-14.2z"/>
						</g>
						
							<linearGradient id="SVGID_16_" gradientUnits="userSpaceOnUse" x1="830.8676" y1="137.8951" x2="830.8378" y2="139.1843" gradientTransform="matrix(-33.2813 0 0 -172.3246 28178.1934 23888.8242)">
							<stop  offset="0" style="stop-color:#D762A1"/>
							<stop  offset="1" style="stop-color:#FFA1C0"/>
						</linearGradient>
						<polygon class="st68" points="503.9,152.3 521.5,152.3 547.1,-67.1 506.2,-71.3 						"/>
					</g>
					<g transform="translate(81.483255, 292.946835)">
						<polygon class="st66" points="520.8,-20 522.7,-8.8 549.4,-8.1 536.9,-15.1 535.5,-20 						"/>
						<path class="st67" d="M521-13.1l0.9,4.8l27.4,0.2l-8.9-5c-0.5,1.6-1.7,2.3-3.7,2.3S529.5-11.6,521-13.1z"/>
					</g>
					
						<linearGradient id="Path-9_1_" gradientUnits="userSpaceOnUse" x1="859.399" y1="260.2127" x2="858.1765" y2="259.4528" gradientTransform="matrix(-62.0448 0 0 -49.7306 53994.9023 12907.8633)">
						<stop  offset="0" style="stop-color:#FFF3EF"/>
						<stop  offset="1" style="stop-color:#FFE2D9"/>
					</linearGradient>
					<path id="Path-9" class="st69" d="M607.1-15.7l7.4,9.3l40.3-29.7l3.5-5.8c2.4-3.4,3.8-5.1,4.2-5.2c0.4-0.1,0.2,1.7-0.8,5.2
						c2.2-0.3,3.7-0.6,4.4-1.1c0.9-0.6,1.8-1.1,2.5-1.6c1.9-1.2-0.5,8.3-6.3,12.2c-5.8,3.9-40.9,49.8-50.4,49.8
						c-6.4,0-14.1-8-23.2-23.9L607.1-15.7z"/>
					<g transform="translate(0.436271, 31.840176)">
						
							<linearGradient id="SVGID_17_" gradientUnits="userSpaceOnUse" x1="850.5159" y1="229.3353" x2="849.7864" y2="230.6247" gradientTransform="matrix(-29.1835 -3.0673 4.235 -40.2935 24450.4609 11808.1523)">
							<stop  offset="0" style="stop-color:#FFB4E5"/>
							<stop  offset="1" style="stop-color:#FFDA8E"/>
						</linearGradient>
						<path class="st70" d="M582.5-89.1c7.9,2.1,13.1,6.6,15.4,13.3c0.7,2.1,5.5,12.4,14.3,31c-5.7,5.3-12.9,8.4-21.6,9.4
							l-13.3-42.6L582.5-89.1z"/>
						<g id="Group-14" transform="translate(0.000000, 0.416229)">
							<g transform="translate(44.405793, 49.736049) rotate(6.000000) translate(-44.405793, -49.736049) ">
								
									<linearGradient id="SVGID_18_" gradientUnits="userSpaceOnUse" x1="861.5591" y1="226.8608" x2="860.8963" y2="228.0264" gradientTransform="matrix(-78.1671 -8.2157 9.5777 -91.1257 65744.3828 27769.0918)">
									<stop  offset="0" style="stop-color:#FFB4E5"/>
									<stop  offset="1" style="stop-color:#FFDA8E"/>
								</linearGradient>
								<path class="st71" d="M555.2-90.4c-15.6,1.9-35.2,6.7-40,15.3S505-44.9,502.9-32.8l25.9-1.1c2,11.8,2.7,20.2,2.2,25.3
									c-1.2,11.8-6.9,22.2-8,32l77-3.4c-6.8-16.5-9.3-32.6-7.7-48.1c2.5-23.4-4-27.1-6.2-37.7c-1.5-7.1-2.5-14.9-3-23.5
									C574.9-91.3,565.6-91.7,555.2-90.4z"/>
							</g>
						</g>
					</g>
					
						<linearGradient id="Path-2-Copy-5_1_" gradientUnits="userSpaceOnUse" x1="847.4131" y1="267.4396" x2="846.1906" y2="266.8283" gradientTransform="matrix(-24.0829 -2.957 2.1258 -17.3132 20413.5332 7071.5679)">
						<stop  offset="0" style="stop-color:#FFF3EF"/>
						<stop  offset="1" style="stop-color:#FFE2D9"/>
					</linearGradient>
					<path id="Path-2-Copy-5" class="st72" d="M562.8-69.4l1,10.3c3.9,0.1,6.9,0.3,9,0.5c3.2,0.3-8.3,10.5-15.2,10.5
						S538-55,542.1-55.9c2.7-0.6,5.3-1,7.7-1.3v-14.6L562.8-69.4z"/>
					<path id="Path-2-Copy-4" class="st73" d="M562.6-68.8l1.2,8.3c-3.7,0-6.4-0.3-8.2-0.7c-1.8-0.4-3.7-1.3-5.8-2.5l-0.3-5.7
						L562.6-68.8z"/>
					
						<linearGradient id="Path-Copy_1_" gradientUnits="userSpaceOnUse" x1="847.5033" y1="263.0761" x2="846.2808" y2="262.183" gradientTransform="matrix(-25.1439 0 0 -21.8485 21880.9004 5659.6724)">
						<stop  offset="0" style="stop-color:#FFF3EF"/>
						<stop  offset="1" style="stop-color:#FFE2D9"/>
					</linearGradient>
					<path id="Path-Copy" class="st74" d="M542.7-85.6c-3.7,0.3-5.5,1.8-5.5,4.5s1.8,4.5,5.5,5.5c4.4,8.8,10.1,12.7,17.2,11.8
						c2.2-0.3,6.5-3.4,8.2-9.4c1-3.4,1.5-9.7,1.7-18.8c-2.8,5.2-7.2,8.3-13.1,9.4c-5.9,1.1-10.1-0.8-12.6-5.6L542.7-85.6z"/>
				</g>
				<g id="Group-Copy" transform="translate(29.448230, 45.717427)">
					<path class="st75" d="M507.5-45.1h68c1.2,0,2.3,1,2.3,2.3l0,0c0,1.2-1,2.3-2.3,2.3h-68c-1.2,0-2.3-1-2.3-2.3l0,0
						C505.3-44.1,506.3-45.1,507.5-45.1z"/>
					<path id="Rectangle-Copy-2" class="st76" d="M521.1-45.1h54.4c1.2,0,2.3,1,2.3,2.3l0,0c0,1.2-1,2.3-2.3,2.3h-54.4
						c-1.2,0-2.3-1-2.3-2.3l0,0C518.9-44.1,519.9-45.1,521.1-45.1z"/>
					<path class="st77" d="M555.5-93.7h64.8c1.8,0,3.3,1.5,3.3,3.3c0,0.4-0.1,0.9-0.3,1.3L605-46.1c-1.4,3.4-4.7,5.6-8.4,5.6h-64.8
						c-1.8,0-3.3-1.5-3.3-3.3c0-0.4,0.1-0.9,0.3-1.3l18.3-42.9C548.5-91.5,551.8-93.7,555.5-93.7z"/>
					<path class="st78" d="M579.6-72.2h0.3c2.5,0,4.5,2,4.5,4.5c0,0.6-0.1,1.2-0.4,1.8c-1.6,3.8-5.3,6.2-9.4,6.2h-0.3
						c-2.5,0-4.5-2-4.5-4.5c0-0.6,0.1-1.2,0.4-1.8C571.8-69.7,575.5-72.2,579.6-72.2z"/>
				</g>
				
					<linearGradient id="Path-45_1_" gradientUnits="userSpaceOnUse" x1="860.9844" y1="262.176" x2="859.7618" y2="262.0916" gradientTransform="matrix(-72.8474 0 0 -19.4576 63320.2266 5110.5933)">
					<stop  offset="0" style="stop-color:#FFF3EF"/>
					<stop  offset="1" style="stop-color:#FFE2D9"/>
				</linearGradient>
				<path id="Path-45" class="st79" d="M507.1-1c-2.4,11.4-2.4,19,0,22.8s27.9,0.1,76.5-11c9,1.2,14.4-0.7,16.2-5.9l-72.1-0.5
					l1.4-6.3L507.1-1z"/>
			</g>
		</g>
	</g>
</g>
</svg>
