<svg width="391" height="520" viewBox="0 0 391 520" fill="none" xmlns="http://www.w3.org/2000/svg">
<g filter="url(#filter0_d_6739_3543)">
<rect x="24" y="19.75" width="223" height="196" rx="16" fill="white" shape-rendering="crispEdges"/>
<path d="M87.2595 41.51C86.7795 41.51 86.3795 41.11 86.3795 40.63C86.3795 40.15 86.7795 39.75 87.2595 39.75C87.7395 39.75 88.1235 40.15 88.1235 40.63C88.1235 41.11 87.7555 41.51 87.2595 41.51ZM89.4515 41.51C88.9395 41.51 88.5715 41.126 88.5715 40.63C88.5715 40.15 88.9395 39.75 89.4515 39.75C89.9315 39.75 90.3155 40.15 90.3155 40.63C90.3155 41.11 89.9315 41.51 89.4515 41.51ZM93.1315 49.574L93.4035 49.622L93.3075 51.686L93.0355 51.75C91.1795 51.75 90.2355 50.822 89.9955 49.286C89.6595 50.134 88.9395 50.758 87.5955 50.758C85.8035 50.758 84.6035 49.606 84.6035 47.83C84.6035 45.894 85.9795 44.342 89.8035 43.59V42.454H91.4515V48.006C91.4515 49.366 92.1075 49.574 93.1315 49.574ZM87.8035 48.566C88.8275 48.566 89.4995 48.278 89.8035 47.942V45.51C86.9715 46.022 86.0595 46.79 86.0595 47.542C86.0595 48.246 86.8595 48.566 87.8035 48.566ZM98.357 49.574L98.629 49.622L98.533 51.702L98.261 51.75C96.885 51.75 95.925 51.238 95.541 50.166C95.205 51.126 94.373 51.75 93.029 51.75L92.757 51.702L92.853 49.622L93.125 49.574C94.309 49.574 94.917 49.35 94.917 47.974V45.67H96.581V47.91C96.581 49.334 97.077 49.574 98.357 49.574ZM94.661 52.854C95.141 52.854 95.525 53.254 95.525 53.734C95.525 54.214 95.157 54.598 94.661 54.598C94.181 54.598 93.781 54.214 93.781 53.734C93.781 53.254 94.181 52.854 94.661 52.854ZM96.853 52.854C97.333 52.854 97.717 53.254 97.717 53.734C97.717 54.214 97.333 54.598 96.853 54.598C96.341 54.598 95.973 54.23 95.973 53.734C95.973 53.254 96.341 52.854 96.853 52.854ZM112.743 49.574L113.015 49.622L112.919 51.702L112.647 51.75C111.047 51.75 110.135 51.254 109.815 50.278C109.511 51.27 108.727 51.75 107.639 51.75C106.423 51.75 105.671 51.286 105.367 50.342C105.031 51.302 104.231 51.75 103.127 51.75C101.975 51.75 101.143 51.302 100.807 50.31C100.487 51.286 99.6074 51.75 98.2634 51.75L97.9914 51.702L98.0874 49.622L98.3594 49.574C99.5434 49.574 100.231 49.35 100.231 48.246V46.55H101.895V48.246C101.895 49.35 102.471 49.574 103.351 49.574C104.215 49.574 104.791 49.35 104.791 48.246V46.55H106.455V48.246C106.455 49.35 106.999 49.574 107.847 49.574C108.615 49.574 109.191 49.35 109.191 48.246V46.55H110.855V48.246C110.855 49.286 111.447 49.574 112.743 49.574ZM117.982 49.574L118.254 49.622L118.158 51.702L117.886 51.75C116.51 51.75 115.55 51.238 115.166 50.166C114.83 51.126 113.998 51.75 112.654 51.75L112.382 51.702L112.478 49.622L112.75 49.574C113.934 49.574 114.542 49.35 114.542 47.974V45.67H116.206V47.91C116.206 49.334 116.702 49.574 117.982 49.574ZM114.286 52.854C114.766 52.854 115.15 53.254 115.15 53.734C115.15 54.214 114.782 54.598 114.286 54.598C113.806 54.598 113.406 54.214 113.406 53.734C113.406 53.254 113.806 52.854 114.286 52.854ZM116.478 52.854C116.958 52.854 117.342 53.254 117.342 53.734C117.342 54.214 116.958 54.598 116.478 54.598C115.966 54.598 115.598 54.23 115.598 53.734C115.598 53.254 115.966 52.854 116.478 52.854ZM120.368 43.046H121.568V44.086H118.512V43.094H118.976C118.88 42.934 118.816 42.726 118.816 42.47C118.816 41.766 119.312 41.062 120.224 41.062C120.752 41.062 121.184 41.35 121.392 41.718L120.96 42.47C120.784 42.342 120.56 42.182 120.224 42.182C119.872 42.182 119.52 42.358 119.52 42.63C119.52 42.87 119.824 43.046 120.368 43.046ZM119.264 45.238L120.848 44.79C121.12 45.734 121.376 46.966 121.376 48.07C121.376 50.406 120.096 51.75 117.888 51.75L117.616 51.654L117.712 49.67L117.984 49.574C119.168 49.574 119.728 49.142 119.728 48.214C119.728 47.43 119.488 46.23 119.264 45.238ZM126.554 49.574H127.85L128.122 49.654L128.026 51.67L127.754 51.75H126.426C125.946 53.814 124.394 55.286 122.154 55.286C121.45 55.286 120.858 55.158 120.602 55.078L120.746 53.062C121.13 53.11 121.482 53.126 121.85 53.126C124.01 53.126 124.938 51.782 124.938 50.534C124.938 49.43 124.602 48.022 124.298 46.374L125.946 45.91C126.218 47.174 126.474 48.454 126.554 49.574ZM129.524 40.294H131.252V48.006C131.252 50.662 129.732 51.75 127.748 51.75L127.476 51.702L127.572 49.622L127.844 49.574C128.916 49.574 129.524 49.334 129.524 48.118V40.294ZM135.192 51.75H133.464V40.294H135.192V51.75ZM142.931 41.51C142.451 41.51 142.051 41.11 142.051 40.63C142.051 40.15 142.451 39.75 142.931 39.75C143.411 39.75 143.795 40.15 143.795 40.63C143.795 41.11 143.427 41.51 142.931 41.51ZM145.123 41.51C144.611 41.51 144.243 41.126 144.243 40.63C144.243 40.15 144.611 39.75 145.123 39.75C145.603 39.75 145.987 40.15 145.987 40.63C145.987 41.11 145.603 41.51 145.123 41.51ZM148.803 49.574L149.075 49.622L148.979 51.686L148.707 51.75C146.851 51.75 145.907 50.822 145.667 49.286C145.331 50.134 144.611 50.758 143.267 50.758C141.475 50.758 140.275 49.606 140.275 47.83C140.275 45.894 141.651 44.342 145.475 43.59V42.454H147.123V48.006C147.123 49.366 147.779 49.574 148.803 49.574ZM143.475 48.566C144.499 48.566 145.171 48.278 145.475 47.942V45.51C142.643 46.022 141.731 46.79 141.731 47.542C141.731 48.246 142.531 48.566 143.475 48.566ZM160.909 49.574L161.181 49.622L161.085 51.702L160.813 51.75C158.333 51.75 157.725 50.566 157.645 48.694H157.165C153.581 51.27 151.549 51.75 148.701 51.75L148.429 51.702L148.525 49.622L148.797 49.574C150.621 49.574 152.669 49.462 155.917 47.814C155.693 47.718 155.453 47.606 155.197 47.478C154.285 47.046 153.341 46.598 152.157 46.598C151.085 46.598 150.365 47.014 149.933 47.302L149.261 45.878C149.645 45.318 150.813 44.502 152.365 44.502C153.901 44.502 154.845 45.19 155.757 45.686C157.085 46.406 157.373 46.502 158.349 46.502H160.077L159.917 48.694H158.717C158.957 49.35 159.565 49.574 160.909 49.574ZM165.194 42.39C164.602 42.39 164.202 41.942 164.202 41.414C164.202 40.886 164.602 40.438 165.194 40.438C165.77 40.438 166.17 40.886 166.17 41.414C166.17 41.942 165.77 42.39 165.194 42.39ZM169.274 49.574L169.546 49.622L169.45 51.702L169.178 51.75C167.658 51.75 166.202 51.462 164.986 50.95C163.978 51.414 162.554 51.75 160.81 51.75L160.538 51.702L160.634 49.622L160.906 49.574C161.546 49.574 162.154 49.542 162.746 49.478C162.154 48.838 161.802 48.102 161.802 47.286C161.802 45.398 163.098 43.574 165.194 43.574C167.066 43.574 168.314 45.254 168.314 47.014C168.314 47.974 167.914 48.774 167.226 49.462C167.85 49.542 168.538 49.574 169.274 49.574ZM163.258 47.27C163.258 48.006 163.898 48.598 165.034 49.014C166.138 48.63 166.858 48.07 166.858 47.382C166.858 46.534 166.154 45.75 165.066 45.75C163.994 45.75 163.258 46.502 163.258 47.27ZM184.449 49.574L184.721 49.622L184.625 51.702L184.353 51.75C183.121 51.75 182.449 51.43 182.097 50.886C181.329 51.446 180.209 51.75 178.721 51.75H174.065C172.929 51.75 172.017 51.27 171.681 50.23C171.361 51.254 170.481 51.75 169.185 51.75L168.913 51.702L169.009 49.622L169.281 49.574C170.273 49.574 170.945 49.302 170.945 48.15V46.47H172.641V48.182C172.641 49.046 173.025 49.414 173.617 49.526C175.425 46.278 177.537 44.342 179.953 44.342C182.081 44.342 183.409 46.134 183.409 48.038C183.409 48.55 183.329 48.998 183.185 49.414C183.457 49.51 183.841 49.574 184.449 49.574ZM175.009 49.574H178.993C180.689 49.574 181.905 49.174 181.905 48.246C181.905 47.43 181.105 46.518 179.713 46.518C177.825 46.518 176.209 47.878 175.009 49.574ZM186.133 40.294H187.861V48.006C187.861 50.662 186.341 51.75 184.357 51.75L184.085 51.702L184.181 49.622L184.453 49.574C185.525 49.574 186.133 49.334 186.133 48.118V40.294ZM191.802 51.75H190.074V40.294H191.802V51.75ZM211.573 49.574L211.845 49.622L211.749 51.702L211.477 51.75C210.037 51.75 209.061 51.19 208.709 50.022C208.229 51.126 207.061 51.75 204.869 51.75H201.765C198.197 51.75 196.885 50.278 196.885 47.798C196.885 46.822 197.109 45.654 197.589 44.614L199.029 45.126C198.709 45.958 198.533 46.646 198.533 47.334C198.533 48.87 199.589 49.574 201.909 49.574H204.869C207.077 49.574 208.133 49.094 208.133 47.99V45.67H209.797V47.91C209.797 49.334 210.293 49.574 211.573 49.574ZM203.557 52.838C204.133 52.838 204.533 53.286 204.533 53.814C204.533 54.342 204.133 54.79 203.557 54.79C202.965 54.79 202.565 54.342 202.565 53.814C202.565 53.286 202.965 52.838 203.557 52.838ZM216.81 49.574L217.082 49.622L216.986 51.702L216.714 51.75C215.338 51.75 214.378 51.238 213.994 50.166C213.658 51.126 212.826 51.75 211.482 51.75L211.21 51.702L211.306 49.622L211.578 49.574C212.762 49.574 213.37 49.35 213.37 47.974V45.67H215.034V47.91C215.034 49.334 215.53 49.574 216.81 49.574ZM213.114 52.854C213.594 52.854 213.978 53.254 213.978 53.734C213.978 54.214 213.61 54.598 213.114 54.598C212.634 54.598 212.234 54.214 212.234 53.734C212.234 53.254 212.634 52.854 213.114 52.854ZM215.306 52.854C215.786 52.854 216.17 53.254 216.17 53.734C216.17 54.214 215.786 54.598 215.306 54.598C214.794 54.598 214.426 54.23 214.426 53.734C214.426 53.254 214.794 52.854 215.306 52.854ZM216.909 42.902C216.909 42.422 217.309 42.022 217.789 42.022C218.269 42.022 218.653 42.422 218.653 42.902C218.653 43.382 218.285 43.782 217.789 43.782C217.309 43.782 216.909 43.382 216.909 42.902ZM219.101 42.902C219.101 42.422 219.469 42.022 219.981 42.022C220.461 42.022 220.845 42.422 220.845 42.902C220.845 43.382 220.461 43.782 219.981 43.782C219.469 43.782 219.101 43.398 219.101 42.902ZM216.716 51.75L216.444 51.654L216.54 49.67L216.812 49.574C217.997 49.574 218.557 49.142 218.557 48.214C218.557 47.43 218.317 46.23 218.093 45.238L219.677 44.79C219.949 45.734 220.205 46.966 220.205 48.07C220.205 50.406 218.924 51.75 216.716 51.75ZM225.382 49.574H226.678L226.95 49.654L226.854 51.67L226.582 51.75H225.254C224.774 53.814 223.222 55.286 220.982 55.286C220.278 55.286 219.686 55.158 219.43 55.078L219.574 53.062C219.958 53.11 220.31 53.126 220.678 53.126C222.838 53.126 223.766 51.782 223.766 50.534C223.766 49.43 223.43 48.022 223.126 46.374L224.774 45.91C225.046 47.174 225.302 48.454 225.382 49.574ZM226.768 42.902C226.768 42.422 227.168 42.022 227.648 42.022C228.128 42.022 228.512 42.422 228.512 42.902C228.512 43.382 228.144 43.782 227.648 43.782C227.168 43.782 226.768 43.382 226.768 42.902ZM228.96 42.902C228.96 42.422 229.328 42.022 229.84 42.022C230.32 42.022 230.704 42.422 230.704 42.902C230.704 43.382 230.32 43.782 229.84 43.782C229.328 43.782 228.96 43.398 228.96 42.902ZM226.576 51.75L226.304 51.654L226.4 49.67L226.672 49.574C227.856 49.574 228.416 49.142 228.416 48.214C228.416 47.43 228.176 46.23 227.952 45.238L229.536 44.79C229.808 45.734 230.064 46.966 230.064 48.07C230.064 50.406 228.784 51.75 226.576 51.75Z" fill="#999999"/>
<rect x="40" y="69.75" width="191" height="38" rx="8" fill="#F8F8F8"/>
<path d="M153.356 84.218C152.838 84.218 152.488 83.826 152.488 83.364C152.488 82.902 152.838 82.51 153.356 82.51C153.86 82.51 154.21 82.902 154.21 83.364C154.21 83.826 153.86 84.218 153.356 84.218ZM157.57 89.846L157.808 89.888L157.724 91.708L157.486 91.75C156.408 91.75 155.82 91.47 155.512 90.994C154.84 91.484 153.86 91.75 152.558 91.75H147.896C147.448 93.71 145.894 94.9 143.458 94.9C140.7 94.9 139.132 93.332 139.132 90.98C139.132 89.622 139.51 88.432 139.902 87.634L141.162 88.082C140.854 88.754 140.588 89.804 140.588 90.574C140.588 92.212 141.708 92.996 143.556 92.996C145.418 92.996 146.566 92.198 146.566 90.756C146.566 89.776 146.286 88.684 145.95 87.382L147.42 86.99C147.686 87.956 147.924 88.908 147.994 89.846H148.064C149.66 86.99 151.55 85.268 153.636 85.268C155.484 85.268 156.66 86.836 156.66 88.502C156.66 88.95 156.59 89.342 156.464 89.706C156.702 89.79 157.038 89.846 157.57 89.846ZM149.31 89.846H152.796C154.28 89.846 155.344 89.496 155.344 88.684C155.344 87.97 154.644 87.172 153.426 87.172C151.802 87.172 150.36 88.362 149.31 89.846ZM157.482 91.75L157.244 91.666L157.328 89.93L157.566 89.846C158.602 89.846 159.092 89.468 159.092 88.656C159.092 87.97 158.882 86.92 158.686 86.052L160.072 85.66C160.31 86.486 160.534 87.564 160.534 88.53C160.534 90.574 159.414 91.75 157.482 91.75ZM158.056 94.242C157.636 94.242 157.286 93.906 157.286 93.486C157.286 93.066 157.636 92.716 158.056 92.716C158.476 92.716 158.812 93.066 158.812 93.486C158.812 93.906 158.49 94.242 158.056 94.242ZM159.974 94.242C159.526 94.242 159.204 93.92 159.204 93.486C159.204 93.066 159.526 92.716 159.974 92.716C160.394 92.716 160.73 93.066 160.73 93.486C160.73 93.906 160.394 94.242 159.974 94.242ZM166.446 89.846H167.58L167.818 89.916L167.734 91.68L167.496 91.75H166.334C165.914 93.556 164.556 94.844 162.596 94.844C161.98 94.844 161.462 94.732 161.238 94.662L161.364 92.898C161.7 92.94 162.008 92.954 162.33 92.954C164.22 92.954 165.032 91.778 165.032 90.686C165.032 89.72 164.738 88.488 164.472 87.046L165.914 86.64C166.152 87.746 166.376 88.866 166.446 89.846ZM171.732 89.846H174.7V91.75H167.49L167.252 91.68L167.322 89.944L167.574 89.846H169.03C168.61 89.44 168.372 88.866 168.372 88.11C168.372 86.528 169.576 84.96 171.578 84.96C172.922 84.96 173.832 85.8 174.168 86.346L173.384 87.648C173.006 87.312 172.334 86.864 171.508 86.864C170.444 86.864 169.716 87.536 169.716 88.334C169.716 89.356 170.71 89.846 171.732 89.846ZM182.729 89.846H183.863L184.101 89.916L184.017 91.68L183.779 91.75H182.617C182.197 93.556 180.839 94.844 178.879 94.844C178.263 94.844 177.745 94.732 177.521 94.662L177.647 92.898C177.983 92.94 178.291 92.954 178.613 92.954C180.503 92.954 181.315 91.778 181.315 90.686C181.315 89.72 181.021 88.488 180.755 87.046L182.197 86.64C182.435 87.746 182.659 88.866 182.729 89.846ZM185.663 84.792C185.145 84.792 184.795 84.4 184.795 83.938C184.795 83.476 185.145 83.084 185.663 83.084C186.167 83.084 186.517 83.476 186.517 83.938C186.517 84.4 186.167 84.792 185.663 84.792ZM183.773 91.75L183.535 91.666L183.619 89.93L183.857 89.846C184.893 89.846 185.383 89.468 185.383 88.656C185.383 87.97 185.173 86.92 184.977 86.052L186.363 85.66C186.601 86.486 186.825 87.564 186.825 88.53C186.825 90.574 185.705 91.75 183.773 91.75ZM188.321 89.146V81.726H189.833V88.558C189.833 89.622 190.435 89.846 191.303 89.846H191.373L191.611 89.888L191.527 91.708L191.289 91.75H191.233C189.469 91.75 188.321 90.966 188.321 89.146ZM191.293 91.75L191.055 91.666L191.139 89.93L191.377 89.846C192.413 89.846 192.903 89.468 192.903 88.656C192.903 87.97 192.693 86.92 192.497 86.052L193.883 85.66C194.121 86.486 194.345 87.564 194.345 88.53C194.345 90.574 193.225 91.75 191.293 91.75ZM192.833 94.41C192.315 94.41 191.965 94.018 191.965 93.556C191.965 93.094 192.315 92.702 192.833 92.702C193.337 92.702 193.687 93.094 193.687 93.556C193.687 94.018 193.337 94.41 192.833 94.41Z" fill="#004956"/>
<path d="M206.334 82.9167L219.667 82.9167" stroke="#BBBBBB" stroke-width="1.5" stroke-linecap="round" stroke-linejoin="round"/>
<path d="M206.334 88.75L219.667 88.75" stroke="#BBBBBB" stroke-width="1.5" stroke-linecap="round" stroke-linejoin="round"/>
<path d="M206.334 94.5833L219.667 94.5833" stroke="#BBBBBB" stroke-width="1.5" stroke-linecap="round" stroke-linejoin="round"/>
<rect x="40" y="115.75" width="191" height="38" rx="8" fill="#F8F8F8"/>
<path d="M126.663 128.79C126.243 128.79 125.893 128.44 125.893 128.02C125.893 127.6 126.243 127.25 126.663 127.25C127.083 127.25 127.419 127.6 127.419 128.02C127.419 128.44 127.097 128.79 126.663 128.79ZM128.581 128.79C128.133 128.79 127.811 128.454 127.811 128.02C127.811 127.6 128.133 127.25 128.581 127.25C129.001 127.25 129.337 127.6 129.337 128.02C129.337 128.44 129.001 128.79 128.581 128.79ZM131.801 135.846L132.039 135.888L131.955 137.694L131.717 137.75C130.093 137.75 129.267 136.938 129.057 135.594C128.763 136.336 128.133 136.882 126.957 136.882C125.389 136.882 124.339 135.874 124.339 134.32C124.339 132.626 125.543 131.268 128.889 130.61V129.616H130.331V134.474C130.331 135.664 130.905 135.846 131.801 135.846ZM127.139 134.964C128.035 134.964 128.623 134.712 128.889 134.418V132.29C126.411 132.738 125.613 133.41 125.613 134.068C125.613 134.684 126.313 134.964 127.139 134.964ZM138.095 129L133.727 131.366C135.631 132.388 137.045 133.27 137.045 134.922C137.045 136.812 135.757 137.75 133.517 137.75H131.711L131.473 137.708L131.557 135.888L131.795 135.846H133.867C134.889 135.846 135.687 135.608 135.687 135.048C135.687 134.138 134.427 133.55 132.033 132.318V130.68L137.563 127.572L138.095 129ZM141.782 135.846H142.916L143.154 135.916L143.07 137.68L142.832 137.75H141.67C141.25 139.556 139.892 140.844 137.932 140.844C137.316 140.844 136.798 140.732 136.574 140.662L136.7 138.898C137.036 138.94 137.344 138.954 137.666 138.954C139.556 138.954 140.368 137.778 140.368 136.686C140.368 135.72 140.074 134.488 139.808 133.046L141.25 132.64C141.488 133.746 141.712 134.866 141.782 135.846ZM153.508 135.846L153.746 135.888L153.662 137.708L153.424 137.75C151.254 137.75 150.722 136.714 150.652 135.076H150.232C147.096 137.33 145.318 137.75 142.826 137.75L142.588 137.708L142.672 135.888L142.91 135.846C144.506 135.846 146.298 135.748 149.14 134.306C148.944 134.222 148.734 134.124 148.51 134.012C147.712 133.634 146.886 133.242 145.85 133.242C144.912 133.242 144.282 133.606 143.904 133.858L143.316 132.612C143.652 132.122 144.674 131.408 146.032 131.408C147.376 131.408 148.202 132.01 149 132.444C150.162 133.074 150.414 133.158 151.268 133.158H152.78L152.64 135.076H151.59C151.8 135.65 152.332 135.846 153.508 135.846ZM154.836 131.38C154.416 131.38 154.066 131.03 154.066 130.61C154.066 130.19 154.416 129.84 154.836 129.84C155.256 129.84 155.592 130.19 155.592 130.61C155.592 131.03 155.27 131.38 154.836 131.38ZM156.754 131.38C156.306 131.38 155.984 131.044 155.984 130.61C155.984 130.19 156.306 129.84 156.754 129.84C157.174 129.84 157.51 130.19 157.51 130.61C157.51 131.03 157.174 131.38 156.754 131.38ZM158.084 135.846L158.322 135.888L158.238 137.708L158 137.75C156.796 137.75 155.956 137.302 155.62 136.364C155.326 137.204 154.598 137.75 153.422 137.75L153.184 137.708L153.268 135.888L153.506 135.846C154.542 135.846 155.074 135.65 155.074 134.446V132.43H156.53V134.39C156.53 135.636 156.964 135.846 158.084 135.846ZM162.832 131.744C164.414 131.744 165.534 133.102 165.534 134.922C165.534 136.602 164.414 137.806 162.468 137.806C161.138 137.806 160.312 137.204 159.962 136.532C159.626 137.344 158.87 137.75 158.002 137.75L157.764 137.708L157.848 135.888L158.086 135.846C158.66 135.846 159.29 135.72 159.57 134.936C160.06 132.85 161.264 131.744 162.832 131.744ZM162.608 135.916C163.644 135.916 164.246 135.552 164.246 135.006C164.246 134.25 163.574 133.62 162.664 133.62C161.74 133.62 161.026 134.194 160.676 135.23C160.928 135.566 161.516 135.916 162.608 135.916ZM173.679 136.308C173.679 138.758 172.195 140.704 169.801 140.704C169.185 140.704 168.667 140.592 168.443 140.522L168.569 138.758C168.905 138.8 169.213 138.814 169.535 138.814C171.425 138.814 172.237 137.596 172.237 136.504C172.237 135.496 171.901 134.194 171.537 132.598L172.979 132.192C173.357 133.55 173.679 135.132 173.679 136.308ZM181.213 135.846H182.025L182.263 135.972L182.179 137.61L181.941 137.75H180.961C180.443 139.486 179.127 140.844 176.495 140.844C175.627 140.844 174.815 140.704 174.451 140.592L174.577 138.898C175.053 138.968 175.711 139.066 176.537 139.066C178.385 139.066 179.393 138.408 179.813 137.638H177.909C176.145 137.638 175.333 136.56 175.333 135.23C175.333 133.326 176.593 131.8 178.343 131.8C180.191 131.8 181.213 133.606 181.213 135.832V135.846ZM176.579 135.062C176.579 135.58 177.167 135.846 178.105 135.846H180.009C179.869 134.712 179.295 133.662 178.189 133.662C177.111 133.662 176.579 134.446 176.579 135.062ZM191.363 131.268C193.225 131.268 194.387 132.836 194.387 134.502C194.387 136.504 193.085 137.75 190.285 137.75H186.211C185.217 137.75 184.419 137.33 184.125 136.42C183.845 137.316 183.075 137.75 181.941 137.75L181.703 137.708L181.787 135.888L182.025 135.846C182.893 135.846 183.481 135.608 183.481 134.6V133.13H184.965V134.628C184.965 135.384 185.301 135.706 185.819 135.804C187.401 132.962 189.249 131.268 191.363 131.268ZM187.037 135.846H190.523C192.007 135.846 193.071 135.496 193.071 134.684C193.071 133.97 192.371 133.172 191.153 133.172C189.501 133.172 188.087 134.362 187.037 135.846Z" fill="#004956"/>
<path d="M206.334 128.917L219.667 128.917" stroke="#BBBBBB" stroke-width="1.5" stroke-linecap="round" stroke-linejoin="round"/>
<path d="M206.334 134.75L219.667 134.75" stroke="#BBBBBB" stroke-width="1.5" stroke-linecap="round" stroke-linejoin="round"/>
<path d="M206.334 140.583L219.667 140.583" stroke="#BBBBBB" stroke-width="1.5" stroke-linecap="round" stroke-linejoin="round"/>
<rect x="40" y="161.75" width="191" height="38" rx="8" fill="#F8F8F8"/>
<path d="M116.653 181.846H117.787L118.025 181.916L117.941 183.68L117.703 183.75H116.541C116.121 185.556 114.763 186.844 112.803 186.844C112.187 186.844 111.669 186.732 111.445 186.662L111.571 184.898C111.907 184.94 112.215 184.954 112.537 184.954C114.427 184.954 115.239 183.778 115.239 182.686C115.239 181.72 114.945 180.488 114.679 179.046L116.121 178.64C116.359 179.746 116.583 180.866 116.653 181.846ZM128.379 181.846L128.617 181.888L128.533 183.708L128.295 183.75C126.125 183.75 125.593 182.714 125.523 181.076H125.103C121.967 183.33 120.189 183.75 117.697 183.75L117.459 183.708L117.543 181.888L117.781 181.846C119.377 181.846 121.169 181.748 124.011 180.306C123.815 180.222 123.605 180.124 123.381 180.012C122.583 179.634 121.757 179.242 120.721 179.242C119.783 179.242 119.153 179.606 118.775 179.858L118.187 178.612C118.523 178.122 119.545 177.408 120.903 177.408C122.247 177.408 123.073 178.01 123.871 178.444C125.033 179.074 125.285 179.158 126.139 179.158H127.651L127.511 181.076H126.461C126.671 181.65 127.203 181.846 128.379 181.846ZM124.039 183.526C124.543 183.526 124.893 183.918 124.893 184.38C124.893 184.842 124.543 185.234 124.039 185.234C123.521 185.234 123.171 184.842 123.171 184.38C123.171 183.918 123.521 183.526 124.039 183.526ZM129.707 177.38C129.287 177.38 128.937 177.03 128.937 176.61C128.937 176.19 129.287 175.84 129.707 175.84C130.127 175.84 130.463 176.19 130.463 176.61C130.463 177.03 130.141 177.38 129.707 177.38ZM131.625 177.38C131.177 177.38 130.855 177.044 130.855 176.61C130.855 176.19 131.177 175.84 131.625 175.84C132.045 175.84 132.381 176.19 132.381 176.61C132.381 177.03 132.045 177.38 131.625 177.38ZM132.955 181.846L133.193 181.888L133.109 183.708L132.871 183.75C131.667 183.75 130.827 183.302 130.491 182.364C130.197 183.204 129.469 183.75 128.293 183.75L128.055 183.708L128.139 181.888L128.377 181.846C129.413 181.846 129.945 181.65 129.945 180.446V178.43H131.401V180.39C131.401 181.636 131.835 181.846 132.955 181.846ZM141.903 181.846L142.141 181.888L142.057 183.708L141.819 183.75C140.825 183.75 140.055 183.33 139.719 182.49C139.369 183.162 138.515 183.806 137.171 183.806C136.093 183.806 135.309 183.428 134.861 182.798C134.483 183.414 133.755 183.75 132.873 183.75L132.635 183.708L132.719 181.888L132.957 181.846C133.629 181.846 134.133 181.72 134.399 181.398C134.385 181.314 134.385 181.244 134.385 181.16C134.385 179.298 135.687 177.744 137.521 177.744C138.935 177.744 139.873 178.668 140.405 180.446C140.727 181.524 141.077 181.846 141.903 181.846ZM137.255 181.916C138.291 181.916 138.893 181.594 139.187 181.258C138.879 180.278 138.291 179.648 137.311 179.648C136.359 179.648 135.645 180.25 135.645 181.006C135.645 181.552 136.205 181.916 137.255 181.916ZM143.368 173.726H144.88V180.474C144.88 182.798 143.55 183.75 141.814 183.75L141.576 183.708L141.66 181.888L141.898 181.846C142.836 181.846 143.368 181.636 143.368 180.572V173.726ZM148.328 183.75H146.816V173.726H148.328V183.75ZM156.766 176.722C156.766 176.302 157.116 175.952 157.536 175.952C157.956 175.952 158.292 176.302 158.292 176.722C158.292 177.142 157.97 177.492 157.536 177.492C157.116 177.492 156.766 177.142 156.766 176.722ZM158.684 176.722C158.684 176.302 159.006 175.952 159.454 175.952C159.874 175.952 160.21 176.302 160.21 176.722C160.21 177.142 159.874 177.492 159.454 177.492C159.006 177.492 158.684 177.156 158.684 176.722ZM159.664 183.75H157.046C153.924 183.75 152.776 182.462 152.776 180.292C152.776 179.438 152.972 178.416 153.392 177.506L154.652 177.954C154.372 178.682 154.218 179.284 154.218 179.886C154.218 181.23 155.142 181.846 157.172 181.846H159.65C161.834 181.846 162.744 181.314 162.744 180.208C162.744 179.312 162.506 178.36 162.268 177.422L163.696 177.03C163.948 177.898 164.2 179.018 164.2 180.082C164.2 182.336 163.038 183.75 159.664 183.75ZM167.305 183.75H165.793V173.726H167.305V183.75ZM170.923 177.226C170.405 177.226 170.055 176.834 170.055 176.372C170.055 175.91 170.405 175.518 170.923 175.518C171.427 175.518 171.777 175.91 171.777 176.372C171.777 176.834 171.427 177.226 170.923 177.226ZM177.993 181.846L178.231 181.888L178.147 183.708L177.909 183.75C176.425 183.75 175.459 183.26 175.249 181.902H172.393C172.407 182.042 172.407 182.182 172.407 182.308C172.407 184.758 170.923 186.704 168.529 186.704C167.913 186.704 167.395 186.592 167.171 186.522L167.297 184.758C167.633 184.8 167.941 184.814 168.263 184.814C170.153 184.814 170.965 183.596 170.965 182.504C170.965 181.496 170.629 180.194 170.265 178.598L171.707 178.192C171.875 178.808 172.043 179.466 172.155 180.11H175.067V177.912H176.523V180.39C176.523 181.636 176.999 181.846 177.993 181.846ZM174.241 184.716C174.661 184.716 174.997 185.066 174.997 185.486C174.997 185.906 174.675 186.242 174.241 186.242C173.821 186.242 173.471 185.906 173.471 185.486C173.471 185.066 173.821 184.716 174.241 184.716ZM176.159 184.716C176.579 184.716 176.915 185.066 176.915 185.486C176.915 185.906 176.579 186.242 176.159 186.242C175.711 186.242 175.389 185.92 175.389 185.486C175.389 185.066 175.711 184.716 176.159 184.716ZM186.938 181.846L187.176 181.888L187.092 183.708L186.854 183.75C185.86 183.75 185.09 183.33 184.754 182.49C184.404 183.162 183.55 183.806 182.206 183.806C181.128 183.806 180.344 183.428 179.896 182.798C179.518 183.414 178.79 183.75 177.908 183.75L177.67 183.708L177.754 181.888L177.992 181.846C178.664 181.846 179.168 181.72 179.434 181.398C179.42 181.314 179.42 181.244 179.42 181.16C179.42 179.298 180.722 177.744 182.556 177.744C183.97 177.744 184.908 178.668 185.44 180.446C185.762 181.524 186.112 181.846 186.938 181.846ZM182.29 181.916C183.326 181.916 183.928 181.594 184.222 181.258C183.914 180.278 183.326 179.648 182.346 179.648C181.394 179.648 180.68 180.25 180.68 181.006C180.68 181.552 181.24 181.916 182.29 181.916ZM191.68 177.744C193.262 177.744 194.382 179.102 194.382 180.922C194.382 182.602 193.262 183.806 191.316 183.806C189.986 183.806 189.16 183.204 188.81 182.532C188.474 183.344 187.718 183.75 186.85 183.75L186.612 183.708L186.696 181.888L186.934 181.846C187.508 181.846 188.138 181.72 188.418 180.936C188.908 178.85 190.112 177.744 191.68 177.744ZM191.456 181.916C192.492 181.916 193.094 181.552 193.094 181.006C193.094 180.25 192.422 179.62 191.512 179.62C190.588 179.62 189.874 180.194 189.524 181.23C189.776 181.566 190.364 181.916 191.456 181.916Z" fill="#004956"/>
<path d="M206.334 174.917L219.667 174.917" stroke="#BBBBBB" stroke-width="1.5" stroke-linecap="round" stroke-linejoin="round"/>
<path d="M206.334 180.75L219.667 180.75" stroke="#BBBBBB" stroke-width="1.5" stroke-linecap="round" stroke-linejoin="round"/>
<path d="M206.334 186.583L219.667 186.583" stroke="#BBBBBB" stroke-width="1.5" stroke-linecap="round" stroke-linejoin="round"/>
</g>
<g filter="url(#filter1_d_6739_3543)">
<rect x="27" y="306.25" width="340" height="184" rx="16" fill="white" shape-rendering="crispEdges"/>
<path d="M58 329.25C58 329.25 52 333.669 52 335.25C52 336.831 58 341.25 58 341.25" stroke="#DDDDDD" stroke-width="1.5" stroke-linecap="round" stroke-linejoin="round"/>
<path d="M226.051 336.074L226.323 336.122L226.211 338.202L225.939 338.25C224.819 338.25 223.939 337.77 223.555 336.81C223.139 337.578 222.163 338.314 220.627 338.314C219.235 338.314 218.275 337.77 217.795 336.858C216.307 337.162 216.019 337.338 216.019 337.946V343.306H214.275V337.978C214.275 336.058 214.851 335.45 217.475 334.714C217.715 332.858 219.123 331.386 221.027 331.386C222.643 331.386 223.715 332.442 224.339 334.474C224.691 335.706 225.107 336.074 226.051 336.074ZM220.739 336.154C221.939 336.154 222.595 335.786 222.947 335.386C222.595 334.282 221.891 333.562 220.787 333.562C219.715 333.562 218.883 334.25 218.883 335.114C218.883 335.738 219.539 336.154 220.739 336.154ZM231.279 336.074L231.551 336.122L231.455 338.202L231.183 338.25C229.807 338.25 228.847 337.738 228.463 336.666C228.127 337.626 227.295 338.25 225.951 338.25L225.679 338.202L225.775 336.122L226.047 336.074C227.231 336.074 227.839 335.85 227.839 334.474V332.17H229.503V334.41C229.503 335.834 229.999 336.074 231.279 336.074ZM227.583 339.354C228.063 339.354 228.447 339.754 228.447 340.234C228.447 340.714 228.079 341.098 227.583 341.098C227.103 341.098 226.703 340.714 226.703 340.234C226.703 339.754 227.103 339.354 227.583 339.354ZM229.775 339.354C230.255 339.354 230.639 339.754 230.639 340.234C230.639 340.714 230.255 341.098 229.775 341.098C229.263 341.098 228.895 340.73 228.895 340.234C228.895 339.754 229.263 339.354 229.775 339.354ZM241.505 336.074L241.777 336.122L241.681 338.202L241.409 338.25C240.273 338.25 239.393 337.77 239.009 336.81C238.609 337.578 237.633 338.314 236.097 338.314C234.865 338.314 233.969 337.882 233.457 337.162C233.025 337.866 232.193 338.25 231.185 338.25L230.913 338.202L231.009 336.122L231.281 336.074C232.049 336.074 232.625 335.93 232.929 335.562C232.913 335.466 232.913 335.386 232.913 335.29C232.913 333.162 234.401 331.386 236.497 331.386C238.113 331.386 239.185 332.442 239.793 334.474C240.161 335.706 240.561 336.074 241.505 336.074ZM236.193 336.154C237.377 336.154 238.065 335.786 238.401 335.402C238.049 334.282 237.377 333.562 236.257 333.562C235.169 333.562 234.353 334.25 234.353 335.114C234.353 335.738 234.993 336.154 236.193 336.154ZM256.668 336.074L256.94 336.122L256.844 338.202L256.572 338.25C255.34 338.25 254.668 337.93 254.316 337.386C253.548 337.946 252.428 338.25 250.94 338.25H246.284C245.148 338.25 244.236 337.77 243.9 336.73C243.58 337.754 242.7 338.25 241.404 338.25L241.132 338.202L241.228 336.122L241.5 336.074C242.492 336.074 243.164 335.802 243.164 334.65V332.97H244.86V334.682C244.86 335.546 245.244 335.914 245.836 336.026C247.644 332.778 249.756 330.842 252.172 330.842C254.3 330.842 255.628 332.634 255.628 334.538C255.628 335.05 255.548 335.498 255.404 335.914C255.676 336.01 256.06 336.074 256.668 336.074ZM247.228 336.074H251.212C252.908 336.074 254.124 335.674 254.124 334.746C254.124 333.93 253.324 333.018 251.932 333.018C250.044 333.018 248.428 334.378 247.228 336.074ZM258.192 330.97C257.712 330.97 257.312 330.57 257.312 330.09C257.312 329.61 257.712 329.21 258.192 329.21C258.672 329.21 259.056 329.61 259.056 330.09C259.056 330.57 258.688 330.97 258.192 330.97ZM260.384 330.97C259.872 330.97 259.504 330.586 259.504 330.09C259.504 329.61 259.872 329.21 260.384 329.21C260.864 329.21 261.248 329.61 261.248 330.09C261.248 330.57 260.864 330.97 260.384 330.97ZM261.904 336.074L262.176 336.122L262.08 338.202L261.808 338.25C260.432 338.25 259.472 337.738 259.088 336.666C258.752 337.626 257.92 338.25 256.576 338.25L256.304 338.202L256.4 336.122L256.672 336.074C257.856 336.074 258.464 335.85 258.464 334.474V332.17H260.128V334.41C260.128 335.834 260.624 336.074 261.904 336.074ZM263.586 326.794H265.314V334.506C265.314 337.162 263.794 338.25 261.81 338.25L261.538 338.202L261.634 336.122L261.906 336.074C262.978 336.074 263.586 335.834 263.586 334.618V326.794ZM269.255 338.25H267.527V326.794H269.255V338.25ZM278.898 330.218C278.898 329.738 279.298 329.338 279.778 329.338C280.258 329.338 280.642 329.738 280.642 330.218C280.642 330.698 280.274 331.098 279.778 331.098C279.298 331.098 278.898 330.698 278.898 330.218ZM281.09 330.218C281.09 329.738 281.458 329.338 281.97 329.338C282.45 329.338 282.834 329.738 282.834 330.218C282.834 330.698 282.45 331.098 281.97 331.098C281.458 331.098 281.09 330.714 281.09 330.218ZM282.21 338.25H279.218C275.65 338.25 274.338 336.778 274.338 334.298C274.338 333.322 274.562 332.154 275.042 331.114L276.482 331.626C276.162 332.458 275.986 333.146 275.986 333.834C275.986 335.37 277.042 336.074 279.362 336.074H282.194C284.69 336.074 285.73 335.466 285.73 334.202C285.73 333.178 285.458 332.09 285.186 331.018L286.818 330.57C287.106 331.562 287.394 332.842 287.394 334.058C287.394 336.634 286.066 338.25 282.21 338.25ZM290.942 338.25H289.214V326.794H290.942V338.25ZM296.774 336.602C296.774 339.402 295.078 341.626 292.342 341.626C291.638 341.626 291.046 341.498 290.79 341.418L290.934 339.402C291.318 339.45 291.67 339.466 292.038 339.466C294.198 339.466 295.126 338.074 295.126 336.826C295.126 335.674 294.742 334.186 294.326 332.362L295.974 331.898C296.406 333.45 296.774 335.258 296.774 336.602ZM298.507 335.274V326.794H300.235V334.602C300.235 335.818 300.923 336.074 301.915 336.074H301.995L302.267 336.122L302.171 338.202L301.899 338.25H301.835C299.819 338.25 298.507 337.354 298.507 335.274ZM307.232 336.074L307.504 336.122L307.408 338.202L307.136 338.25C305.76 338.25 304.8 337.738 304.416 336.666C304.08 337.626 303.248 338.25 301.904 338.25L301.632 338.202L301.728 336.122L302 336.074C303.184 336.074 303.792 335.85 303.792 334.474V332.17H305.456V334.41C305.456 335.834 305.952 336.074 307.232 336.074ZM303.536 339.354C304.016 339.354 304.4 339.754 304.4 340.234C304.4 340.714 304.032 341.098 303.536 341.098C303.056 341.098 302.656 340.714 302.656 340.234C302.656 339.754 303.056 339.354 303.536 339.354ZM305.728 339.354C306.208 339.354 306.592 339.754 306.592 340.234C306.592 340.714 306.208 341.098 305.728 341.098C305.216 341.098 304.848 340.73 304.848 340.234C304.848 339.754 305.216 339.354 305.728 339.354ZM311.618 329.802C311.026 329.802 310.626 329.354 310.626 328.826C310.626 328.298 311.026 327.85 311.618 327.85C312.194 327.85 312.594 328.298 312.594 328.826C312.594 329.354 312.194 329.802 311.618 329.802ZM316.786 333.002H318.514L318.354 335.194H315.602C312.018 337.77 309.986 338.25 307.138 338.25L306.866 338.202L306.962 336.122L307.234 336.074C309.058 336.074 311.106 335.962 314.354 334.314C314.13 334.218 313.89 334.106 313.634 333.978C312.722 333.546 311.778 333.098 310.594 333.098C309.522 333.098 308.802 333.514 308.37 333.802L307.698 332.378C308.082 331.818 309.25 331.002 310.802 331.002C312.338 331.002 313.282 331.69 314.194 332.186C315.522 332.906 315.81 333.002 316.786 333.002Z" fill="#004956"/>
<path d="M342.5 335.25C342.5 337.183 340.933 338.75 339 338.75C337.067 338.75 335.5 337.183 335.5 335.25C335.5 333.317 337.067 331.75 339 331.75C340.933 331.75 342.5 333.317 342.5 335.25Z" stroke="#5CA9B5" stroke-width="1.5"/>
<path d="M348.011 337.347C348.533 337.206 348.794 337.135 348.897 337.001C349 336.866 349 336.65 349 336.217V334.283C349 333.85 349 333.634 348.897 333.499C348.794 333.365 348.533 333.294 348.011 333.154C346.061 332.628 344.84 330.589 345.343 328.651C345.482 328.118 345.551 327.852 345.485 327.695C345.419 327.539 345.229 327.431 344.85 327.216L343.125 326.237C342.753 326.025 342.567 325.92 342.4 325.942C342.233 325.965 342.044 326.153 341.667 326.529C340.208 327.984 337.794 327.984 336.334 326.529C335.957 326.153 335.769 325.965 335.602 325.942C335.435 325.92 335.249 326.025 334.877 326.237L333.152 327.216C332.773 327.431 332.583 327.539 332.517 327.695C332.451 327.851 332.52 328.118 332.658 328.651C333.161 330.588 331.94 332.628 329.989 333.154C329.467 333.294 329.206 333.365 329.103 333.499C329 333.634 329 333.85 329 334.283V336.217C329 336.65 329 336.866 329.103 337.001C329.206 337.135 329.467 337.206 329.989 337.347C331.939 337.873 333.16 339.912 332.657 341.849C332.518 342.382 332.449 342.649 332.515 342.805C332.581 342.961 332.771 343.069 333.15 343.284L334.875 344.263C335.247 344.475 335.433 344.58 335.6 344.558C335.767 344.535 335.956 344.347 336.333 343.971C337.793 342.514 340.209 342.514 341.669 343.971C342.046 344.347 342.234 344.535 342.401 344.558C342.568 344.58 342.754 344.475 343.127 344.263L344.851 343.284C345.231 343.069 345.42 342.961 345.486 342.805C345.553 342.648 345.483 342.382 345.345 341.849C344.841 339.912 346.061 337.873 348.011 337.347Z" stroke="#5CA9B5" stroke-width="1.5" stroke-linecap="round"/>
<path d="M58 371.25C58 371.25 52 375.669 52 377.25C52 378.831 58 383.25 58 383.25" stroke="#DDDDDD" stroke-width="1.5" stroke-linecap="round" stroke-linejoin="round"/>
<path d="M170.431 370.01C169.951 370.01 169.551 369.61 169.551 369.13C169.551 368.65 169.951 368.25 170.431 368.25C170.911 368.25 171.295 368.65 171.295 369.13C171.295 369.61 170.927 370.01 170.431 370.01ZM172.623 370.01C172.111 370.01 171.743 369.626 171.743 369.13C171.743 368.65 172.111 368.25 172.623 368.25C173.103 368.25 173.487 368.65 173.487 369.13C173.487 369.61 173.103 370.01 172.623 370.01ZM176.303 378.074L176.575 378.122L176.479 380.186L176.207 380.25C174.351 380.25 173.407 379.322 173.167 377.786C172.831 378.634 172.111 379.258 170.767 379.258C168.975 379.258 167.775 378.106 167.775 376.33C167.775 374.394 169.151 372.842 172.975 372.09V370.954H174.623V376.506C174.623 377.866 175.279 378.074 176.303 378.074ZM170.975 377.066C171.999 377.066 172.671 376.778 172.975 376.442V374.01C170.143 374.522 169.231 375.29 169.231 376.042C169.231 376.746 170.031 377.066 170.975 377.066ZM181.529 378.074L181.801 378.122L181.705 380.202L181.433 380.25C180.057 380.25 179.097 379.738 178.713 378.666C178.377 379.626 177.545 380.25 176.201 380.25L175.929 380.202L176.025 378.122L176.297 378.074C177.481 378.074 178.089 377.85 178.089 376.474V374.17H179.753V376.41C179.753 377.834 180.249 378.074 181.529 378.074ZM177.833 381.354C178.313 381.354 178.697 381.754 178.697 382.234C178.697 382.714 178.329 383.098 177.833 383.098C177.353 383.098 176.953 382.714 176.953 382.234C176.953 381.754 177.353 381.354 177.833 381.354ZM180.025 381.354C180.505 381.354 180.889 381.754 180.889 382.234C180.889 382.714 180.505 383.098 180.025 383.098C179.513 383.098 179.145 382.73 179.145 382.234C179.145 381.754 179.513 381.354 180.025 381.354ZM195.915 378.074L196.187 378.122L196.091 380.202L195.819 380.25C194.219 380.25 193.307 379.754 192.987 378.778C192.683 379.77 191.899 380.25 190.811 380.25C189.595 380.25 188.843 379.786 188.539 378.842C188.203 379.802 187.403 380.25 186.299 380.25C185.147 380.25 184.315 379.802 183.979 378.81C183.659 379.786 182.779 380.25 181.435 380.25L181.163 380.202L181.259 378.122L181.531 378.074C182.715 378.074 183.403 377.85 183.403 376.746V375.05H185.067V376.746C185.067 377.85 185.643 378.074 186.523 378.074C187.387 378.074 187.963 377.85 187.963 376.746V375.05H189.627V376.746C189.627 377.85 190.171 378.074 191.019 378.074C191.787 378.074 192.363 377.85 192.363 376.746V375.05H194.027V376.746C194.027 377.786 194.619 378.074 195.915 378.074ZM201.154 378.074L201.426 378.122L201.33 380.202L201.058 380.25C199.682 380.25 198.722 379.738 198.338 378.666C198.002 379.626 197.17 380.25 195.826 380.25L195.554 380.202L195.65 378.122L195.922 378.074C197.106 378.074 197.714 377.85 197.714 376.474V374.17H199.378V376.41C199.378 377.834 199.874 378.074 201.154 378.074ZM197.458 381.354C197.938 381.354 198.322 381.754 198.322 382.234C198.322 382.714 197.954 383.098 197.458 383.098C196.978 383.098 196.578 382.714 196.578 382.234C196.578 381.754 196.978 381.354 197.458 381.354ZM199.65 381.354C200.13 381.354 200.514 381.754 200.514 382.234C200.514 382.714 200.13 383.098 199.65 383.098C199.138 383.098 198.77 382.73 198.77 382.234C198.77 381.754 199.138 381.354 199.65 381.354ZM203.54 371.546H204.74V372.586H201.684V371.594H202.148C202.052 371.434 201.988 371.226 201.988 370.97C201.988 370.266 202.484 369.562 203.396 369.562C203.924 369.562 204.356 369.85 204.564 370.218L204.132 370.97C203.956 370.842 203.732 370.682 203.396 370.682C203.044 370.682 202.692 370.858 202.692 371.13C202.692 371.37 202.996 371.546 203.54 371.546ZM202.436 373.738L204.02 373.29C204.292 374.234 204.548 375.466 204.548 376.57C204.548 378.906 203.268 380.25 201.06 380.25L200.788 380.154L200.884 378.17L201.156 378.074C202.34 378.074 202.9 377.642 202.9 376.714C202.9 375.93 202.66 374.73 202.436 373.738ZM209.726 378.074H211.022L211.294 378.154L211.198 380.17L210.926 380.25H209.598C209.118 382.314 207.566 383.786 205.326 383.786C204.622 383.786 204.03 383.658 203.774 383.578L203.918 381.562C204.302 381.61 204.654 381.626 205.022 381.626C207.182 381.626 208.11 380.282 208.11 379.034C208.11 377.93 207.774 376.522 207.47 374.874L209.118 374.41C209.39 375.674 209.646 376.954 209.726 378.074ZM212.696 368.794H214.424V376.506C214.424 379.162 212.904 380.25 210.92 380.25L210.648 380.202L210.744 378.122L211.016 378.074C212.088 378.074 212.696 377.834 212.696 376.618V368.794ZM218.364 380.25H216.636V368.794H218.364V380.25ZM226.103 370.01C225.623 370.01 225.223 369.61 225.223 369.13C225.223 368.65 225.623 368.25 226.103 368.25C226.583 368.25 226.967 368.65 226.967 369.13C226.967 369.61 226.599 370.01 226.103 370.01ZM228.295 370.01C227.783 370.01 227.415 369.626 227.415 369.13C227.415 368.65 227.783 368.25 228.295 368.25C228.775 368.25 229.159 368.65 229.159 369.13C229.159 369.61 228.775 370.01 228.295 370.01ZM231.975 378.074L232.247 378.122L232.151 380.186L231.879 380.25C230.023 380.25 229.079 379.322 228.839 377.786C228.503 378.634 227.783 379.258 226.439 379.258C224.647 379.258 223.447 378.106 223.447 376.33C223.447 374.394 224.823 372.842 228.647 372.09V370.954H230.295V376.506C230.295 377.866 230.951 378.074 231.975 378.074ZM226.647 377.066C227.671 377.066 228.343 376.778 228.647 376.442V374.01C225.815 374.522 224.903 375.29 224.903 376.042C224.903 376.746 225.703 377.066 226.647 377.066ZM244.081 378.074L244.353 378.122L244.257 380.202L243.985 380.25C241.505 380.25 240.897 379.066 240.817 377.194H240.337C236.753 379.77 234.721 380.25 231.873 380.25L231.601 380.202L231.697 378.122L231.969 378.074C233.793 378.074 235.841 377.962 239.089 376.314C238.865 376.218 238.625 376.106 238.369 375.978C237.457 375.546 236.513 375.098 235.329 375.098C234.257 375.098 233.537 375.514 233.105 375.802L232.433 374.378C232.817 373.818 233.985 373.002 235.537 373.002C237.073 373.002 238.017 373.69 238.929 374.186C240.257 374.906 240.545 375.002 241.521 375.002H243.249L243.089 377.194H241.889C242.129 377.85 242.737 378.074 244.081 378.074ZM248.366 370.89C247.774 370.89 247.374 370.442 247.374 369.914C247.374 369.386 247.774 368.938 248.366 368.938C248.942 368.938 249.342 369.386 249.342 369.914C249.342 370.442 248.942 370.89 248.366 370.89ZM252.446 378.074L252.718 378.122L252.622 380.202L252.35 380.25C250.83 380.25 249.374 379.962 248.158 379.45C247.15 379.914 245.726 380.25 243.982 380.25L243.71 380.202L243.806 378.122L244.078 378.074C244.718 378.074 245.326 378.042 245.918 377.978C245.326 377.338 244.974 376.602 244.974 375.786C244.974 373.898 246.27 372.074 248.366 372.074C250.238 372.074 251.486 373.754 251.486 375.514C251.486 376.474 251.086 377.274 250.398 377.962C251.022 378.042 251.71 378.074 252.446 378.074ZM246.43 375.77C246.43 376.506 247.07 377.098 248.206 377.514C249.31 377.13 250.03 376.57 250.03 375.882C250.03 375.034 249.326 374.25 248.238 374.25C247.166 374.25 246.43 375.002 246.43 375.77ZM267.621 378.074L267.893 378.122L267.797 380.202L267.525 380.25C266.293 380.25 265.621 379.93 265.269 379.386C264.501 379.946 263.381 380.25 261.893 380.25H257.237C256.101 380.25 255.189 379.77 254.853 378.73C254.533 379.754 253.653 380.25 252.357 380.25L252.085 380.202L252.181 378.122L252.453 378.074C253.445 378.074 254.117 377.802 254.117 376.65V374.97H255.813V376.682C255.813 377.546 256.197 377.914 256.789 378.026C258.597 374.778 260.709 372.842 263.125 372.842C265.253 372.842 266.581 374.634 266.581 376.538C266.581 377.05 266.501 377.498 266.357 377.914C266.629 378.01 267.013 378.074 267.621 378.074ZM258.181 378.074H262.165C263.861 378.074 265.077 377.674 265.077 376.746C265.077 375.93 264.277 375.018 262.885 375.018C260.997 375.018 259.381 376.378 258.181 378.074ZM269.305 368.794H271.033V376.506C271.033 379.162 269.513 380.25 267.529 380.25L267.257 380.202L267.353 378.122L267.625 378.074C268.697 378.074 269.305 377.834 269.305 376.618V368.794ZM274.973 380.25H273.245V368.794H274.973V380.25ZM296.393 372.842C298.505 372.842 299.849 374.634 299.849 376.538C299.849 378.826 298.361 380.25 295.161 380.25H290.329C288.873 380.25 287.817 379.642 287.609 378.266H284.633C284.649 378.378 284.649 378.49 284.649 378.602C284.649 381.402 282.953 383.626 280.217 383.626C279.513 383.626 278.921 383.498 278.665 383.418L278.809 381.402C279.193 381.45 279.545 381.466 279.913 381.466C282.073 381.466 283.001 380.074 283.001 378.826C283.001 377.802 282.617 376.474 282.201 374.842L283.849 374.378C284.025 374.954 284.185 375.546 284.313 376.138H287.401V374.442H289.081V376.682C289.081 377.562 289.449 377.914 290.041 378.026C291.865 374.778 293.977 372.842 296.393 372.842ZM291.449 378.074H295.433C297.129 378.074 298.329 377.674 298.329 376.746C298.329 375.93 297.545 375.018 296.153 375.018C294.265 375.018 292.649 376.378 291.449 378.074ZM301.523 377.274V368.794H303.251V376.602C303.251 377.818 303.939 378.074 304.931 378.074H305.011L305.283 378.122L305.187 380.202L304.915 380.25H304.851C302.835 380.25 301.523 379.354 301.523 377.274ZM307.64 372.986C307.048 372.986 306.648 372.538 306.648 372.01C306.648 371.482 307.048 371.034 307.64 371.034C308.216 371.034 308.616 371.482 308.616 372.01C308.616 372.538 308.216 372.986 307.64 372.986ZM310.248 378.074L310.52 378.122L310.424 380.202L310.152 380.25C308.776 380.25 307.816 379.738 307.432 378.666C307.096 379.626 306.264 380.25 304.92 380.25L304.648 380.202L304.744 378.122L305.016 378.074C306.2 378.074 306.808 377.85 306.808 376.474V374.17H308.472V376.41C308.472 377.834 308.968 378.074 310.248 378.074ZM315.002 378.074H318.394V380.25H310.154L309.882 380.17L309.962 378.186L310.25 378.074H311.914C311.434 377.61 311.162 376.954 311.162 376.09C311.162 374.282 312.538 372.49 314.826 372.49C316.362 372.49 317.402 373.45 317.786 374.074L316.89 375.562C316.458 375.178 315.69 374.666 314.746 374.666C313.53 374.666 312.698 375.434 312.698 376.346C312.698 377.514 313.834 378.074 315.002 378.074Z" fill="#004956"/>
<path d="M339 382.25H339.009" stroke="#5CA9B5" stroke-width="2" stroke-linecap="round" stroke-linejoin="round"/>
<path d="M347 373.75V378.75C347 382.521 347 384.407 345.828 385.578C344.657 386.75 342.771 386.75 339 386.75C335.229 386.75 333.343 386.75 332.172 385.578C331 384.407 331 382.521 331 378.75V373.75" stroke="#5CA9B5" stroke-width="1.5"/>
<path d="M349 375.75L344.657 371.585C341.99 369.028 340.657 367.75 339 367.75C337.343 367.75 336.01 369.028 333.343 371.585L329 375.75" stroke="#5CA9B5" stroke-width="1.5" stroke-linecap="round"/>
<path d="M58 413.25C58 413.25 52 417.669 52 419.25C52 420.831 58 425.25 58 425.25" stroke="#DDDDDD" stroke-width="1.5" stroke-linecap="round" stroke-linejoin="round"/>
<path d="M241.507 420.074H242.803L243.075 420.154L242.979 422.17L242.707 422.25H241.379C240.899 424.314 239.347 425.786 237.107 425.786C236.403 425.786 235.811 425.658 235.555 425.578L235.699 423.562C236.083 423.61 236.435 423.626 236.803 423.626C238.963 423.626 239.891 422.282 239.891 421.034C239.891 419.93 239.555 418.522 239.251 416.874L240.899 416.41C241.171 417.674 241.427 418.954 241.507 420.074ZM254.909 420.074L255.181 420.122L255.085 422.202L254.813 422.25C252.333 422.25 251.725 421.066 251.645 419.194H251.165C247.581 421.77 245.549 422.25 242.701 422.25L242.429 422.202L242.525 420.122L242.797 420.074C244.621 420.074 246.669 419.962 249.917 418.314C249.693 418.218 249.453 418.106 249.197 417.978C248.285 417.546 247.341 417.098 246.157 417.098C245.085 417.098 244.365 417.514 243.933 417.802L243.261 416.378C243.645 415.818 244.813 415.002 246.365 415.002C247.901 415.002 248.845 415.69 249.757 416.186C251.085 416.906 251.373 417.002 252.349 417.002H254.077L253.917 419.194H252.717C252.957 419.85 253.565 420.074 254.909 420.074ZM249.949 421.994C250.525 421.994 250.925 422.442 250.925 422.97C250.925 423.498 250.525 423.946 249.949 423.946C249.357 423.946 248.957 423.498 248.957 422.97C248.957 422.442 249.357 421.994 249.949 421.994ZM256.426 414.97C255.946 414.97 255.546 414.57 255.546 414.09C255.546 413.61 255.946 413.21 256.426 413.21C256.906 413.21 257.29 413.61 257.29 414.09C257.29 414.57 256.922 414.97 256.426 414.97ZM258.618 414.97C258.106 414.97 257.738 414.586 257.738 414.09C257.738 413.61 258.106 413.21 258.618 413.21C259.098 413.21 259.482 413.61 259.482 414.09C259.482 414.57 259.098 414.97 258.618 414.97ZM260.138 420.074L260.41 420.122L260.314 422.202L260.042 422.25C258.666 422.25 257.706 421.738 257.322 420.666C256.986 421.626 256.154 422.25 254.81 422.25L254.538 422.202L254.634 420.122L254.906 420.074C256.09 420.074 256.698 419.85 256.698 418.474V416.17H258.362V418.41C258.362 419.834 258.858 420.074 260.138 420.074ZM270.365 420.074L270.637 420.122L270.541 422.202L270.269 422.25C269.133 422.25 268.253 421.77 267.869 420.81C267.469 421.578 266.493 422.314 264.957 422.314C263.725 422.314 262.829 421.882 262.317 421.162C261.885 421.866 261.053 422.25 260.045 422.25L259.773 422.202L259.869 420.122L260.141 420.074C260.909 420.074 261.485 419.93 261.789 419.562C261.773 419.466 261.773 419.386 261.773 419.29C261.773 417.162 263.261 415.386 265.357 415.386C266.973 415.386 268.045 416.442 268.653 418.474C269.021 419.706 269.421 420.074 270.365 420.074ZM265.053 420.154C266.237 420.154 266.925 419.786 267.261 419.402C266.909 418.282 266.237 417.562 265.117 417.562C264.029 417.562 263.213 418.25 263.213 419.114C263.213 419.738 263.853 420.154 265.053 420.154ZM272.039 410.794H273.767V418.506C273.767 421.162 272.247 422.25 270.263 422.25L269.991 422.202L270.087 420.122L270.359 420.074C271.431 420.074 272.039 419.834 272.039 418.618V410.794ZM277.708 422.25H275.98V410.794H277.708V422.25ZM294.535 420.074L294.807 420.122L294.695 422.202L294.423 422.25C293.303 422.25 292.423 421.77 292.039 420.81C291.623 421.578 290.647 422.314 289.111 422.314C287.719 422.314 286.759 421.77 286.279 420.858C284.791 421.162 284.503 421.338 284.503 421.946V427.306H282.759V421.978C282.759 420.058 283.335 419.45 285.959 418.714C286.199 416.858 287.607 415.386 289.511 415.386C291.127 415.386 292.199 416.442 292.823 418.474C293.175 419.706 293.591 420.074 294.535 420.074ZM289.223 420.154C290.423 420.154 291.079 419.786 291.431 419.386C291.079 418.282 290.375 417.562 289.271 417.562C288.199 417.562 287.367 418.25 287.367 419.114C287.367 419.738 288.023 420.154 289.223 420.154ZM296.915 413.546H298.115V414.586H295.059V413.594H295.523C295.427 413.434 295.363 413.226 295.363 412.97C295.363 412.266 295.859 411.562 296.771 411.562C297.299 411.562 297.731 411.85 297.939 412.218L297.507 412.97C297.331 412.842 297.107 412.682 296.771 412.682C296.419 412.682 296.067 412.858 296.067 413.13C296.067 413.37 296.371 413.546 296.915 413.546ZM295.811 415.738L297.395 415.29C297.667 416.234 297.923 417.466 297.923 418.57C297.923 420.906 296.643 422.25 294.435 422.25L294.163 422.154L294.259 420.17L294.531 420.074C295.715 420.074 296.275 419.642 296.275 418.714C296.275 417.93 296.035 416.73 295.811 415.738ZM301.52 422.25H299.792V410.794H301.52V422.25ZM310.087 420.074H311.015L311.287 420.218L311.191 422.09L310.919 422.25H309.799C309.207 424.234 307.703 425.786 304.695 425.786C303.703 425.786 302.775 425.626 302.359 425.498L302.503 423.562C303.047 423.642 303.799 423.754 304.743 423.754C306.855 423.754 308.007 423.002 308.487 422.122H306.311C304.295 422.122 303.367 420.89 303.367 419.37C303.367 417.194 304.807 415.45 306.807 415.45C308.919 415.45 310.087 417.514 310.087 420.058V420.074ZM304.791 419.178C304.791 419.77 305.463 420.074 306.535 420.074H308.711C308.551 418.778 307.895 417.578 306.631 417.578C305.399 417.578 304.791 418.474 304.791 419.178ZM313.832 411.29C313.352 411.29 312.952 410.89 312.952 410.41C312.952 409.93 313.352 409.53 313.832 409.53C314.312 409.53 314.696 409.93 314.696 410.41C314.696 410.89 314.328 411.29 313.832 411.29ZM316.024 411.29C315.512 411.29 315.144 410.906 315.144 410.41C315.144 409.93 315.512 409.53 316.024 409.53C316.504 409.53 316.888 409.93 316.888 410.41C316.888 410.89 316.504 411.29 316.024 411.29ZM314.92 412.49C317.112 412.49 318.296 414.522 318.296 416.938C318.296 420.906 316.808 422.25 313.96 422.25H310.92L310.648 422.202L310.744 420.122L311.016 420.074H314.056C315.64 420.074 316.76 419.802 316.856 417.77C316.44 418.41 315.688 418.97 314.392 418.97C312.472 418.97 311.512 417.802 311.512 416.186C311.512 414.186 312.872 412.49 314.92 412.49ZM314.616 417.066C315.672 417.066 316.392 416.73 316.776 416.298C316.568 415.53 315.96 414.554 314.744 414.554C313.592 414.554 312.936 415.354 312.936 415.978C312.936 416.666 313.608 417.066 314.616 417.066Z" fill="#004956"/>
<path d="M335 412.25L347 412.25" stroke="#5CA9B5" stroke-width="1.5" stroke-linecap="round"/>
<path d="M331 412.25H331.009" stroke="#5CA9B5" stroke-width="2" stroke-linecap="round" stroke-linejoin="round"/>
<path d="M331 419.25H331.009" stroke="#5CA9B5" stroke-width="2" stroke-linecap="round" stroke-linejoin="round"/>
<path d="M331 426.25H331.009" stroke="#5CA9B5" stroke-width="2" stroke-linecap="round" stroke-linejoin="round"/>
<path d="M335 419.25L347 419.25" stroke="#5CA9B5" stroke-width="1.5" stroke-linecap="round"/>
<path d="M335 426.25L347 426.25" stroke="#5CA9B5" stroke-width="1.5" stroke-linecap="round"/>
<path d="M58 455.25C58 455.25 52 459.669 52 461.25C52 462.831 58 467.25 58 467.25" stroke="#DDDDDD" stroke-width="1.5" stroke-linecap="round" stroke-linejoin="round"/>
<path d="M212.988 462.074L213.26 462.122L213.148 464.202L212.876 464.25C211.756 464.25 210.876 463.77 210.492 462.81C210.076 463.578 209.1 464.314 207.564 464.314C206.172 464.314 205.212 463.77 204.732 462.858C203.244 463.162 202.956 463.338 202.956 463.946V469.306H201.212V463.978C201.212 462.058 201.788 461.45 204.412 460.714C204.652 458.858 206.06 457.386 207.964 457.386C209.58 457.386 210.652 458.442 211.276 460.474C211.628 461.706 212.044 462.074 212.988 462.074ZM207.676 462.154C208.876 462.154 209.532 461.786 209.884 461.386C209.532 460.282 208.828 459.562 207.724 459.562C206.652 459.562 205.82 460.25 205.82 461.114C205.82 461.738 206.476 462.154 207.676 462.154ZM218.216 462.074L218.488 462.122L218.392 464.202L218.12 464.25C216.744 464.25 215.784 463.738 215.4 462.666C215.064 463.626 214.232 464.25 212.888 464.25L212.616 464.202L212.712 462.122L212.984 462.074C214.168 462.074 214.776 461.85 214.776 460.474V458.17H216.44V460.41C216.44 461.834 216.936 462.074 218.216 462.074ZM214.52 465.354C215 465.354 215.384 465.754 215.384 466.234C215.384 466.714 215.016 467.098 214.52 467.098C214.04 467.098 213.64 466.714 213.64 466.234C213.64 465.754 214.04 465.354 214.52 465.354ZM216.712 465.354C217.192 465.354 217.576 465.754 217.576 466.234C217.576 466.714 217.192 467.098 216.712 467.098C216.2 467.098 215.832 466.73 215.832 466.234C215.832 465.754 216.2 465.354 216.712 465.354ZM228.443 462.074L228.715 462.122L228.619 464.202L228.347 464.25C227.211 464.25 226.331 463.77 225.947 462.81C225.547 463.578 224.571 464.314 223.035 464.314C221.803 464.314 220.907 463.882 220.395 463.162C219.963 463.866 219.131 464.25 218.123 464.25L217.851 464.202L217.947 462.122L218.219 462.074C218.987 462.074 219.563 461.93 219.867 461.562C219.851 461.466 219.851 461.386 219.851 461.29C219.851 459.162 221.339 457.386 223.435 457.386C225.051 457.386 226.123 458.442 226.731 460.474C227.099 461.706 227.499 462.074 228.443 462.074ZM223.131 462.154C224.315 462.154 225.003 461.786 225.339 461.402C224.987 460.282 224.315 459.562 223.195 459.562C222.107 459.562 221.291 460.25 221.291 461.114C221.291 461.738 221.931 462.154 223.131 462.154ZM243.606 462.074L243.878 462.122L243.782 464.202L243.51 464.25C242.278 464.25 241.606 463.93 241.254 463.386C240.486 463.946 239.366 464.25 237.878 464.25H233.222C232.086 464.25 231.174 463.77 230.838 462.73C230.518 463.754 229.638 464.25 228.341 464.25L228.069 464.202L228.165 462.122L228.438 462.074C229.43 462.074 230.102 461.802 230.102 460.65V458.97H231.798V460.682C231.798 461.546 232.182 461.914 232.774 462.026C234.582 458.778 236.694 456.842 239.11 456.842C241.238 456.842 242.566 458.634 242.566 460.538C242.566 461.05 242.486 461.498 242.342 461.914C242.614 462.01 242.998 462.074 243.606 462.074ZM234.166 462.074H238.15C239.846 462.074 241.062 461.674 241.062 460.746C241.062 459.93 240.262 459.018 238.87 459.018C236.982 459.018 235.366 460.378 234.166 462.074ZM245.129 456.97C244.649 456.97 244.249 456.57 244.249 456.09C244.249 455.61 244.649 455.21 245.129 455.21C245.609 455.21 245.993 455.61 245.993 456.09C245.993 456.57 245.625 456.97 245.129 456.97ZM247.321 456.97C246.809 456.97 246.441 456.586 246.441 456.09C246.441 455.61 246.809 455.21 247.321 455.21C247.801 455.21 248.185 455.61 248.185 456.09C248.185 456.57 247.801 456.97 247.321 456.97ZM248.841 462.074L249.113 462.122L249.017 464.202L248.745 464.25C247.369 464.25 246.409 463.738 246.025 462.666C245.689 463.626 244.857 464.25 243.513 464.25L243.241 464.202L243.337 462.122L243.609 462.074C244.793 462.074 245.401 461.85 245.401 460.474V458.17H247.065V460.41C247.065 461.834 247.561 462.074 248.841 462.074ZM250.524 452.794H252.252V460.506C252.252 463.162 250.732 464.25 248.748 464.25L248.476 464.202L248.572 462.122L248.844 462.074C249.916 462.074 250.524 461.834 250.524 460.618V452.794ZM256.192 464.25H254.464V452.794H256.192V464.25ZM282.347 462.074L282.619 462.122L282.523 464.202L282.251 464.25C281.019 464.25 280.347 463.93 279.995 463.386C279.227 463.946 278.107 464.25 276.619 464.25H271.291C270.779 466.49 269.003 467.85 266.219 467.85C263.067 467.85 261.275 466.058 261.275 463.37C261.275 461.818 261.707 460.458 262.155 459.546L263.595 460.058C263.243 460.826 262.939 462.026 262.939 462.906C262.939 464.778 264.219 465.674 266.331 465.674C268.459 465.674 269.771 464.762 269.771 463.114C269.771 461.994 269.451 460.746 269.067 459.258L270.747 458.81C271.051 459.914 271.323 461.002 271.403 462.074H271.483C273.307 458.81 275.467 456.842 277.851 456.842C279.963 456.842 281.307 458.634 281.307 460.538C281.307 461.05 281.227 461.498 281.083 461.914C281.355 462.01 281.739 462.074 282.347 462.074ZM272.907 462.074H276.891C278.587 462.074 279.803 461.674 279.803 460.746C279.803 459.93 279.003 459.018 277.611 459.018C275.755 459.018 274.107 460.378 272.907 462.074ZM287.576 462.074L287.848 462.122L287.752 464.202L287.48 464.25C286.104 464.25 285.144 463.738 284.76 462.666C284.424 463.626 283.592 464.25 282.248 464.25L281.976 464.202L282.072 462.122L282.344 462.074C283.528 462.074 284.136 461.85 284.136 460.474V458.17H285.8V460.41C285.8 461.834 286.296 462.074 287.576 462.074ZM283.88 465.354C284.36 465.354 284.744 465.754 284.744 466.234C284.744 466.714 284.376 467.098 283.88 467.098C283.4 467.098 283 466.714 283 466.234C283 465.754 283.4 465.354 283.88 465.354ZM286.072 465.354C286.552 465.354 286.936 465.754 286.936 466.234C286.936 466.714 286.552 467.098 286.072 467.098C285.56 467.098 285.192 466.73 285.192 466.234C285.192 465.754 285.56 465.354 286.072 465.354ZM302.746 462.074L303.018 462.122L302.922 464.202L302.65 464.25C301.418 464.25 300.746 463.93 300.394 463.386C299.626 463.946 298.506 464.25 297.018 464.25H292.362C291.226 464.25 290.314 463.77 289.978 462.73C289.658 463.754 288.778 464.25 287.482 464.25L287.21 464.202L287.306 462.122L287.578 462.074C288.57 462.074 289.242 461.802 289.242 460.65V458.97H290.938V460.682C290.938 461.546 291.322 461.914 291.914 462.026C293.722 458.778 295.834 456.842 298.25 456.842C300.378 456.842 301.706 458.634 301.706 460.538C301.706 461.05 301.626 461.498 301.482 461.914C301.754 462.01 302.138 462.074 302.746 462.074ZM293.306 462.074H297.29C298.986 462.074 300.202 461.674 300.202 460.746C300.202 459.93 299.402 459.018 298.01 459.018C296.122 459.018 294.506 460.378 293.306 462.074ZM307.134 455.802C306.542 455.802 306.142 455.354 306.142 454.826C306.142 454.298 306.542 453.85 307.134 453.85C307.71 453.85 308.11 454.298 308.11 454.826C308.11 455.354 307.71 455.802 307.134 455.802ZM314.862 462.074L315.134 462.122L315.038 464.202L314.766 464.25C312.286 464.25 311.678 463.066 311.598 461.194H311.118C307.534 463.77 305.502 464.25 302.654 464.25L302.382 464.202L302.478 462.122L302.75 462.074C304.574 462.074 306.622 461.962 309.87 460.314C309.646 460.218 309.406 460.106 309.15 459.978C308.238 459.546 307.294 459.098 306.11 459.098C305.038 459.098 304.318 459.514 303.886 459.802L303.214 458.378C303.598 457.818 304.766 457.002 306.318 457.002C307.854 457.002 308.798 457.69 309.71 458.186C311.038 458.906 311.326 459.002 312.302 459.002H314.03L313.87 461.194H312.67C312.91 461.85 313.518 462.074 314.862 462.074ZM314.955 455.402C314.955 454.922 315.355 454.522 315.835 454.522C316.315 454.522 316.699 454.922 316.699 455.402C316.699 455.882 316.331 456.282 315.835 456.282C315.355 456.282 314.955 455.882 314.955 455.402ZM317.147 455.402C317.147 454.922 317.515 454.522 318.027 454.522C318.507 454.522 318.891 454.922 318.891 455.402C318.891 455.882 318.507 456.282 318.027 456.282C317.515 456.282 317.147 455.898 317.147 455.402ZM314.763 464.25L314.491 464.154L314.587 462.17L314.859 462.074C316.043 462.074 316.603 461.642 316.603 460.714C316.603 459.93 316.363 458.73 316.139 457.738L317.723 457.29C317.995 458.234 318.251 459.466 318.251 460.57C318.251 462.906 316.971 464.25 314.763 464.25Z" fill="#004956"/>
<path d="M347 459.378C347 455.546 347 453.631 345.828 452.44C344.657 451.25 342.771 451.25 339 451.25H337C333.229 451.25 331.343 451.25 330.172 452.44C329 453.631 329 455.546 329 459.378C329 463.21 329 465.125 330.172 466.316C330.641 466.793 331.226 467.079 332 467.25" stroke="#5CA9B5" stroke-width="1.5" stroke-linecap="round"/>
<path d="M349 466.75C349 464.875 349 463.938 348.523 463.281C348.368 463.068 348.182 462.882 347.969 462.727C347.312 462.25 346.375 462.25 344.5 462.25H339.5C337.625 462.25 336.688 462.25 336.031 462.727C335.818 462.882 335.632 463.068 335.477 463.281C335 463.938 335 464.875 335 466.75C335 468.625 335 469.562 335.477 470.219C335.632 470.432 335.818 470.618 336.031 470.773C336.688 471.25 337.625 471.25 339.5 471.25H344.5C346.375 471.25 347.312 471.25 347.969 470.773C348.182 470.618 348.368 470.432 348.523 470.219C349 469.562 349 468.625 349 466.75Z" stroke="#5CA9B5" stroke-width="1.5"/>
<path d="M343.5 465.25L344.42 466.043C344.807 466.376 345 466.543 345 466.75C345 466.957 344.807 467.124 344.42 467.457L343.5 468.25" stroke="#5CA9B5" stroke-width="1.5" stroke-linecap="round" stroke-linejoin="round"/>
<path d="M340.5 465.25L339.58 466.043C339.193 466.376 339 466.543 339 466.75C339 466.957 339.193 467.124 339.58 467.457L340.5 468.25" stroke="#5CA9B5" stroke-width="1.5" stroke-linecap="round" stroke-linejoin="round"/>
<path d="M329.5 455.25H346.5" stroke="#5CA9B5" stroke-width="1.5" stroke-linecap="round" stroke-linejoin="round"/>
</g>
<defs>
<filter id="filter0_d_6739_3543" x="0" y="0.75" width="271" height="244" filterUnits="userSpaceOnUse" color-interpolation-filters="sRGB">
<feFlood flood-opacity="0" result="BackgroundImageFix"/>
<feColorMatrix in="SourceAlpha" type="matrix" values="0 0 0 0 0 0 0 0 0 0 0 0 0 0 0 0 0 0 127 0" result="hardAlpha"/>
<feOffset dy="5"/>
<feGaussianBlur stdDeviation="12"/>
<feComposite in2="hardAlpha" operator="out"/>
<feColorMatrix type="matrix" values="0 0 0 0 0 0 0 0 0 0 0 0 0 0 0 0 0 0 0.08 0"/>
<feBlend mode="normal" in2="BackgroundImageFix" result="effect1_dropShadow_6739_3543"/>
<feBlend mode="normal" in="SourceGraphic" in2="effect1_dropShadow_6739_3543" result="shape"/>
</filter>
<filter id="filter1_d_6739_3543" x="3" y="287.25" width="388" height="232" filterUnits="userSpaceOnUse" color-interpolation-filters="sRGB">
<feFlood flood-opacity="0" result="BackgroundImageFix"/>
<feColorMatrix in="SourceAlpha" type="matrix" values="0 0 0 0 0 0 0 0 0 0 0 0 0 0 0 0 0 0 127 0" result="hardAlpha"/>
<feOffset dy="5"/>
<feGaussianBlur stdDeviation="12"/>
<feComposite in2="hardAlpha" operator="out"/>
<feColorMatrix type="matrix" values="0 0 0 0 0 0 0 0 0 0 0 0 0 0 0 0 0 0 0.08 0"/>
<feBlend mode="normal" in2="BackgroundImageFix" result="effect1_dropShadow_6739_3543"/>
<feBlend mode="normal" in="SourceGraphic" in2="effect1_dropShadow_6739_3543" result="shape"/>
</filter>
</defs>
</svg>
